<svg xmlns="http://www.w3.org/2000/svg" fill="none" viewBox="0 0 24 24" focusable="false"><path fill="currentColor" fill-rule="evenodd" d="M15.997 4.71894L19.2337 7.95564C19.8976 8.61953 19.8976 9.6959 19.2337 10.3598L15.5519 14.0416L9.91107 8.40075L13.5929 4.71894C14.2568 4.05505 15.3332 4.05505 15.997 4.71894ZM8.99183 9.31999L4.8006 13.5112C4.13671 14.1751 4.13671 15.2515 4.8006 15.9154L8.0373 19.1521C8.33667 19.4515 8.71992 19.6158 9.11141 19.6452L9.36735 19.6452C9.75884 19.6158 10.1421 19.4514 10.4415 19.1521L14.6327 14.9609L8.99183 9.31999ZM11.7868 19.6452L20.153 11.279C21.3246 10.1075 21.3246 8.20797 20.153 7.0364L16.9163 3.7997C15.7447 2.62813 13.8452 2.62813 12.6736 3.7997L3.88137 12.592C2.70979 13.7636 2.70979 15.663 3.88136 16.8346L7.11806 20.0713C7.64864 20.6019 8.32851 20.8922 9.02245 20.9422C9.03564 20.9435 9.04894 20.9443 9.06234 20.9448C9.17793 20.9516 9.29384 20.9517 9.40944 20.9452L16.4204 20.9452C16.7794 20.9452 17.0704 20.6542 17.0704 20.2952C17.0704 19.9362 16.7794 19.6452 16.4205 19.6452L11.7868 19.6452Z"/></svg>