<svg xmlns="http://www.w3.org/2000/svg" fill="none" viewBox="0 0 24 24" focusable="false"><path fill="currentColor" fill-rule="evenodd" d="M6.99902 4L17.001 4C18.6582 4 20.001 5.34314 20.001 7L20.001 17C20.001 18.6569 18.6582 20 17.001 20L6.99902 20C5.3418 20 3.99902 18.6569 3.99902 17L3.99902 7C3.99902 5.34314 5.3418 4 6.99902 4ZM15.7256 17.2699L15.7256 6.72958C15.7256 6.36559 15.4395 6.07959 15.0752 6.07959C14.7109 6.07959 14.4248 6.36559 14.4248 6.72958L14.4248 17.2699C14.4248 17.6339 14.7109 17.9199 15.0752 17.9199C15.4395 17.9199 15.7256 17.6339 15.7256 17.2699ZM12.8896 6.72983L12.8896 17.2702C12.8896 17.6342 12.6035 17.9202 12.2393 17.9202C11.875 17.9202 11.5889 17.6342 11.5889 17.2702L11.5889 6.72983C11.5889 6.36583 11.875 6.07983 12.2393 6.07983C12.6035 6.07983 12.8896 6.36583 12.8896 6.72983ZM6.09082 6.931L6.09082 13.1064C6.09082 13.4704 6.37695 13.7563 6.74121 13.7563C7.10547 13.7563 7.3916 13.4704 7.3916 13.1064L7.3916 6.931C7.3916 6.567 7.10547 6.28101 6.74121 6.28101C6.37695 6.28101 6.09082 6.567 6.09082 6.931ZM10.0537 6.93102L10.0537 17.2702C10.0537 17.6342 9.76758 17.9202 9.40332 17.9202C9.03906 17.9202 8.75293 17.6342 8.75293 17.2702L8.75293 6.93102C8.75293 6.56702 9.03906 6.28101 9.40332 6.28101C9.76758 6.28101 10.0537 6.56702 10.0537 6.93102ZM18.3877 13.7073L18.3877 10.2507C18.3877 9.88673 18.1016 9.60083 17.7373 9.60083C17.373 9.60083 17.0869 9.88673 17.0869 10.2507L17.0869 13.7073C17.0869 14.0713 17.373 14.3574 17.7373 14.3574C18.1016 14.3574 18.3877 14.0713 18.3877 13.7073ZM7.3916 15.5608L7.3916 17.2701C7.3916 17.6341 7.10547 17.9201 6.74121 17.9201C6.37695 17.9201 6.09082 17.6341 6.09082 17.2701L6.09082 15.5608C6.09082 15.1968 6.37695 14.9109 6.74121 14.9109C7.10547 14.9109 7.3916 15.1968 7.3916 15.5608Z"/></svg>