<svg xmlns="http://www.w3.org/2000/svg" fill="none" viewBox="0 0 40 40" focusable="false"><path d="M0 0H40V40H0z"/><path fill="#f4f5f6" d="M1 12.4C1 10.1598 1 9.03969 1.43597 8.18404C1.81947 7.43139 2.43139 6.81947 3.18404 6.43597C4.03969 6 5.15979 6 7.4 6L32.6 6C34.8402 6 35.9603 6 36.816 6.43597C37.5686 6.81947 38.1805 7.43139 38.564 8.18404C39 9.03969 39 10.1598 39 12.4L39 27.6C39 29.8402 39 30.9603 38.564 31.816C38.1805 32.5686 37.5686 33.1805 36.816 33.564C35.9603 34 34.8402 34 32.6 34L7.4 34C5.15979 34 4.03969 34 3.18404 33.564C2.43139 33.1805 1.81947 32.5686 1.43597 31.816C1 30.9603 1 29.8402 1 27.6L1 12.4Z"/><path fill="#04e061" d="M16.141 28.4C19.036 28.4 21.382 26.068 21.382 23.192 21.382 20.316 19.036 17.984 16.141 17.984 13.247 17.984 10.9 20.316 10.9 23.192 10.9 26.068 13.247 28.4 16.141 28.4ZM25.233 27.743C26.982 27.743 28.4 26.334 28.4 24.596 28.4 22.858 26.982 21.449 25.233 21.449 23.484 21.449 22.066 22.858 22.066 24.596 22.066 26.334 23.484 27.743 25.233 27.743Z"/><path fill="#ff4053" d="M25.2329 27.7429C26.9821 27.7429 28.3999 26.3339 28.3999 24.5957C28.3999 22.8576 26.9821 21.4487 25.2329 21.4487C23.4839 21.4487 22.0659 22.8576 22.0659 24.5957C22.0659 26.3339 23.4839 27.7429 25.2329 27.7429Z"/><path fill="#04e061" d="M17.1433 17.3047C18.2257 17.3047 19.103 16.4329 19.103 15.3573C19.103 14.2816 18.2257 13.4098 17.1433 13.4098C16.0609 13.4098 15.1835 14.2816 15.1835 15.3573C15.1835 16.4329 16.0609 17.3047 17.1433 17.3047Z"/><path fill="#965eeb" d="M17.1433 17.3047C18.2257 17.3047 19.103 16.4329 19.103 15.3573C19.103 14.2816 18.2257 13.4098 17.1433 13.4098C16.0609 13.4098 15.1835 14.2816 15.1835 15.3573C15.1835 16.4329 16.0609 17.3047 17.1433 17.3047Z"/><path fill="#04e061" d="M24.0027 20.769C26.3561 20.769 28.2639 18.8731 28.2639 16.5345C28.2639 14.196 26.3561 12.3 24.0027 12.3C21.6493 12.3 19.7415 14.196 19.7415 16.5345C19.7415 18.8731 21.6493 20.769 24.0027 20.769Z"/><path fill="#0af" d="M24.0027 20.769C26.3561 20.769 28.2639 18.8731 28.2639 16.5345C28.2639 14.196 26.3561 12.3 24.0027 12.3C21.6493 12.3 19.7415 14.196 19.7415 16.5345C19.7415 18.8731 21.6493 20.769 24.0027 20.769Z"/></svg>