<svg xmlns="http://www.w3.org/2000/svg" fill="none" viewBox="0 0 40 40" focusable="false"><path d="M0 0H40V40H0z"/><path fill="#f4f5f6" d="M1 12.4C1 10.1598 1 9.03969 1.43597 8.18404C1.81947 7.43139 2.43139 6.81947 3.18404 6.43597C4.03969 6 5.15979 6 7.4 6L32.6 6C34.8402 6 35.9603 6 36.816 6.43597C37.5686 6.81947 38.1805 7.43139 38.564 8.18404C39 9.03969 39 10.1598 39 12.4L39 27.6C39 29.8402 39 30.9603 38.564 31.816C38.1805 32.5686 37.5686 33.1805 36.816 33.564C35.9603 34 34.8402 34 32.6 34L7.4 34C5.15979 34 4.03969 34 3.18404 33.564C2.43139 33.1805 1.81947 32.5686 1.43597 31.816C1 30.9603 1 29.8402 1 27.6L1 12.4Z"/><path fill="#003b70" d="M16.165 23.303C15.62 23.858 14.956 24.185 14.306 24.185 12.949 24.185 11.965 23.167 11.965 21.763 11.965 20.362 12.949 19.342 14.306 19.342 14.956 19.342 15.586 19.638 16.131 20.195L17.038 19.173C16.312 18.316 15.418 17.87 14.348 17.87 13.274 17.87 12.292 18.231 11.585 18.883 10.816 19.589 10.41 20.584 10.41 21.763 10.41 22.941 10.816 23.939 11.585 24.645 12.292 25.3 13.274 25.659 14.348 25.659 15.418 25.659 16.289 25.242 17.014 24.385L16.165 23.303ZM17.919 25.516 19.46 25.516 19.46 17.992 17.919 17.992 17.919 25.516Z"/><path fill="#003b70" d="M17.919 25.516 19.46 25.516 19.46 17.992 17.919 17.992 17.919 25.516ZM25.497 23.88C25.086 24.13 24.703 24.256 24.36 24.256 23.862 24.256 23.637 23.993 23.637 23.408L23.637 19.416 25.207 19.416 25.207 17.999 23.637 17.999 23.637 15.658 22.126 16.467 22.126 17.999 20.823 17.999 20.823 19.416 22.126 19.416 22.126 23.663C22.126 24.82 22.812 25.61 23.835 25.631 24.529 25.644 24.948 25.437 25.203 25.286L25.497 23.88Z"/><path fill="#003b70" d="M25.497 23.88C25.086 24.13 24.703 24.256 24.36 24.256 23.862 24.256 23.637 23.993 23.637 23.408L23.637 19.416 25.207 19.416 25.207 17.999 23.637 17.999 23.637 15.658 22.126 16.467 22.126 17.999 20.823 17.999 20.823 19.416 22.126 19.416 22.126 23.663C22.126 24.82 22.812 25.61 23.835 25.631 24.529 25.644 24.948 25.437 25.203 25.286L25.497 23.88ZM26.774 25.516 28.316 25.516 28.316 17.992 26.774 17.992 26.774 25.516Z"/><path fill="#003b70" d="M26.7738 25.5158L28.316 25.5158L28.316 17.9922L26.7738 17.9922L26.7738 25.5158Z"/><path fill="#003b70" fill-rule="evenodd" d="M29.2391 16.6573C27.8284 14.6589 25.4854 13.4667 23.1016 13.4667C20.7188 13.4667 18.3754 14.6589 16.9668 16.6573L16.8947 16.7601L18.671 16.7601C19.88 15.5121 21.4781 14.8309 23.1016 14.8309C24.7252 14.8309 26.3032 15.4908 27.5146 16.7388L29.3103 16.7601L29.2391 16.6573Z"/><path fill="#d9261c" fill-rule="evenodd" d="M29.2391 16.6573C27.8284 14.6589 25.4854 13.4667 23.1016 13.4667C20.7188 13.4667 18.3754 14.6589 16.9668 16.6573L16.8947 16.7601L18.671 16.7601C19.88 15.5121 21.4781 14.8309 23.1016 14.8309C24.7252 14.8309 26.3032 15.4908 27.5146 16.7388L29.3103 16.7601L29.2391 16.6573Z"/></svg>