<svg xmlns="http://www.w3.org/2000/svg" fill="none" viewBox="0 0 40 40" focusable="false"><path d="M0 0H40V40H0z"/><path fill="#f4f5f6" d="M1 12.4C1 10.1598 1 9.03969 1.43597 8.18404C1.81947 7.43139 2.43139 6.81947 3.18404 6.43597C4.03969 6 5.15979 6 7.4 6L32.6 6C34.8402 6 35.9603 6 36.816 6.43597C37.5686 6.81947 38.1805 7.43139 38.564 8.18404C39 9.03969 39 10.1598 39 12.4L39 27.6C39 29.8402 39 30.9603 38.564 31.816C38.1805 32.5686 37.5686 33.1805 36.816 33.564C35.9603 34 34.8402 34 32.6 34L7.4 34C5.15979 34 4.03969 34 3.18404 33.564C2.43139 33.1805 1.81947 32.5686 1.43597 31.816C1 30.9603 1 29.8402 1 27.6L1 12.4Z"/><path fill="#e2001a" fill-rule="evenodd" d="M20.401 14.911C20.407 14.902 20.413 14.893 20.42 14.883 20.582 14.648 20.515 14.473 20.406 14.379 20.338 14.319 18.714 13.335 18.714 13.335 18.597 13.256 18.519 13.122 18.519 12.969 18.519 12.729 18.663 12.547 18.99 12.457 20.034 12.17 23.705 12.019 24.953 12.019 25.385 12.019 26.13 12.017 26.8 12.037L26.77 12.008C24.941 10.446 22.566 9.503 19.973 9.503 14.188 9.503 9.5 14.19 9.5 19.975 9.5 22.517 10.406 24.847 11.912 26.662 13.228 24.77 16.476 20.107 17.188 19.154 18.008 18.056 19.878 15.614 20.194 15.201L20.21 15.181 20.401 14.911ZM13.587 28.276C15.355 29.637 17.568 30.446 19.973 30.446 25.757 30.446 30.445 25.758 30.445 19.974 30.445 18.224 30.015 16.574 29.257 15.124L29.258 15.125C29.618 14.778 30.034 14.228 29.761 13.539 29.675 13.334 29.268 12.869 29.163 12.756L29.178 12.796C29.433 13.565 28.929 14.047 28.566 14.374 28.368 14.556 25.709 17.062 22.59 19.789 19.841 22.193 16.767 24.638 14.985 25.972 12.48 27.846 11.993 28.119 11.993 28.119 11.926 28.155 11.816 28.185 11.736 28.185 11.583 28.185 11.45 28.117 11.366 28.007L11.363 28.004C11.35 28.037 11.345 28.065 11.357 28.084 11.625 28.52 12.071 29.023 12.331 29.023 12.411 29.023 12.522 28.992 12.589 28.957 12.589 28.957 12.786 28.848 13.587 28.276Z"/><path fill="#e2001a" fill-rule="evenodd" d="M13.5871 28.2755C15.3546 29.637 17.5684 30.4464 19.9729 30.4464C25.7566 30.4464 30.4449 25.7581 30.4449 19.9744C30.4449 18.2235 30.0153 16.5741 29.2566 15.1242L29.2575 15.1251C29.618 14.7777 30.0336 14.2282 29.7606 13.5387C29.6749 13.334 29.268 12.8685 29.163 12.7556L29.1779 12.7959C29.4325 13.565 28.9285 14.0471 28.5663 14.3744C28.3676 14.5555 25.7085 17.0624 22.59 19.7889C19.8408 22.1925 16.7669 24.6381 14.9854 25.9716C12.4802 27.8459 11.9928 28.1189 11.9928 28.1189C11.9263 28.1547 11.8161 28.1854 11.7356 28.1854C11.5825 28.1854 11.4495 28.1171 11.3655 28.0069L11.3629 28.0042C11.3497 28.0366 11.3454 28.0646 11.3567 28.0839C11.6253 28.5196 12.0707 29.0227 12.3306 29.0227C12.4111 29.0227 12.5222 28.9921 12.5887 28.9571C12.5887 28.9571 12.7856 28.8477 13.5871 28.2755Z"/><path fill="#e2001a" fill-rule="evenodd" d="M20.4155 14.883C20.5765 14.6485 20.5093 14.4735 20.4016 14.379C20.3333 14.3195 18.7094 13.3351 18.7094 13.3351C18.592 13.2564 18.5142 13.1234 18.5142 12.9702C18.5142 12.7287 18.6585 12.5476 18.9859 12.4566C20.0288 12.1696 23.7003 12.0199 24.9472 12.0199C25.5361 12.0199 26.7025 12.0156 27.4698 12.0664C28.3309 12.1224 28.9845 12.3009 29.1463 12.7174C29.4657 13.5337 28.9381 14.0377 28.5636 14.3772C28.3658 14.5575 25.7067 17.0644 22.5882 19.7909C19.8389 22.1945 16.7642 24.6393 14.9835 25.9736C12.4785 27.8479 11.9911 28.1209 11.9911 28.1209C11.9246 28.1568 11.8143 28.1874 11.733 28.1874C11.474 28.1874 11.2701 27.9888 11.2701 27.728C11.2701 27.63 11.2998 27.5373 11.3523 27.4629C11.3523 27.4629 16.2847 20.3561 17.1833 19.1539C18.081 17.9534 20.2353 15.1411 20.2353 15.1411C20.2353 15.1411 20.2607 15.1096 20.4155 14.883Z"/><path fill="#fefefe" fill-rule="evenodd" d="M20.4155 14.883C20.5765 14.6485 20.5093 14.4735 20.4016 14.379C20.3333 14.3195 18.7094 13.3351 18.7094 13.3351C18.592 13.2564 18.5142 13.1234 18.5142 12.9702C18.5142 12.7287 18.6585 12.5476 18.9859 12.4566C20.0288 12.1696 23.7003 12.0199 24.9472 12.0199C25.5361 12.0199 26.7025 12.0156 27.4698 12.0664C28.3309 12.1224 28.9845 12.3009 29.1463 12.7174C29.4657 13.5337 28.9381 14.0377 28.5636 14.3772C28.3658 14.5575 25.7067 17.0644 22.5882 19.7909C19.8389 22.1945 16.7642 24.6393 14.9835 25.9736C12.4785 27.8479 11.9911 28.1209 11.9911 28.1209C11.9246 28.1568 11.8143 28.1874 11.733 28.1874C11.474 28.1874 11.2701 27.9888 11.2701 27.728C11.2701 27.63 11.2998 27.5373 11.3523 27.4629C11.3523 27.4629 16.2847 20.3561 17.1833 19.1539C18.081 17.9534 20.2353 15.1411 20.2353 15.1411C20.2353 15.1411 20.2607 15.1096 20.4155 14.883Z"/></svg>