<svg viewBox="0 0 24 24" xmlns="http://www.w3.org/2000/svg" xmlns:xlink="http://www.w3.org/1999/xlink" width="24.000000" height="24.000000" fill="none">
	<rect id="Solid/Bus Solid" width="24.000000" height="24.000000" x="0.000000" y="0.000000" />
	<path id="Shape" d="M3.00935 12.149C3.00446 12.1032 3.00195 12.0566 3.00195 12.0095L3.00195 5.4541C3.00195 3.79725 4.3451 2.4541 6.00195 2.4541L18.0004 2.4541C19.6572 2.4541 21.0004 3.79725 21.0004 5.4541L21.0004 14.2324C21.0004 14.6743 20.6422 15.0324 20.2004 15.0324L18.0166 15.0324C17.6576 15.0324 17.3666 15.3235 17.3666 15.6824C17.3666 16.0414 17.6576 16.3324 18.0166 16.3324L20.2004 16.3324C20.6422 16.3324 21.0004 16.6906 21.0004 17.1324L21.0004 18.7442L21.0003 18.7537L21.0003 20.7083C21.0003 21.4263 20.4183 22.0083 19.7003 22.0083L18.55 22.0083C17.832 22.0083 17.25 21.4263 17.25 20.7083L17.25 18.8314C17.2434 18.8095 17.2374 18.7873 17.2321 18.7649C16.8513 17.1525 15.4009 15.9528 13.671 15.957L11.9979 15.9609L10.3421 15.9609C8.6166 15.9609 7.17156 17.158 6.79038 18.7658C6.78623 18.7833 6.78165 18.8007 6.77667 18.818L6.77667 20.7083C6.77667 21.4263 6.19464 22.0083 5.47667 22.0083L4.32637 22.0083C3.6084 22.0083 3.02637 21.4263 3.02637 20.7083L3.02637 18.8648C3.02042 18.8255 3.01733 18.7852 3.01733 18.7442L3.01733 17.1324C3.01733 16.6906 3.37551 16.3324 3.81733 16.3324L6.00622 16.3324C6.36521 16.3324 6.65622 16.0414 6.65622 15.6824C6.65622 15.3235 6.36521 15.0324 6.00622 15.0324L3.81733 15.0324C3.37551 15.0324 3.01733 14.6743 3.01733 14.2324L3.01733 12.2716C3.01733 12.2306 3.0137 12.1898 3.00935 12.149ZM6.00195 3.7541L18.0004 3.7541C18.9392 3.7541 19.7004 4.51522 19.7004 5.4541L19.7004 11.1999C19.7004 11.6417 19.3422 11.9999 18.9004 11.9999L5.10195 11.9999C4.66012 11.9999 4.30195 11.6417 4.30195 11.1999L4.30195 5.4541C4.30195 4.51522 5.06307 3.7541 6.00195 3.7541ZM6.99668 5.04724C6.63769 5.04724 6.34668 5.33826 6.34668 5.69724C6.34668 6.05623 6.63769 6.34724 6.99668 6.34724L17.028 6.34724C17.3869 6.34724 17.678 6.05623 17.678 5.69724C17.678 5.33826 17.3869 5.04724 17.028 5.04724L6.99668 5.04724ZM15.2077 19.5442C15.6577 19.5442 16.0314 19.162 15.866 18.7435C15.5213 17.8713 14.6695 17.2546 13.6741 17.257L11.9986 17.2609L10.3421 17.2609C9.35066 17.2609 8.50305 17.8747 8.15772 18.7425C7.99114 19.1611 8.36501 19.5442 8.81555 19.5442L15.2077 19.5442Z" fill="rgb(0,0,0)" fill-opacity="0.560000002" fill-rule="evenodd" />
</svg>
