<svg xmlns="http://www.w3.org/2000/svg" fill="none" viewBox="0 0 24 24" focusable="false"><path fill="currentColor" fill-rule="evenodd" d="M8.44135 7.55556C9.42319 7.55556 10.2191 6.75962 10.2191 5.77778C10.2191 4.79594 9.42319 4 8.44135 4C7.45951 4 6.66357 4.79594 6.66357 5.77778C6.66357 6.75962 7.45951 7.55556 8.44135 7.55556ZM15.5585 7.55556C16.5404 7.55556 17.3363 6.75962 17.3363 5.77778C17.3363 4.79594 16.5404 4 15.5585 4C14.5767 4 13.7808 4.79594 13.7808 5.77778C13.7808 6.75962 14.5767 7.55556 15.5585 7.55556ZM10.2191 12C10.2191 12.9818 9.42319 13.7778 8.44135 13.7778C7.45951 13.7778 6.66357 12.9818 6.66357 12C6.66357 11.0182 7.45951 10.2222 8.44135 10.2222C9.42319 10.2222 10.2191 11.0182 10.2191 12ZM15.5585 13.7778C16.5404 13.7778 17.3363 12.9818 17.3363 12C17.3363 11.0182 16.5404 10.2222 15.5585 10.2222C14.5767 10.2222 13.7808 11.0182 13.7808 12C13.7808 12.9818 14.5767 13.7778 15.5585 13.7778ZM8.44135 20C9.42319 20 10.2191 19.2041 10.2191 18.2222C10.2191 17.2404 9.42319 16.4444 8.44135 16.4444C7.45951 16.4444 6.66357 17.2404 6.66357 18.2222C6.66357 19.2041 7.45951 20 8.44135 20ZM17.3363 18.2222C17.3363 19.2041 16.5404 20 15.5585 20C14.5767 20 13.7808 19.2041 13.7808 18.2222C13.7808 17.2404 14.5767 16.4444 15.5585 16.4444C16.5404 16.4444 17.3363 17.2404 17.3363 18.2222Z"/></svg>