<svg xmlns="http://www.w3.org/2000/svg" fill="none" viewBox="0 0 28 28" focusable="false"><path fill="none" d="M0 0H28V28H0z" transform="matrix(-1 0 0 -1 28 28)"/><rect width="28" height="20" y="4" fill="#fff" rx="3"/><rect width="27.5" height="19.5" x=".25" y="4.25" stroke="#d6d8dd" stroke-width=".5" rx="2.75"/><path fill="#1b2f4c" fill-rule="evenodd" d="M0 7L0 0L28 0L28 7C28 8.65685 26.6569 10 25 10L3 10C1.34315 10 0 8.65685 0 7ZM9.03589 0.000103951L14.0011 8.06377L18.964 0.000103951L9.03589 0.000103951Z" transform="matrix(-1 0 0 -1 28 14)"/><path fill="none" d="M8.44864 0L0 0L0 7C0 8.65685 1.34315 10 3 10L25 10C26.6569 10 28 8.65685 28 7L28 0L8.44864 0ZM8.75651 0.5L0.5 0.5L0.5 7Q0.5 7.51776 0.683054 7.9597Q0.866113 8.40165 1.23223 8.76777Q1.59835 9.13388 2.04029 9.31694Q2.48223 9.5 3 9.5L25 9.5Q25.5178 9.5 25.9597 9.31694Q26.4016 9.13388 26.7678 8.76777Q27.1339 8.40165 27.3169 7.95971Q27.5 7.51777 27.5 7L27.5 0.5L19.2435 0.5L14.0012 9.01754L8.75651 0.5ZM18.964 0.000103951L9.03589 0.000103951L9.3437 0.5L9.34376 0.500104L13.7074 7.58691L14.0011 8.06377L14.2946 7.58686L18.6563 0.500104L18.6564 0.5L18.964 0.000103951Z" transform="matrix(-1 0 0 -1 28 14)"/><path fill="#1b2f4c" d="M4.96298 0L9.92815 8.06366L4.96407 6.05844L0 8.06366L4.96298 0Z" transform="matrix(1 0 0 -1 9.036 22.064)"/></svg>