<svg xmlns="http://www.w3.org/2000/svg" fill="none" viewBox="0 0 30 28" focusable="false"><defs><filter id="Belarus_svg__a"><feColorMatrix values="0 0 0 0 1 0 0 0 0 1 0 0 0 0 1 0 0 0 1 0"/></filter></defs><mask id="Belarus_svg__b" width="28" height="20" x="2" y="4" maskUnits="userSpaceOnUse"><g filter="url(#Belarus_svg__a)"><rect width="28" height="20" x="2" y="4" fill="#fff" rx="3"/><rect width="28" height="20" x="2" y="4" stroke="#969696" stroke-opacity="0" stroke-width="0" rx="3"/></g></mask><path fill="none" d="M2 0H30V28H2z"/><rect width="28" height="20" x="2" y="4" fill="#fff" rx="3"/><rect width="28" height="20" x="2" y="4" rx="3"/><g mask="url(#Belarus_svg__b)"><path fill="#e54252" fill-rule="evenodd" d="M2 17.3333L30 17.3333L30 4L2 4L2 17.3333Z"/><path d="M30 17.3333L30 4L2 4L2 17.3333L30 17.3333Z"/><path fill="#5cbe6b" fill-rule="evenodd" d="M2 24L30 24L30 17.3333L2 17.3333L2 24Z"/><path d="M30 24L30 17.3333L2 17.3333L2 24L30 24Z"/><path fill="#fff" fill-rule="evenodd" d="M6 4L6 7L5.33333 8L6 9L6 11L5.33333 12L6 13L6 15L5.33333 16L6 17L6 19L5.33333 20L6 21L6 24L2 24L2 4L6 4Z"/><path d="M6 4L6 7L5.33333 8L6 9L6 11L5.33333 12L6 13L6 15L5.33333 16L6 17L6 19L5.33333 20L6 21L6 24L2 24L2 4L6 4Z"/><path fill="#e54252" fill-rule="evenodd" d="M0 8L1.33333 6L2.66667 8L1.33333 10L0 8ZM1.33333 14L2.66667 12L1.33333 10L0 12L1.33333 14ZM1.33333 18L0 16L1.33333 14L2.66667 16L1.33333 18ZM1.33333 18L2.66667 20L1.33333 22L0 20L1.33333 18Z"/><path d="M0 8L1.33333 6L2.66667 8L1.33333 10L0 8ZM1.33333 14L2.66667 12L1.33333 10L0 12L1.33333 14ZM1.33333 18L0 16L1.33333 14L2.66667 16L1.33333 18ZM1.33333 18L2.66667 20L1.33333 22L0 20L1.33333 18Z"/><path fill="#e54252" fill-rule="evenodd" d="M4.00002 4L2.66669 6L4.00002 8L2.66669 10L4.00002 12L2.66669 14L4.00002 16L2.66669 18L4.00002 20L2.66669 22L4.00002 24L5.33335 22L4.00002 20L5.33335 18L4.00002 16L5.33335 14L4.00002 12L5.33335 10L4.00002 8L5.33335 6L4.00002 4Z"/><path d="M4.00002 4L2.66669 6L4.00002 8L2.66669 10L4.00002 12L2.66669 14L4.00002 16L2.66669 18L4.00002 20L2.66669 22L4.00002 24L5.33335 22L4.00002 20L5.33335 18L4.00002 16L5.33335 14L4.00002 12L5.33335 10L4.00002 8L5.33335 6L4.00002 4Z"/></g></svg>