<svg xmlns="http://www.w3.org/2000/svg" fill="none" viewBox="0 0 28 28" focusable="false"><path fill="none" d="M0 0H28V28H0z" transform="matrix(-1 0 0 -1 28 28)"/><rect width="28" height="20" y="4" fill="#fff" rx="3"/><rect width="27.5" height="19.5" x=".25" y="4.25" stroke="#d6d8dd" stroke-width=".5" rx="2.75"/><path fill="#003087" fill-rule="evenodd" d="M26.9235 0.697717C26.4028 0.262163 25.732 0 25 0L3 0C1.34315 0 0 1.34315 0 3L0 17C0 17.8566 0.359046 18.6294 0.934859 19.1761L26.9235 0.697717Z" transform="matrix(-1 0 0 -1 28 24)"/><path fill="none" d="M26.4876 0.39419C26.642 0.482552 26.7879 0.584251 26.9235 0.697717L26.4996 0.999105L0.934859 19.1761C0.359046 18.6294 0 17.8566 0 17L0 3C0 1.34315 1.34315 0 3 0L25 0C25.5413 0 26.0491 0.143362 26.4876 0.39419ZM26.0321 0.718023Q25.948 0.679495 25.8613 0.647777Q25.4577 0.5 25 0.5L3 0.5Q2.48223 0.5 2.04029 0.683059Q1.59835 0.866117 1.23223 1.23223Q0.866117 1.59835 0.683059 2.04029Q0.5 2.48223 0.5 3L0.5 17Q0.5 17.5361 0.694227 17.989Q0.813224 18.2664 1.00513 18.5126L26.0321 0.718023Z" transform="matrix(-1 0 0 -1 28 24)"/><path fill="gold" fill-rule="evenodd" d="M0 8.14725L8.45861 8.14725C10.1155 8.14725 11.4586 6.80411 11.4586 5.14725L11.4586 0L0 8.14725Z" transform="matrix(-1 0 0 -1 11.459 12.147)"/><path fill="none" d="M0.862855 8.14725L0 8.14725L11.4586 0L11.4586 5.14725C11.4586 6.80411 10.1155 8.14725 8.45861 8.14725L0.862855 8.14725ZM1.56607 7.64725L8.45861 7.64725Q8.97638 7.64725 9.41832 7.46419Q9.86026 7.28114 10.2264 6.91502Q10.5925 6.5489 10.7756 6.10696Q10.9586 5.66502 10.9586 5.14725L10.9586 0.969011L1.56607 7.64725Z" transform="matrix(-1 0 0 -1 11.459 12.147)"/><circle cx="7.651" cy="12.644" r="3.808" fill="none"/><circle cx="7.651" cy="12.644" r="3.458" stroke="#000" stroke-width=".7"/><path fill="#d50032" fill-rule="evenodd" d="M8.31171 11.5156L7.65044 10.3651L6.98918 11.5156L5.69217 11.5156L6.34067 12.6438L5.69214 13.7722L6.98921 13.7722L7.65047 14.9226L8.31174 13.7722L9.60875 13.7722L8.96024 12.6439L9.60878 11.5156L8.31171 11.5156Z"/></svg>