<svg xmlns="http://www.w3.org/2000/svg" fill="none" viewBox="0 0 39.071 28" focusable="false"><defs><filter id="Brunei_Darussalam_svg__a"><feColorMatrix values="0 0 0 0 1 0 0 0 0 1 0 0 0 0 1 0 0 0 1 0"/></filter></defs><mask id="Brunei_Darussalam_svg__b" width="28" height="20" x="5.535" y="4" maskUnits="userSpaceOnUse"><g filter="url(#Brunei_Darussalam_svg__a)"><rect width="28" height="20" x="5.535" y="4" fill="#fff" rx="3"/><rect width="28" height="20" x="5.535" y="4" stroke="#969696" stroke-opacity="0" stroke-width="0" rx="3"/></g></mask><path fill="none" d="M5.535 0H33.535V28H5.535z"/><rect width="28" height="20" x="5.535" y="4" fill="#fff" rx="3"/><rect width="28" height="20" x="5.535" y="4" rx="3"/><g mask="url(#Brunei_Darussalam_svg__b)"><path fill="#f7e250" d="M5.535 4H33.535V24H5.535z"/><path d="M5.535 4H33.535V24H5.535z"/><path fill="#fff" fill-rule="evenodd" d="M0 4L38.6667 4L38.6667 0L0 0L0 4Z" transform="rotate(20 -8.922 9.573)"/><path d="M38.6667 4L38.6667 0L0 0L0 4L38.6667 4Z" transform="rotate(20 -8.922 9.573)"/><path fill="#262626" fill-rule="evenodd" d="M0 4L38.6667 4L38.6667 0L0 0L0 4Z" transform="rotate(20 -20.264 7.573)"/><path d="M38.6667 4L38.6667 0L0 0L0 4L38.6667 4Z" transform="rotate(20 -20.264 7.573)"/></g></svg>