<svg xmlns="http://www.w3.org/2000/svg" fill="none" viewBox="0 0 29.802 28" focusable="false"><mask id="Cayman_Islands_svg__e" width="6.667" height="9.333" x="19.135" y="9.333" maskUnits="userSpaceOnUse"><g fill-rule="evenodd" filter="url(#Cayman_Islands_svg__a)"><path fill="url(#Cayman_Islands_svg__b)" d="M19.1355 14C19.1355 12 19.1355 9.33331 19.1355 9.33331L25.8021 9.33331C25.8021 9.33331 25.8021 12 25.8021 14C25.8021 17.3333 22.4688 18.6666 22.4688 18.6666C22.4688 18.6666 19.1355 17.3333 19.1355 14Z"/><path stroke="#969696" stroke-opacity="0" stroke-width="0" d="M19.1355 9.33331L25.8021 9.33331C25.8021 9.33331 25.8021 12 25.8021 14C25.8021 17.3333 22.4688 18.6666 22.4688 18.6666C22.4688 18.6666 19.1355 17.3333 19.1355 14C19.1355 12 19.1355 9.33331 19.1355 9.33331Z"/></g></mask><defs><linearGradient id="Cayman_Islands_svg__d" x1="19.135" x2="19.135" y1="9.333" y2="18.667" gradientUnits="userSpaceOnUse"><stop offset="0" stop-color="#fff"/><stop offset="1" stop-color="#efefef"/></linearGradient><linearGradient id="Cayman_Islands_svg__b" x1="19.135" x2="19.135" y1="9.333" y2="18.667" gradientUnits="userSpaceOnUse"><stop offset="0" stop-color="#fff"/><stop offset="1" stop-color="#efefef"/></linearGradient><filter id="Cayman_Islands_svg__a"><feColorMatrix values="0 0 0 0 1 0 0 0 0 1 0 0 0 0 1 0 0 0 1 0"/></filter></defs><mask id="Cayman_Islands_svg__c" width="28" height="20" x="1.802" y="4" maskUnits="userSpaceOnUse"><g filter="url(#Cayman_Islands_svg__a)"><rect width="28" height="20" x="1.802" y="4" fill="#fff" rx="3"/><rect width="28" height="20" x="1.802" y="4" stroke="#969696" stroke-opacity="0" stroke-width="0" rx="3"/></g></mask><path fill="none" d="M1.802 0H29.802V28H1.802z"/><rect width="28" height="20" x="1.802" y="4" fill="#fff" rx="3"/><rect width="28" height="20" x="1.802" y="4" rx="3"/><g mask="url(#Cayman_Islands_svg__c)"><path fill="#07319c" d="M1.802 4H29.802V24H1.802z"/><path d="M1.802 4H29.802V24H1.802z"/><path fill="#fad051" fill-rule="evenodd" d="M22.4689 10.6667C23.5734 10.6667 24.4689 10.0697 24.4689 9.33333C24.4689 8.59695 23.5734 8 22.4689 8C21.3643 8 20.4689 8.59695 20.4689 9.33333C20.4689 10.0697 21.3643 10.6667 22.4689 10.6667Z"/><path d="M24.4689 9.33333C24.4689 8.59695 23.5734 8 22.4689 8C21.3643 8 20.4689 8.59695 20.4689 9.33333C20.4689 10.0697 21.3643 10.6667 22.4689 10.6667C23.5734 10.6667 24.4689 10.0697 24.4689 9.33333Z"/><path fill="url(#Cayman_Islands_svg__d)" fill-rule="evenodd" d="M19.1355 14C19.1355 12 19.1355 9.33331 19.1355 9.33331L25.8021 9.33331C25.8021 9.33331 25.8021 12 25.8021 14C25.8021 17.3333 22.4688 18.6666 22.4688 18.6666C22.4688 18.6666 19.1355 17.3333 19.1355 14Z"/><path d="M19.1355 9.33331L25.8021 9.33331C25.8021 9.33331 25.8021 12 25.8021 14C25.8021 17.3333 22.4688 18.6666 22.4688 18.6666C22.4688 18.6666 19.1355 17.3333 19.1355 14C19.1355 12 19.1355 9.33331 19.1355 9.33331Z"/><g mask="url(#Cayman_Islands_svg__e)"><path fill="#cf142c" fill-rule="evenodd" d="M19.1355 9.33331L25.8021 9.33331L25.8021 10.6666L23.1355 10.6666L21.8021 10.6666L19.1355 10.6666L19.1355 9.33331Z"/><path d="M25.8021 9.33331L25.8021 10.6666L23.1355 10.6666L21.8021 10.6666L19.1355 10.6666L19.1355 9.33331L25.8021 9.33331Z"/><path fill="#125fba" fill-rule="evenodd" d="M25.8021 12L19.1355 12L19.1355 13.3333L25.8021 13.3333L25.8021 12ZM19.1355 14.6667L25.8021 14.6667L25.8021 16L19.1355 16L19.1355 14.6667ZM19.1355 17.3333L25.8021 17.3333L25.8021 18.6667L19.1355 18.6667L19.1355 17.3333Z"/><path d="M25.8021 12L19.1355 12L19.1355 13.3333L25.8021 13.3333L25.8021 12ZM19.1355 14.6667L25.8021 14.6667L25.8021 16L19.1355 16L19.1355 14.6667ZM19.1355 17.3333L25.8021 17.3333L25.8021 18.6667L19.1355 18.6667L19.1355 17.3333Z"/></g><path fill="#db1e36" fill-rule="evenodd" d="M6.46884 8L1.80217 4L2.46884 4L7.1355 7.33333L8.46884 7.33333L13.8022 4L13.8022 4.49513C13.8022 4.60278 13.7502 4.7038 13.6626 4.76637L9.1355 8L9.1355 9.33333L13.3496 12.9455C13.5051 13.0787 13.4109 13.3333 13.2062 13.3333L13.2062 13.3333C13.1602 13.3333 13.1154 13.319 13.078 13.2923L8.46884 10L7.1355 10L1.80217 13.3333L1.80217 12.6667L6.46884 9.33333L6.46884 8Z"/><path fill="#fff" fill-rule="evenodd" d="M2.68248 3.33333L-1.78814e-06 3.33333L5.80217 8.30662L5.80217 8.99026L1.1355 12.3236L1.1355 14.5362L7.3267 10.6667L8.25519 10.6667L12.6905 13.8348C12.7676 13.8898 12.8492 13.9311 12.9351 13.9587C13.021 13.9862 13.1114 14 13.2062 14C13.3096 14 13.4074 13.9839 13.4996 13.9518C13.5817 13.9232 13.6593 13.882 13.7325 13.828C13.8007 13.7777 13.8596 13.7203 13.9093 13.6558C13.9631 13.5858 14.0061 13.5074 14.0382 13.4206C14.0703 13.3339 14.0887 13.2464 14.0933 13.1582C14.0976 13.0769 14.0902 12.995 14.0712 12.9125C14.0508 12.8238 14.0187 12.742 13.975 12.6669C13.9259 12.5824 13.862 12.5066 13.7835 12.4393L9.80217 9.02671L9.80217 8.34308L14.0501 5.30886C14.1158 5.26194 14.1743 5.2088 14.2256 5.14944C14.2769 5.09008 14.3211 5.0245 14.358 4.95271C14.395 4.88091 14.4227 4.80688 14.4411 4.7306C14.4596 4.65435 14.4688 4.57586 14.4688 4.49513L14.4688 2.79717L8.27764 6.66667L7.34915 6.66667L2.68248 3.33333ZM7.1355 7.33333L4.6152 5.53312L2.46884 4L1.80217 4L2.21567 4.35443L2.46884 4.57143L4.20372 6.05847L6.46884 8L6.46884 9.33333L1.80217 12.6667L1.80217 13.3333L2.13139 13.1276L2.46884 12.9167L3.51132 12.2651L7.1355 10L8.46884 10L10.9891 11.8002L12.7622 13.0667L13.078 13.2923C13.1154 13.319 13.1602 13.3333 13.2062 13.3333C13.4109 13.3333 13.5051 13.0787 13.3496 12.9455L13.0551 12.693L11.4006 11.2749L9.1355 9.33333L9.1355 8L12.4638 5.62265L13.6626 4.76637C13.7502 4.7038 13.8022 4.60278 13.8022 4.49513L13.8022 4L13.1449 4.41077L13.1355 4.41667L12.093 5.06822L8.46884 7.33333L7.1355 7.33333Z"/><path fill="#fff" fill-rule="evenodd" d="M1.80217 7.33333L1.80217 10L6.46884 10L6.46884 13.3333C6.46884 13.7015 6.76731 14 7.1355 14L8.46884 14C8.83703 14 9.1355 13.7015 9.1355 13.3333L9.1355 10L13.8022 10C14.1704 10 14.4688 9.70152 14.4688 9.33333L14.4688 8C14.4688 7.63181 14.1704 7.33333 13.8022 7.33333L9.1355 7.33333L9.1355 4L6.46884 4L6.46884 7.33333L1.80217 7.33333Z"/><path d="M1.80217 10L6.46884 10L6.46884 13.3333C6.46884 13.7015 6.76731 14 7.1355 14L8.46884 14C8.83703 14 9.1355 13.7015 9.1355 13.3333L9.1355 10L13.8022 10C14.1704 10 14.4688 9.70152 14.4688 9.33333L14.4688 8C14.4688 7.63181 14.1704 7.33333 13.8022 7.33333L9.1355 7.33333L9.1355 4L6.46884 4L6.46884 7.33333L1.80217 7.33333L1.80217 10Z"/><path fill="#db1e36" fill-rule="evenodd" d="M1.80217 8L7.1355 8L7.1355 7.33333L7.1355 4L8.46884 4L8.46884 7.33333L8.46884 8L13.8022 8L13.8022 9.33333L8.46884 9.33333L8.46884 10L8.46884 13.3333L7.1355 13.3333L7.1355 10L7.1355 9.33333L1.80217 9.33333L1.80217 8Z"/><path d="M7.1355 8L7.1355 7.33333L7.1355 4L8.46884 4L8.46884 7.33333L8.46884 8L13.8022 8L13.8022 9.33333L8.46884 9.33333L8.46884 10L8.46884 13.3333L7.1355 13.3333L7.1355 10L7.1355 9.33333L1.80217 9.33333L1.80217 8L7.1355 8Z"/></g></svg>