<svg xmlns="http://www.w3.org/2000/svg" fill="none" viewBox="0 0 28 28" focusable="false"><defs><filter id="Central_African_Republic_svg__a"><feColorMatrix values="0 0 0 0 1 0 0 0 0 1 0 0 0 0 1 0 0 0 1 0"/></filter></defs><mask id="Central_African_Republic_svg__b" width="28" height="20" x="0" y="4" maskUnits="userSpaceOnUse"><g filter="url(#Central_African_Republic_svg__a)"><rect width="28" height="20" y="4" fill="#fff" rx="3"/><rect width="27.5" height="19.5" x=".25" y="4.25" stroke="#f5f5f5" stroke-width=".5" rx="2.75"/></g></mask><path fill="none" d="M0 0H28V28H0z"/><rect width="28" height="20" y="4" fill="#fff" rx="3"/><rect width="27.5" height="19.5" x=".25" y="4.25" stroke="#d6d8dd" stroke-width=".5" rx="2.75"/><g mask="url(#Central_African_Republic_svg__b)"><path fill="#083d96" fill-rule="evenodd" d="M0 9.33333L28 9.33333L28 4L0 4L0 9.33333Z"/><path d="M28 9.33333L28 4L0 4L0 9.33333L28 9.33333Z"/><path fill="#37ae39" fill-rule="evenodd" d="M0 18.6666L28 18.6666L28 13.3333L0 13.3333L0 18.6666Z"/><path d="M28 18.6666L28 13.3333L0 13.3333L0 18.6666L28 18.6666Z"/><path fill="#ffd13f" fill-rule="evenodd" d="M0 24L28 24L28 18.6667L0 18.6667L0 24Z"/><path d="M28 24L28 18.6667L0 18.6667L0 24L28 24Z"/><path fill="#e42346" fill-rule="evenodd" d="M10.6667 24L17.3334 24L17.3334 4L10.6667 4L10.6667 24Z"/><path d="M17.3334 24L17.3334 4L10.6667 4L10.6667 24L17.3334 24Z"/><path fill="#ffd03b" fill-rule="evenodd" d="M4.66669 7.44669L3.49112 8.28472L3.92486 6.90772L2.76457 6.04865L4.20821 6.03565L4.66669 4.66669L5.12516 6.03565L6.5688 6.04865L5.40851 6.90772L5.84226 8.28472L4.66669 7.44669Z"/><path d="M3.49112 8.28472L3.92486 6.90772L2.76457 6.04865L4.20821 6.03565L4.66669 4.66669L5.12516 6.03565L6.5688 6.04865L5.40851 6.90772L5.84226 8.28472L4.66669 7.44669L3.49112 8.28472Z"/></g></svg>