<svg xmlns="http://www.w3.org/2000/svg" fill="none" viewBox="0 0 28 28" focusable="false"><path fill="none" d="M0 0H28V28H0z" transform="matrix(-1 0 0 -1 28 28)"/><rect width="28" height="20" y="4" fill="green" rx="3"/><rect width="27.5" height="19.5" x=".25" y="4.25" rx="2.75"/><g fill="#ffe000"><path fill-rule="evenodd" d="M16.8069 11.6997C16.2109 11.152 15.4157 10.8176 14.5424 10.8176C12.6935 10.8176 11.1947 12.3164 11.1947 14.1653C11.1947 16.0142 12.6935 17.513 14.5424 17.513C15.4154 17.513 16.2104 17.1788 16.8064 16.6314C16.4397 16.8126 16.0268 16.9144 15.5901 16.9144C14.0719 16.9144 12.8412 15.6836 12.8412 14.1654C12.8412 12.6472 14.0719 11.4165 15.5901 11.4165C16.027 11.4165 16.4401 11.5184 16.8069 11.6997Z"/><circle cx="4.79" cy="9.379" r="3.445"/><path fill-rule="evenodd" d="M18.788 12.705 19.445 12.469 19.069 13.058 19.663 13.424 18.969 13.497 19.052 14.191 18.562 13.693 18.072 14.191 18.156 13.497 17.461 13.424 18.056 13.058 17.679 12.469 18.337 12.705 18.562 12.044 18.788 12.705ZM22.767 8.381 23.425 8.145 23.049 8.734 23.643 9.101 22.948 9.174 23.032 9.867 22.542 9.369 22.052 9.867 22.136 9.174 21.441 9.101 22.035 8.734 21.659 8.145 22.317 8.381 22.542 7.72 22.767 8.381ZM26.313 11.673 26.971 11.437 26.594 12.025 27.189 12.392 26.494 12.465 26.578 13.159 26.088 12.66 25.598 13.159 25.682 12.465 24.987 12.392 25.581 12.025 25.205 11.437 25.863 11.673 26.088 11.011 26.313 11.673ZM22.767 19.019 23.425 18.783 23.049 19.371 23.643 19.738 22.948 19.811 23.032 20.505 22.542 20.006 22.052 20.505 22.136 19.811 21.441 19.738 22.035 19.371 21.659 18.783 22.317 19.019 22.542 18.357 22.767 19.019ZM24.342 14.576 24.805 14.618 24.456 14.926 24.558 15.38 24.158 15.142 23.758 15.38 23.86 14.926 23.51 14.618 23.974 14.576 24.158 14.148 24.342 14.576Z"/></g><path fill="#7b3100" fill-rule="evenodd" d="M5.06575 8.74647C5.1456 8.74569 5.21096 8.8098 5.21173 8.88965C5.22029 9.77447 5.17932 11.0027 4.78735 11.8159C4.68906 12.0198 4.05332 11.963 4.14998 11.7625C4.6362 10.7538 4.9337 10.0423 4.92257 8.89245C4.92179 8.8126 4.9859 8.74724 5.06575 8.74647Z"/><path fill="green" d="M3.57728 7.25686C4.24166 7.27974 4.52418 8.18087 4.6769 8.01284C4.53944 6.22589 6.08214 6.96449 6.0362 6.97428C5.46346 7.09646 5.19088 8.0424 5.3871 8.17324C5.47697 8.23317 5.71547 7.86779 6.0362 7.86779C6.8552 7.86779 6.95768 8.69508 6.90677 9.05146C6.1813 8.59326 5.65896 8.67421 5.98275 8.90636C6.30654 9.13851 6.16602 9.86601 6.10493 10.09C5.93693 9.66237 5.39932 9.15531 5.14273 9.11255C4.822 9.05909 3.9514 10.3191 3.89798 10.0137C3.84455 9.7082 4.19743 8.91327 4.14998 8.80708C4.07881 8.6478 2.76523 8.93691 2.1034 9.20419C2.06013 9.17619 2.09885 8.99647 2.5998 8.50163C3.10076 8.00678 3.76564 7.93907 4.03546 7.96708C3.66127 7.72271 3.04577 7.23855 3.57728 7.25686Z"/><path d="M3.57728 7.25686C3.04577 7.23855 3.66127 7.72271 4.03546 7.96708C3.76564 7.93907 3.10076 8.00678 2.5998 8.50163C2.09885 8.99647 2.06013 9.17619 2.1034 9.20419C2.76523 8.93691 4.07881 8.6478 4.14998 8.80708C4.19743 8.91327 3.84455 9.7082 3.89798 10.0137C3.9514 10.3191 4.822 9.05909 5.14273 9.11255C5.39932 9.15531 5.93693 9.66237 6.10493 10.09C6.16602 9.86601 6.30654 9.13851 5.98275 8.90636C5.65896 8.67421 6.1813 8.59326 6.90677 9.05146C6.95768 8.69508 6.8552 7.86779 6.0362 7.86779C5.71547 7.86779 5.47697 8.23317 5.3871 8.17324C5.19088 8.0424 5.46346 7.09646 6.0362 6.97428C6.08214 6.96449 4.53944 6.22589 4.6769 8.01284C4.52418 8.18087 4.24166 7.27974 3.57728 7.25686Z"/></svg>