<svg xmlns="http://www.w3.org/2000/svg" fill="none" viewBox="0 0 31.656 32.446" focusable="false"><defs><filter id="Congo_Republic_svg__a"><feColorMatrix values="0 0 0 0 1 0 0 0 0 1 0 0 0 0 1 0 0 0 1 0"/></filter></defs><mask id="Congo_Republic_svg__b" width="28" height="20" x="1.415" y="6.69" maskUnits="userSpaceOnUse"><g filter="url(#Congo_Republic_svg__a)"><rect width="28" height="20" x="1.415" y="6.69" fill="#fff" rx="3"/><rect width="28" height="20" x="1.415" y="6.69" stroke="#969696" stroke-opacity="0" stroke-width="0" rx="3"/></g></mask><path fill="none" d="M1.415 2.69H29.415V30.69H1.415z"/><rect width="28" height="20" x="1.415" y="6.69" fill="#fff" rx="3"/><rect width="28" height="20" x="1.415" y="6.69" rx="3"/><g mask="url(#Congo_Republic_svg__b)"><path fill="#f33630" fill-rule="evenodd" d="M8.08203 25.3564L28.082 6.68976L29.4154 6.68976L29.4154 26.6898L8.08203 26.6898L8.08203 25.3564Z"/><path d="M28.082 6.68976L29.4154 6.68976L29.4154 26.6898L8.08203 26.6898L8.08203 25.3564L28.082 6.68976Z"/><path fill="#009643" fill-rule="evenodd" d="M0 18.6667L20 0L21.3333 0L21.3333 20L0 20L0 18.6667Z" transform="matrix(-1 0 0 -1 22.749 26.69)"/><path d="M20 0L21.3333 0L21.3333 20L0 20L0 18.6667L20 0Z" transform="matrix(-1 0 0 -1 22.749 26.69)"/><path fill="#fcdf4a" fill-rule="evenodd" d="M0 -1.4803e-16L38.6667 -1.4803e-16L38.6667 6.66667L0 6.66667L0 -1.4803e-16Z" transform="rotate(134 14.845 9.034)"/><path d="M38.6667 -1.4803e-16L38.6667 6.66667L0 6.66667L0 -1.4803e-16L38.6667 -1.4803e-16Z" transform="rotate(134 14.845 9.034)"/></g></svg>