<svg xmlns="http://www.w3.org/2000/svg" fill="none" viewBox="0 0 38.084 28" focusable="false"><defs><filter id="Congo_Democratic_Republic_svg__a"><feColorMatrix values="0 0 0 0 1 0 0 0 0 1 0 0 0 0 1 0 0 0 1 0"/></filter></defs><mask id="Congo_Democratic_Republic_svg__b" width="28" height="20" x="5.725" y="4" maskUnits="userSpaceOnUse"><g filter="url(#Congo_Democratic_Republic_svg__a)"><rect width="28" height="20" x="5.725" y="4" fill="#fff" rx="3"/><rect width="28" height="20" x="5.725" y="4" stroke="#969696" stroke-opacity="0" stroke-width="0" rx="3"/></g></mask><path fill="none" d="M5.725 0H33.725V28H5.725z"/><rect width="28" height="20" x="5.725" y="4" fill="#fff" rx="3"/><rect width="28" height="20" x="5.725" y="4" rx="3"/><g mask="url(#Congo_Democratic_Republic_svg__b)"><rect width="28" height="20" x="5.725" y="4" fill="#158aff" rx="2"/><rect width="28" height="20" x="5.725" y="4" rx="2"/><path fill="#fdd216" fill-rule="evenodd" d="M0 2.59052e-16L38.6667 2.59052e-16L38.6667 8L0 8L0 2.59052e-16Z" transform="rotate(153 17.937 9.174)"/><path d="M38.6667 2.59052e-16L38.6667 8L0 8L0 2.59052e-16L38.6667 2.59052e-16Z" transform="rotate(153 17.937 9.174)"/><path fill="#ce1120" d="M0 0H38.667V5.333H0z" transform="rotate(153 17.99 8.43)"/><path d="M0 0H38.667V5.333H0z" transform="rotate(153 17.99 8.43)"/><path fill="#fdd216" fill-rule="evenodd" d="M10.3917 9.96665L8.43246 11.3634L9.15537 9.06837L7.22156 7.63659L9.62762 7.61492L10.3917 5.33331L11.1559 7.61492L13.5619 7.63659L11.6281 9.06837L12.351 11.3634L10.3917 9.96665Z"/><path d="M8.43246 11.3634L9.15537 9.06837L7.22156 7.63659L9.62762 7.61492L10.3917 5.33331L11.1559 7.61492L13.5619 7.63659L11.6281 9.06837L12.351 11.3634L10.3917 9.96665L8.43246 11.3634Z"/></g></svg>