<svg xmlns="http://www.w3.org/2000/svg" fill="none" viewBox="0 0 28 28" focusable="false"><defs><filter id="Cuba_svg__a"><feColorMatrix values="0 0 0 0 1 0 0 0 0 1 0 0 0 0 1 0 0 0 1 0"/></filter></defs><mask id="Cuba_svg__b" width="28" height="20" x="0" y="4" maskUnits="userSpaceOnUse"><g filter="url(#Cuba_svg__a)"><rect width="28" height="20" y="4" fill="#fff" rx="3"/><rect width="27.5" height="19.5" x=".25" y="4.25" stroke="#f5f5f5" stroke-width=".5" rx="2.75"/></g></mask><path fill="none" d="M0 0H28V28H0z"/><rect width="28" height="20" y="4" fill="#fff" rx="3"/><rect width="27.5" height="19.5" x=".25" y="4.25" stroke="#d6d8dd" stroke-width=".5" rx="2.75"/><g mask="url(#Cuba_svg__b)"><path fill="#0b389f" fill-rule="evenodd" d="M0 8L28 8L28 4L0 4L0 8Z"/><path d="M28 8L28 4L0 4L0 8L28 8Z"/><path fill="#0b389f" fill-rule="evenodd" d="M0 16L28 16L28 12L0 12L0 16Z"/><path d="M28 16L28 12L0 12L0 16L28 16Z"/><path fill="#0b389f" fill-rule="evenodd" d="M0 24L28 24L28 20L0 20L0 24Z"/><path d="M28 24L28 20L0 20L0 24L28 24Z"/><path fill="#e12a43" fill-rule="evenodd" d="M0 4L13.3333 14L0 24L0 4Z"/><path d="M13.3333 14L0 24L0 4L13.3333 14Z"/><path fill="#fff" fill-rule="evenodd" d="M4.66667 15.0227L3.09924 16.1574L3.69403 14.316L2.13052 13.1759L4.06555 13.1726L4.66667 11.3333L5.26779 13.1726L7.20282 13.1759L5.6393 14.316L6.23409 16.1574L4.66667 15.0227Z"/><path d="M3.09924 16.1574L3.69403 14.316L2.13052 13.1759L4.06555 13.1726L4.66667 11.3333L5.26779 13.1726L7.20282 13.1759L5.6393 14.316L6.23409 16.1574L4.66667 15.0227L3.09924 16.1574Z"/></g></svg>