<svg xmlns="http://www.w3.org/2000/svg" fill="none" mask="url(#Curacao_svg__a)" viewBox="0 0 28 28" focusable="false"><defs><filter id="Curacao_svg__b"><feColorMatrix values="0 0 0 0 1 0 0 0 0 1 0 0 0 0 1 0 0 0 1 0"/></filter></defs><mask id="Curacao_svg__a" width="28" height="20" x="0" y="4" maskUnits="userSpaceOnUse"><g filter="url(#Curacao_svg__b)"><rect width="28" height="20" y="4" fill="#0a2d7a" rx="3"/></g></mask><path fill="none" d="M0 0H28V28H0z"/><path fill="#0a2d7a" d="M0 4H28V24H0z"/><path fill="#f7e750" d="M0 16.488H28V19.023H0z"/><path fill="#fff" fill-rule="evenodd" d="M6.985 9.97 8.622 9.97 7.298 10.933 7.803 12.49 6.479 11.527 5.154 12.49 5.66 10.933 4.336 9.97 5.973 9.97 6.479 8.413 6.985 9.97ZM3.514 6.826 4.708 6.826 3.742 7.527 4.111 8.663 3.146 7.961 2.18 8.663 2.549 7.527 1.583 6.826 2.777 6.826 3.146 5.69 3.514 6.826Z"/></svg>