<svg xmlns="http://www.w3.org/2000/svg" fill="none" viewBox="0 0 28 28" focusable="false"><mask id="Eswatini_svg__c" width="12" height="6.667" x="8" y="10.667" maskUnits="userSpaceOnUse"><g fill-rule="evenodd" filter="url(#Eswatini_svg__a)"><path fill="#fff" d="M14 17.3334C17.3137 17.3334 20 14 20 14C20 14 17.3137 10.6667 14 10.6667C10.6863 10.6667 8 14 8 14C8 14 10.6863 17.3334 14 17.3334Z"/><path stroke="#969696" stroke-opacity="0" stroke-width="0" d="M20 14C20 14 17.3137 10.6667 14 10.6667C10.6863 10.6667 8 14 8 14C8 14 10.6863 17.3334 14 17.3334C17.3137 17.3334 20 14 20 14Z"/></g></mask><defs><filter id="Eswatini_svg__a"><feColorMatrix values="0 0 0 0 1 0 0 0 0 1 0 0 0 0 1 0 0 0 1 0"/></filter></defs><mask id="Eswatini_svg__b" width="28" height="20" x="0" y="4" maskUnits="userSpaceOnUse"><g filter="url(#Eswatini_svg__a)"><rect width="28" height="20" y="4" fill="#fff" rx="3"/><rect width="28" height="20" y="4" stroke="#969696" stroke-opacity="0" stroke-width="0" rx="3"/></g></mask><path fill="none" d="M0 0H28V28H0z"/><rect width="28" height="20" y="4" fill="#fff" rx="3"/><rect width="28" height="20" y="4" rx="3"/><g mask="url(#Eswatini_svg__b)"><path fill="#486bca" fill-rule="evenodd" d="M0 8L28 8L28 4L0 4L0 8Z"/><path d="M28 8L28 4L0 4L0 8L28 8Z"/><path fill="#486bca" fill-rule="evenodd" d="M0 24L28 24L28 20L0 20L0 24Z"/><path d="M28 24L28 20L0 20L0 24L28 24Z"/><path fill="#ffdf20" fill-rule="evenodd" d="M0 20L28 20L28 8L0 8L0 20Z"/><path d="M28 20L28 8L0 8L0 20L28 20Z"/><path fill="#cf1615" fill-rule="evenodd" d="M0 18.6666L28 18.6666L28 9.33331L0 9.33331L0 18.6666Z"/><path d="M28 18.6666L28 9.33331L0 9.33331L0 18.6666L28 18.6666Z"/><path fill="#fff" fill-rule="evenodd" d="M14 17.3334C17.3137 17.3334 20 14 20 14C20 14 17.3137 10.6667 14 10.6667C10.6863 10.6667 8 14 8 14C8 14 10.6863 17.3334 14 17.3334Z"/><path d="M20 14C20 14 17.3137 10.6667 14 10.6667C10.6863 10.6667 8 14 8 14C8 14 10.6863 17.3334 14 17.3334C17.3137 17.3334 20 14 20 14Z"/><g mask="url(#Eswatini_svg__c)"><path fill="#262626" fill-rule="evenodd" d="M0 0L6.66667 0L6.66667 6.66667L1.33333 6.66667L0 0Z" transform="matrix(-1 0 0 1 14.667 10.667)"/><path d="M6.66667 0L6.66667 6.66667L1.33333 6.66667L0 0L6.66667 0Z" transform="matrix(-1 0 0 1 14.667 10.667)"/><path fill="#1a1a1a" fill-rule="evenodd" d="M15.3334 14.6666C15.7015 14.6666 16 14.3682 16 14C16 13.6318 15.7015 13.3333 15.3334 13.3333C14.9652 13.3333 14.6667 13.6318 14.6667 14C14.6667 14.3682 14.9652 14.6666 15.3334 14.6666Z"/><path d="M16 14C16 13.6318 15.7015 13.3333 15.3334 13.3333C14.9652 13.3333 14.6667 13.6318 14.6667 14C14.6667 14.3682 14.9652 14.6666 15.3334 14.6666C15.7015 14.6666 16 14.3682 16 14Z"/><path fill="#f6f6f6" fill-rule="evenodd" d="M12.6667 14.6666C13.0349 14.6666 13.3333 14.3682 13.3333 14C13.3333 13.6318 13.0349 13.3333 12.6667 13.3333C12.2985 13.3333 12 13.6318 12 14C12 14.3682 12.2985 14.6666 12.6667 14.6666Z"/><path d="M13.3333 14C13.3333 13.6318 13.0349 13.3333 12.6667 13.3333C12.2985 13.3333 12 13.6318 12 14C12 14.3682 12.2985 14.6666 12.6667 14.6666C13.0349 14.6666 13.3333 14.3682 13.3333 14Z"/></g></g></svg>