<svg xmlns="http://www.w3.org/2000/svg" fill="none" viewBox="0 0 30.667 28" focusable="false"><defs><filter id="Finland_svg__a"><feColorMatrix values="0 0 0 0 1 0 0 0 0 1 0 0 0 0 1 0 0 0 1 0"/></filter></defs><mask id="Finland_svg__b" width="28" height="20" x="1.333" y="4" maskUnits="userSpaceOnUse"><g filter="url(#Finland_svg__a)"><rect width="28" height="20" x="1.333" y="4" fill="#fff" rx="3"/><rect width="27.5" height="19.5" x="1.583" y="4.25" stroke="#f5f5f5" stroke-width=".5" rx="2.75"/></g></mask><path fill="none" d="M1.333 0H29.333V28H1.333z"/><rect width="28" height="20" x="1.333" y="4" fill="#fff" rx="3"/><rect width="27.5" height="19.5" x="1.583" y="4.25" stroke="#d6d8dd" stroke-width=".5" rx="2.75"/><g mask="url(#Finland_svg__b)"><path fill="#0848a6" fill-rule="evenodd" d="M0 16L9.33333 16L9.33333 25.3333L13.3333 25.3333L13.3333 16L30.6667 16L30.6667 12L13.3333 12L13.3333 2.66663L9.33333 2.66663L9.33333 12L0 12L0 16Z"/><path d="M9.33333 16L9.33333 25.3333L13.3333 25.3333L13.3333 16L30.6667 16L30.6667 12L13.3333 12L13.3333 2.66663L9.33333 2.66663L9.33333 12L0 12L0 16L9.33333 16Z"/></g></svg>