<svg xmlns="http://www.w3.org/2000/svg" fill="none" viewBox="0 0 28.5 28" focusable="false"><defs><filter id="French_Southern_And_Antarctic_Territories_svg__a"><feColorMatrix values="0 0 0 0 1 0 0 0 0 1 0 0 0 0 1 0 0 0 1 0"/></filter></defs><mask id="French_Southern_And_Antarctic_Territories_svg__b" width="28" height="20" x=".5" y="4" maskUnits="userSpaceOnUse"><g filter="url(#French_Southern_And_Antarctic_Territories_svg__a)"><rect width="28" height="20" x=".5" y="4" fill="#fff" rx="3"/><rect width="28" height="20" x=".5" y="4" stroke="#969696" stroke-opacity="0" stroke-width="0" rx="3"/></g></mask><path fill="none" d="M.5 0H28.5V28H.5z"/><rect width="28" height="20" x=".5" y="4" fill="#fff" rx="3"/><rect width="28" height="20" x=".5" y="4" rx="3"/><g mask="url(#French_Southern_And_Antarctic_Territories_svg__b)"><path fill="#083b9a" d="M.5 4H28.5V24H.5z"/><path d="M.5 4H28.5V24H.5z"/><path fill="#083b9a" fill-rule="evenodd" d="M0.5 15L15.5 15L15.5 4L0.5 4L0.5 15Z"/><path stroke="#fff" d="M15.5 15L15.5 4L0.5 4L0.5 15L15.5 15Z"/><path fill="#083b9a" fill-rule="evenodd" d="M0.5 15L5.5 15L5.5 4L0.5 4L0.5 15Z"/><path fill="#fff" fill-rule="evenodd" d="M5.5 15L10.5 15L10.5 4L5.5 4L5.5 15Z"/><path fill="#f44653" fill-rule="evenodd" d="M10.5 15L15.5 15L15.5 4L10.5 4L10.5 15Z"/><g fill="#fff" fill-rule="evenodd"><path d="M18.254 15.638 18.97 15.638 18.391 16.058 18.612 16.739 18.033 16.318 17.454 16.739 17.675 16.058 17.097 15.638 17.812 15.638 18.033 14.957 18.254 15.638ZM25.586 15.638 26.301 15.638 25.722 16.058 25.943 16.739 25.364 16.318 24.786 16.739 25.007 16.058 24.428 15.638 25.143 15.638 25.364 14.957 25.586 15.638ZM23.89 20.179 24.605 20.179 24.026 20.6 24.247 21.28 23.668 20.859 23.09 21.28 23.311 20.6 22.732 20.179 23.447 20.179 23.668 19.499 23.89 20.179ZM19.896 20.179 20.611 20.179 20.032 20.6 20.253 21.28 19.674 20.859 19.096 21.28 19.317 20.6 18.738 20.179 19.453 20.179 19.674 19.499 19.896 20.179ZM21.865 21.711 22.581 21.711 22.002 22.131 22.223 22.812 21.644 22.391 21.065 22.812 21.286 22.131 20.707 21.711 21.423 21.711 21.644 21.03 21.865 21.711Z"/><path d="M20.4951 18.541L21.6987 20.4286L22.9024 18.541L23.9145 18.541L24.0787 18.8419L25.1182 18.8419L23.4495 16.1884L22.2185 18.1033L22.2185 16.3526L22.9571 16.3526L23.5042 15.4772L22.2185 15.4772L22.2185 14.9301L23.8598 14.9301L24.4343 14L18.9632 14L19.5376 14.9301L21.179 14.9301L21.179 15.4772L19.8932 15.4772L20.4404 16.3526L21.179 16.3526L21.179 18.1033L19.948 16.1884L18.2793 18.8419L19.3188 18.8419L19.4829 18.541L20.4951 18.541ZM20.3036 17.9119L19.9753 17.3647L19.647 17.9119L20.3036 17.9119ZM23.0939 17.9119L23.4221 17.3647L23.7504 17.9119L23.0939 17.9119Z"/></g></g></svg>