<svg xmlns="http://www.w3.org/2000/svg" fill="none" viewBox="0 0 28 28" focusable="false"><mask id="French_Polynesia_svg__c" width="6.667" height="6.667" x="10.667" y="10.667" maskUnits="userSpaceOnUse"><g fill-rule="evenodd" filter="url(#French_Polynesia_svg__a)"><path fill="#000" d="M14 17.3333C15.841 17.3333 17.3334 15.8409 17.3334 14C17.3334 12.159 15.841 10.6666 14 10.6666C12.1591 10.6666 10.6667 12.159 10.6667 14C10.6667 15.8409 12.1591 17.3333 14 17.3333Z"/><path stroke="#969696" stroke-opacity="0" stroke-width="0" d="M17.3334 14C17.3334 12.159 15.841 10.6666 14 10.6666C12.1591 10.6666 10.6667 12.159 10.6667 14C10.6667 15.8409 12.1591 17.3333 14 17.3333C15.841 17.3333 17.3334 15.8409 17.3334 14Z"/></g></mask><defs><filter id="French_Polynesia_svg__a"><feColorMatrix values="0 0 0 0 1 0 0 0 0 1 0 0 0 0 1 0 0 0 1 0"/></filter></defs><mask id="French_Polynesia_svg__b" width="28" height="20" x="0" y="4" maskUnits="userSpaceOnUse"><g filter="url(#French_Polynesia_svg__a)"><rect width="28" height="20" y="4" fill="#fff" rx="3"/><rect width="27.5" height="19.5" x=".25" y="4.25" stroke="#f5f5f5" stroke-width=".5" rx="2.75"/></g></mask><path fill="none" d="M0 0H28V28H0z"/><rect width="28" height="20" y="4" fill="#fff" rx="3"/><rect width="27.5" height="19.5" x=".25" y="4.25" stroke="#d6d8dd" stroke-width=".5" rx="2.75"/><g mask="url(#French_Polynesia_svg__b)"><path fill="#d82332" fill-rule="evenodd" d="M0 9.33333L28 9.33333L28 4L0 4L0 9.33333Z"/><path d="M28 9.33333L28 4L0 4L0 9.33333L28 9.33333Z"/><path fill="#d82332" fill-rule="evenodd" d="M0 24L28 24L28 18.6666L0 18.6666L0 24Z"/><path d="M28 24L28 18.6666L0 18.6666L0 24L28 24Z"/><g fill-rule="evenodd"><path fill="#054989" d="M13.068 14.753 12.783 15.018C13.04 15.09 13.397 15.006 13.539 14.753L13.068 14.753ZM10.773 14.933C10.965 15.126 11.284 15.103 11.476 14.982 11.669 14.86 11.81 14.852 11.93 14.865 11.943 14.973 11.971 15.113 12.02 15.25L10.878 15.25C10.85 15.18 10.795 15.015 10.773 14.933ZM10.984 15.448C11.208 15.342 11.437 15.426 11.537 15.502 11.72 15.643 12.022 15.605 12.17 15.525 12.227 15.617 12.296 15.708 12.379 15.778L11.157 15.778C11.107 15.697 11 15.501 10.984 15.448ZM16.298 16.325C16.352 16.27 16.424 16.18 16.472 16.116 16.393 16.107 16.301 16.05 16.203 16.001 16.023 15.911 15.852 15.911 15.698 16.017 15.471 16.174 15.187 16.213 14.966 16.055 14.724 15.883 14.499 15.921 14.31 16.03 14.12 16.139 14 16.145 13.887 16.145 13.773 16.145 13.653 16.139 13.464 16.03 13.274 15.921 13.05 15.883 12.807 16.055 12.586 16.213 12.302 16.174 12.075 16.017 11.922 15.911 11.75 15.911 11.57 16.001 11.472 16.05 11.381 16.107 11.302 16.116 11.349 16.18 11.422 16.27 11.475 16.325L16.298 16.325ZM15.707 16.861C15.757 16.829 15.896 16.723 15.966 16.669 15.89 16.685 15.717 16.629 15.628 16.582 15.369 16.447 15.199 16.46 15.006 16.563 14.813 16.666 14.542 16.72 14.343 16.611 14.144 16.502 14.002 16.473 13.898 16.473 13.794 16.473 13.652 16.502 13.453 16.611 13.254 16.72 12.983 16.666 12.79 16.563 12.598 16.46 12.427 16.447 12.168 16.582 12.079 16.629 11.907 16.685 11.831 16.669 11.9 16.723 12.039 16.829 12.09 16.861L15.707 16.861ZM14.568 15.795C14.515 15.766 14.452 15.699 14.395 15.613 14.303 15.475 14.158 15.398 13.94 15.398 13.723 15.398 13.577 15.475 13.486 15.613 13.429 15.699 13.366 15.766 13.312 15.795L14.568 15.795ZM14.21 15.3C14.188 15.261 14.141 15.14 14.125 15.075 14.075 15.091 13.977 15.098 13.92 15.098 13.863 15.098 13.765 15.091 13.715 15.075 13.699 15.14 13.652 15.261 13.63 15.3L14.21 15.3ZM14.736 14.753 15.02 15.018C14.763 15.09 14.407 15.006 14.265 14.753L14.736 14.753ZM17.1 14.933C16.907 15.126 16.588 15.103 16.396 14.982 16.203 14.86 16.062 14.852 15.942 14.865 15.929 14.973 15.901 15.113 15.852 15.25L16.994 15.25C17.022 15.18 17.077 15.015 17.1 14.933ZM16.929 15.448C16.705 15.342 16.476 15.426 16.377 15.502 16.194 15.643 15.891 15.605 15.743 15.525 15.686 15.617 15.617 15.708 15.534 15.778L16.756 15.778C16.806 15.697 16.913 15.501 16.929 15.448ZM15.159 17.072C14.776 17.23 14.357 17.318 13.918 17.318 13.479 17.318 13.06 17.23 12.677 17.071 12.759 17.062 12.868 17.022 12.956 16.972 13.098 16.892 13.356 16.876 13.48 16.956 13.603 17.036 13.751 17.116 13.918 17.116 14.086 17.116 14.234 17.036 14.357 16.956 14.48 16.876 14.739 16.892 14.881 16.972 14.969 17.022 15.077 17.062 15.159 17.072Z"/><path fill="#514436" d="M14.625 10.727C13.934 10.583 13.312 10.666 13.312 11.327 13.312 11.975 13.312 12.937 13.312 13.136 13.312 13.334 13.316 13.36 13.549 13.415 14.054 13.534 14.101 13.546 14.65 13.674L14.65 11.814C14.221 11.766 14.057 11.521 14.057 11.237 14.057 10.961 14.246 10.781 14.625 10.727ZM12.854 15.829C12.469 15.829 12.065 15.489 12.065 14.841 12.065 14.193 12.065 13.378 12.065 13.231 12.065 13.085 12.081 13.064 12.047 13.03 12.028 13.01 12.07 12.98 12.098 12.952 12.141 12.908 12.17 12.872 12.112 12.814 12.055 12.755 12.079 12.74 12.115 12.703 12.152 12.666 12.166 12.629 12.131 12.594 12.096 12.559 12.089 12.547 12.126 12.509 12.164 12.47 12.149 12.454 12.117 12.422 12.085 12.39 12.07 12.367 12.111 12.326 12.15 12.286 12.153 12.28 12.199 12.28 12.245 12.28 12.344 12.28 12.388 12.28 12.433 12.28 12.433 12.293 12.396 12.331 12.348 12.38 12.334 12.399 12.388 12.454 12.443 12.51 12.441 12.528 12.406 12.563 12.354 12.616 12.331 12.652 12.384 12.706 12.437 12.76 12.441 12.784 12.401 12.825 12.361 12.866 12.357 12.902 12.401 12.947 12.435 12.981 12.437 13.001 12.437 13.062 12.437 13.429 12.437 14.43 12.437 14.706 12.437 14.982 12.633 15.149 13.005 15.149 13.378 15.149 13.504 14.995 13.612 14.892 13.542 15.386 13.34 15.829 12.854 15.829ZM13.941 14.255C13.993 14.271 14.043 14.348 14.043 14.431L14.146 14.431C14.146 14.361 14.116 14.252 14.061 14.184 14.061 14.167 14.058 14.152 14.054 14.136 14.092 14.088 14.148 14.011 14.146 13.937 14.145 13.891 14.091 13.893 14.084 13.929 14.079 13.96 14.059 14.006 14.021 14.022 14.021 13.963 13.988 13.893 13.941 13.893 13.893 13.893 13.86 13.963 13.86 14.022 13.822 14.006 13.802 13.96 13.797 13.929 13.791 13.893 13.737 13.891 13.736 13.937 13.734 14.011 13.789 14.088 13.827 14.136 13.823 14.152 13.821 14.167 13.82 14.184 13.766 14.252 13.736 14.361 13.736 14.431L13.838 14.431C13.838 14.348 13.889 14.271 13.941 14.255Z"/><path fill="#514436" d="M13.412 14.255C13.464 14.271 13.514 14.348 13.514 14.431L13.617 14.431C13.617 14.361 13.587 14.252 13.532 14.184 13.532 14.167 13.529 14.152 13.525 14.136 13.563 14.088 13.618 14.011 13.617 13.937 13.616 13.891 13.562 13.893 13.555 13.929 13.55 13.96 13.53 14.006 13.492 14.022 13.492 13.963 13.459 13.893 13.412 13.893 13.364 13.893 13.331 13.963 13.331 14.022 13.293 14.006 13.273 13.96 13.268 13.929 13.262 13.893 13.208 13.891 13.206 13.937 13.205 14.011 13.26 14.088 13.298 14.136 13.294 14.152 13.292 14.167 13.291 14.184 13.236 14.252 13.206 14.361 13.206 14.431L13.309 14.431C13.309 14.348 13.36 14.271 13.412 14.255ZM12.883 14.255C12.935 14.271 12.985 14.348 12.985 14.431L13.088 14.431C13.088 14.361 13.058 14.252 13.003 14.184 13.002 14.167 13 14.152 12.996 14.136 13.034 14.088 13.089 14.011 13.088 13.937 13.087 13.891 13.032 13.893 13.026 13.929 13.021 13.96 13.001 14.006 12.963 14.022 12.963 13.963 12.93 13.893 12.883 13.893 12.835 13.893 12.802 13.963 12.802 14.022 12.764 14.006 12.744 13.96 12.739 13.929 12.733 13.893 12.678 13.891 12.677 13.937 12.676 14.011 12.731 14.088 12.769 14.136 12.765 14.152 12.763 14.167 12.762 14.184 12.707 14.252 12.677 14.361 12.677 14.431L12.78 14.431C12.78 14.348 12.83 14.271 12.883 14.255ZM14.47 14.255C14.418 14.271 14.367 14.348 14.367 14.431L14.265 14.431C14.265 14.361 14.295 14.252 14.349 14.184 14.35 14.167 14.352 14.152 14.356 14.136 14.318 14.088 14.263 14.011 14.265 13.937 14.266 13.891 14.32 13.893 14.326 13.929 14.331 13.96 14.351 14.006 14.389 14.022 14.389 13.963 14.422 13.893 14.47 13.893 14.517 13.893 14.55 13.963 14.55 14.022 14.588 14.006 14.608 13.96 14.613 13.929 14.62 13.893 14.674 13.891 14.675 13.937 14.677 14.011 14.621 14.088 14.583 14.136 14.587 14.152 14.59 14.167 14.591 14.184 14.645 14.252 14.675 14.361 14.675 14.431L14.572 14.431C14.572 14.348 14.522 14.271 14.47 14.255ZM14.999 14.255C14.947 14.271 14.896 14.348 14.896 14.431L14.794 14.431C14.794 14.361 14.824 14.252 14.878 14.184 14.879 14.167 14.881 14.152 14.885 14.136 14.847 14.088 14.792 14.011 14.794 13.937 14.795 13.891 14.849 13.893 14.855 13.929 14.86 13.96 14.88 14.006 14.918 14.022 14.918 13.963 14.952 13.893 14.999 13.893 15.046 13.893 15.079 13.963 15.079 14.022 15.117 14.006 15.137 13.96 15.143 13.929 15.149 13.893 15.203 13.891 15.204 13.937 15.206 14.011 15.15 14.088 15.113 14.136 15.116 14.152 15.119 14.167 15.12 14.184 15.174 14.252 15.204 14.361 15.204 14.431L15.102 14.431C15.102 14.348 15.051 14.271 14.999 14.255ZM12.571 14.538 15.349 14.538 15.349 14.671 12.571 14.671 12.571 14.538Z"/><path fill="#514436" d="M15.0221 15.8285C15.4072 15.8285 15.8112 15.4885 15.8112 14.8406C15.8112 14.1927 15.8112 13.378 15.8112 13.2305C15.8112 13.0846 15.795 13.0641 15.8285 13.0301C15.8482 13.0101 15.8064 12.9804 15.7781 12.9515C15.7354 12.9081 15.7062 12.8721 15.7638 12.8135C15.8215 12.755 15.7969 12.7398 15.7607 12.703C15.7243 12.666 15.7101 12.6292 15.7448 12.5938C15.7796 12.5586 15.7875 12.5474 15.7496 12.5089C15.7117 12.4704 15.7275 12.4544 15.759 12.4222C15.7907 12.3902 15.8056 12.367 15.7654 12.3261C15.7259 12.286 15.7228 12.2795 15.677 12.2795C15.6312 12.2795 15.5318 12.2795 15.4876 12.2795C15.4435 12.2795 15.4426 12.2932 15.4798 12.3309C15.5279 12.3798 15.5421 12.399 15.4876 12.4544C15.4332 12.5096 15.4355 12.5281 15.4702 12.5634C15.5224 12.6163 15.5452 12.6524 15.4924 12.7062C15.4394 12.7599 15.4347 12.7839 15.475 12.8248C15.5152 12.8657 15.5192 12.9018 15.475 12.9466C15.441 12.9812 15.4387 13.0013 15.4387 13.0621C15.4387 13.4294 15.4387 14.4301 15.4387 14.7059C15.4387 14.9817 15.2429 15.1485 14.8706 15.1485C14.4981 15.1485 14.3719 14.9945 14.2645 14.8919C14.3339 15.3858 14.536 15.8285 15.0221 15.8285Z"/><path fill="#eea338" d="M12.571 13.674C12.571 13.674 12.572 13.58 12.572 13.462L13.127 13.674 12.571 13.674ZM11.909 13.773 10.667 13.603C10.703 13.332 10.771 13.068 10.869 12.817L11.909 13.237 11.909 13.773ZM14.476 11.696 14.697 10.774C14.956 10.838 15.207 10.934 15.445 11.06L14.733 12.446 14.735 11.75C14.653 11.75 14.527 11.738 14.476 11.696ZM11.938 13.863 10.673 13.785C10.657 14.055 10.673 14.327 10.721 14.595 10.721 14.595 11.938 14.603 11.938 14.595L11.938 13.863ZM11.926 12.996C11.885 12.941 11.91 12.912 11.954 12.883 11.999 12.854 11.992 12.832 11.97 12.79 11.948 12.749 11.926 12.704 11.967 12.659 12.008 12.614 11.992 12.595 11.961 12.563 11.929 12.531 11.926 12.495 11.954 12.47 11.983 12.444 11.976 12.425 11.958 12.399 11.939 12.373 11.901 12.321 11.935 12.288L11.418 11.85C11.248 12.057 11.102 12.286 10.984 12.531L11.926 12.996ZM13.163 13.235 12.547 12.628C12.634 12.54 12.643 12.526 12.581 12.463 12.514 12.395 12.512 12.388 12.648 12.249 12.695 12.202 12.669 12.169 12.603 12.169 12.536 12.169 12.232 12.169 12.197 12.169 12.162 12.169 12.135 12.171 12.11 12.196L11.619 11.714C11.806 11.518 12.015 11.347 12.241 11.204L13.163 12.71 13.163 13.235ZM12.523 13.327C12.523 13.176 12.523 13.027 12.523 13.006 12.523 12.961 12.52 12.943 12.485 12.908 12.45 12.873 12.468 12.856 12.495 12.817L13.078 13.311 13.078 13.602 12.523 13.327ZM13.07 12.446C13.07 12.157 13.07 11.889 13.07 11.735 13.07 11.273 13.095 11.042 13.161 10.996L13.108 10.774C12.849 10.845 12.598 10.941 12.36 11.067L13.07 12.446ZM15.349 13.674C15.349 13.674 15.349 13.58 15.349 13.462L14.794 13.674 15.349 13.674ZM15.958 13.773 17.2 13.603C17.164 13.332 17.096 13.068 16.998 12.817L15.958 13.237 15.958 13.773ZM15.958 13.863 17.223 13.785C17.24 14.055 17.223 14.327 17.175 14.595 17.175 14.595 15.958 14.603 15.958 14.595L15.958 13.863ZM15.918 12.996C15.959 12.941 15.933 12.912 15.889 12.883 15.845 12.854 15.851 12.832 15.873 12.79 15.896 12.749 15.918 12.704 15.877 12.659 15.836 12.614 15.851 12.595 15.883 12.563 15.914 12.531 15.918 12.495 15.889 12.47 15.861 12.444 15.867 12.425 15.886 12.399 15.905 12.373 15.942 12.321 15.909 12.288L16.425 11.85C16.596 12.057 16.742 12.286 16.859 12.531L15.918 12.996ZM14.794 13.235 15.409 12.628C15.322 12.54 15.313 12.526 15.375 12.463 15.442 12.395 15.445 12.388 15.308 12.249 15.261 12.202 15.288 12.169 15.354 12.169 15.42 12.169 15.725 12.169 15.759 12.169 15.794 12.169 15.821 12.171 15.847 12.196L16.337 11.714C16.15 11.518 15.941 11.347 15.715 11.204L14.794 12.71 14.794 13.235ZM15.349 13.327C15.349 13.176 15.349 13.027 15.349 13.006 15.349 12.961 15.352 12.943 15.387 12.908 15.422 12.873 15.404 12.856 15.377 12.817L14.794 13.311 14.794 13.602 15.349 13.327Z"/><path fill="#d82332" d="M12.148 13.032C12.17 13.055 12.18 13.077 12.18 13.132 12.18 13.186 12.18 14.379 12.18 14.848 12.18 15.418 12.521 15.736 12.871 15.736 13.193 15.736 13.404 15.438 13.515 15.091 13.373 15.204 13.165 15.239 12.966 15.239 12.735 15.239 12.363 15.082 12.363 14.742 12.363 14.427 12.363 13.263 12.363 13.077 12.363 13.032 12.319 13.032 12.148 13.032ZM14.161 10.784C13.721 10.739 13.313 10.832 13.313 11.442 13.313 12.083 13.313 12.866 13.313 13.063 13.313 13.334 13.292 13.301 13.518 13.358 13.927 13.461 13.973 13.475 14.47 13.59L14.47 11.941C14.046 11.893 13.862 11.611 13.862 11.299 13.862 11.05 13.97 10.816 14.161 10.784ZM15.737 13.032C15.715 13.055 15.706 13.077 15.706 13.132 15.706 13.186 15.706 14.379 15.706 14.848 15.706 15.418 15.365 15.736 15.014 15.736 14.692 15.736 14.481 15.438 14.37 15.091 14.513 15.204 14.721 15.239 14.92 15.239 15.15 15.239 15.522 15.082 15.522 14.742 15.522 14.427 15.522 13.263 15.522 13.077 15.522 13.032 15.567 13.032 15.737 13.032Z"/></g><path fill="none" d="M14 17.3333C15.841 17.3333 17.3334 15.8409 17.3334 14C17.3334 12.159 15.841 10.6666 14 10.6666C12.1591 10.6666 10.6667 12.159 10.6667 14C10.6667 15.8409 12.1591 17.3333 14 17.3333Z"/><path d="M17.3334 14C17.3334 12.159 15.841 10.6666 14 10.6666C12.1591 10.6666 10.6667 12.159 10.6667 14C10.6667 15.8409 12.1591 17.3333 14 17.3333C15.841 17.3333 17.3334 15.8409 17.3334 14Z"/><g mask="url(#French_Polynesia_svg__c)"><path fill="#054989" fill-rule="evenodd" d="M14 22.6667C15.841 22.6667 17.3334 21.1743 17.3334 19.3333C17.3334 17.4924 15.841 16 14 16C12.1591 16 10.6667 17.4924 10.6667 19.3333C10.6667 21.1743 12.1591 22.6667 14 22.6667Z"/><path d="M17.3334 19.3333C17.3334 17.4924 15.841 16 14 16C12.1591 16 10.6667 17.4924 10.6667 19.3333C10.6667 21.1743 12.1591 22.6667 14 22.6667C15.841 22.6667 17.3334 21.1743 17.3334 19.3333Z"/></g></g></svg>