<svg xmlns="http://www.w3.org/2000/svg" fill="none" viewBox="0 0 30.667 28" focusable="false"><defs><filter id="Georgia_svg__a"><feColorMatrix values="0 0 0 0 1 0 0 0 0 1 0 0 0 0 1 0 0 0 1 0"/></filter></defs><mask id="Georgia_svg__b" width="28" height="20" x="1.333" y="4" maskUnits="userSpaceOnUse"><g filter="url(#Georgia_svg__a)"><rect width="28" height="20" x="1.333" y="4" fill="#fff" rx="3"/><rect width="27.5" height="19.5" x="1.583" y="4.25" stroke="#f5f5f5" stroke-width=".5" rx="2.75"/></g></mask><path fill="none" d="M1.333 0H29.333V28H1.333z"/><rect width="28" height="20" x="1.333" y="4" fill="#fff" rx="3"/><rect width="27.5" height="19.5" x="1.583" y="4.25" stroke="#d6d8dd" stroke-width=".5" rx="2.75"/><g mask="url(#Georgia_svg__b)"><path fill="#ff2b37" fill-rule="evenodd" d="M17.3333 25.3333L13.3333 25.3333L13.3333 16L0 16L0 12L13.3333 12L13.3333 2.66663L17.3333 2.66663L17.3333 12L30.6667 12L30.6667 16L17.3333 16L17.3333 25.3333Z"/><path d="M17.3333 25.3333L13.3333 25.3333L13.3333 16L0 16L0 12L13.3333 12L13.3333 2.66663L17.3333 2.66663L17.3333 12L30.6667 12L30.6667 16L17.3333 16L17.3333 25.3333Z"/><path fill="#fd0d1b" fill-rule="evenodd" d="M22.9333 8.4L21.3333 8.66667L21.3333 7.33333L22.9333 7.6L22.6667 6L24 6L23.7333 7.6L25.3333 7.33333L25.3333 8.66667L23.7333 8.4L24 10L22.6667 10L22.9333 8.4Z"/><path d="M22.9333 8.4L21.3333 8.66667L21.3333 7.33333L22.9333 7.6L22.6667 6L24 6L23.7333 7.6L25.3333 7.33333L25.3333 8.66667L23.7333 8.4L24 10L22.6667 10L22.9333 8.4Z"/><path fill="#fd0d1b" fill-rule="evenodd" d="M6.93334 8.4L5.33334 8.66667L5.33334 7.33333L6.93334 7.6L6.66668 6L8.00001 6L7.73334 7.6L9.33334 7.33333L9.33334 8.66667L7.73334 8.4L8.00001 10L6.66668 10L6.93334 8.4Z"/><path d="M6.93334 8.4L5.33334 8.66667L5.33334 7.33333L6.93334 7.6L6.66668 6L8.00001 6L7.73334 7.6L9.33334 7.33333L9.33334 8.66667L7.73334 8.4L8.00001 10L6.66668 10L6.93334 8.4Z"/><path fill="#fd0d1b" fill-rule="evenodd" d="M6.93334 20.4L5.33334 20.6667L5.33334 19.3333L6.93334 19.6L6.66668 18L8.00001 18L7.73334 19.6L9.33334 19.3333L9.33334 20.6667L7.73334 20.4L8.00001 22L6.66668 22L6.93334 20.4Z"/><path d="M6.93334 20.4L5.33334 20.6667L5.33334 19.3333L6.93334 19.6L6.66668 18L8.00001 18L7.73334 19.6L9.33334 19.3333L9.33334 20.6667L7.73334 20.4L8.00001 22L6.66668 22L6.93334 20.4Z"/><path fill="#fd0d1b" fill-rule="evenodd" d="M22.9333 20.4L21.3333 20.6667L21.3333 19.3333L22.9333 19.6L22.6667 18L24 18L23.7333 19.6L25.3333 19.3333L25.3333 20.6667L23.7333 20.4L24 22L22.6667 22L22.9333 20.4Z"/><path d="M22.9333 20.4L21.3333 20.6667L21.3333 19.3333L22.9333 19.6L22.6667 18L24 18L23.7333 19.6L25.3333 19.3333L25.3333 20.6667L23.7333 20.4L24 22L22.6667 22L22.9333 20.4Z"/></g></svg>