<svg xmlns="http://www.w3.org/2000/svg" fill="none" viewBox="0 0 29.333 28" focusable="false"><defs><filter id="Guyana_svg__a"><feColorMatrix values="0 0 0 0 1 0 0 0 0 1 0 0 0 0 1 0 0 0 1 0"/></filter></defs><mask id="Guyana_svg__b" width="28" height="20" x="1.333" y="4" maskUnits="userSpaceOnUse"><g filter="url(#Guyana_svg__a)"><rect width="28" height="20" x="1.333" y="4" fill="#fff" rx="3"/><rect width="28" height="20" x="1.333" y="4" stroke="#969696" stroke-opacity="0" stroke-width="0" rx="3"/></g></mask><path fill="none" d="M1.333 0H29.333V28H1.333z"/><rect width="28" height="20" x="1.333" y="4" fill="#fff" rx="3"/><rect width="28" height="20" x="1.333" y="4" rx="3"/><g mask="url(#Guyana_svg__b)"><path fill="#08c55f" d="M1.333 4H29.333V24H1.333z"/><path d="M1.333 4H29.333V24H1.333z"/><path fill="#ffd831" fill-rule="evenodd" d="M1.52588e-05 24L1.52588e-05 4L1.33335 4L29.3333 13.3333L29.3333 14.6667L1.33335 24L1.52588e-05 24Z"/><path fill="#fff" fill-rule="evenodd" d="M1.52588e-05 4L1.52588e-05 24L1.33335 24L29.3333 14.6667L29.3333 13.3333L1.33335 4L1.52588e-05 4ZM1.33335 5.40546L1.33335 22.5945L27.117 14L1.33335 5.40546Z"/><path fill="#e92034" fill-rule="evenodd" d="M1.52588e-05 24L1.52588e-05 4L1.33335 4L16.6667 14L1.33335 24L1.52588e-05 24Z"/><path fill="#262626" fill-rule="evenodd" d="M1.52588e-05 4L1.52588e-05 24L1.33335 24L15.4463 14.7959L16.6667 14L15.4463 13.2041L1.33335 4L1.52588e-05 4ZM1.33335 5.59183L1.33335 22.4082L14.2259 14L1.33335 5.59183Z"/></g></svg>