<svg xmlns="http://www.w3.org/2000/svg" fill="none" viewBox="0 0 33.547 28" focusable="false"><defs><filter id="Jamaica_svg__a"><feColorMatrix values="0 0 0 0 1 0 0 0 0 1 0 0 0 0 1 0 0 0 1 0"/></filter></defs><mask id="Jamaica_svg__b" width="28" height="20" x="2.774" y="4" maskUnits="userSpaceOnUse"><g filter="url(#Jamaica_svg__a)"><rect width="28" height="20" x="2.774" y="4" fill="#fff" rx="3"/><rect width="28" height="20" x="2.774" y="4" stroke="#969696" stroke-opacity="0" stroke-width="0" rx="3"/></g></mask><path fill="none" d="M2.774 0H30.774V28H2.774z"/><rect width="28" height="20" x="2.774" y="4" fill="#fff" rx="3"/><rect width="28" height="20" x="2.774" y="4" rx="3"/><g mask="url(#Jamaica_svg__b)"><path fill="#1dbe4f" d="M2.774 4H30.774V24H2.774z"/><path d="M2.774 4H30.774V24H2.774z"/><path fill="#262626" fill-rule="evenodd" d="M2.77362 4L14.7736 14L2.77362 24L2.77362 4Z"/><path d="M14.7736 14L2.77362 24L2.77362 4L14.7736 14Z"/><path fill="#262626" fill-rule="evenodd" d="M0 0L12 10L0 20L0 0Z" transform="matrix(-1 0 0 1 30.774 4)"/><path d="M12 10L0 20L0 0L12 10Z" transform="matrix(-1 0 0 1 30.774 4)"/><path fill="#ffd646" fill-rule="evenodd" d="M32.0561 25.9165L33.5473 23.7057L19.158 14L33.5473 4.29432L32.0561 2.08356L16.7736 12.3917L1.49118 2.08356L0 4.29432L14.3893 14L0 23.7057L1.49118 25.9165L16.7736 15.6083L32.0561 25.9165Z"/><path d="M32.0561 25.9165L33.5473 23.7057L19.158 14L33.5473 4.29432L32.0561 2.08356L16.7736 12.3917L1.49118 2.08356L0 4.29432L14.3893 14L0 23.7057L1.49118 25.9165L16.7736 15.6083L32.0561 25.9165Z"/></g></svg>