<svg xmlns="http://www.w3.org/2000/svg" fill="none" viewBox="0 0 41.941 30.481" focusable="false"><mask id="Jersey_svg__e" width="4" height="5" x="18.978" y="7.434" maskUnits="userSpaceOnUse"><g fill-rule="evenodd" filter="url(#Jersey_svg__a)"><path fill="#e3243b" d="M18.9781 9.93393C18.9781 9.56312 18.9781 9.14954 18.9781 8.76721C18.9781 8.03083 19.5751 7.43393 20.3115 7.43393L21.6448 7.43393C22.3812 7.43393 22.9781 8.03083 22.9781 8.76721C22.9781 9.14954 22.9781 9.56312 22.9781 9.93393C22.9781 11.7196 20.9781 12.4339 20.9781 12.4339C20.9781 12.4339 18.9781 11.7196 18.9781 9.93393Z"/><path stroke="url(#Jersey_svg__b)" stroke-opacity="0" stroke-width="0" d="M18.9781 8.76726C18.9781 8.03088 19.5751 7.43393 20.3115 7.43393L21.6448 7.43393C22.3812 7.43393 22.9781 8.03088 22.9781 8.76726C22.9781 9.14958 22.9781 9.56314 22.9781 9.93393C22.9781 11.7196 20.9781 12.4339 20.9781 12.4339C20.9781 12.4339 18.9781 11.7196 18.9781 9.93393C18.9781 9.56314 18.9781 9.14958 18.9781 8.76726Z"/></g></mask><defs><linearGradient id="Jersey_svg__b" x1="18.978" x2="18.978" y1="7.434" y2="12.434" gradientUnits="userSpaceOnUse"><stop offset="0" stop-color="#fff"/><stop offset="1" stop-color="#efefef"/></linearGradient><filter id="Jersey_svg__a"><feColorMatrix values="0 0 0 0 1 0 0 0 0 1 0 0 0 0 1 0 0 0 1 0"/></filter></defs><mask id="Jersey_svg__c" width="28" height="20" x="6.312" y="4.767" maskUnits="userSpaceOnUse"><g filter="url(#Jersey_svg__a)"><rect width="28" height="20" x="6.312" y="4.767" fill="#fff" rx="3"/><rect width="27.5" height="19.5" x="6.562" y="5.017" stroke="#f5f5f5" stroke-width=".5" rx="2.75"/></g></mask><path fill="none" d="M6.312.767H34.312V28.767H6.312z"/><rect width="28" height="20" x="6.312" y="4.767" fill="#fff" rx="3"/><rect width="27.5" height="19.5" x="6.562" y="5.017" stroke="#d6d8dd" stroke-width=".5" rx="2.75"/><g mask="url(#Jersey_svg__c)"><path fill="#e3243b" d="M0 0H2.667V49.333H0z" transform="rotate(-55 2.098 1.092)"/><path d="M0 0H2.667V49.333H0z" transform="rotate(-55 2.098 1.092)"/><path fill="#e3243b" d="M0 0H2.667V49.333H0z" transform="rotate(55 18.872 41.376)scale(-1 1)"/><path d="M0 0H2.667V49.333H0z" transform="rotate(55 18.872 41.376)scale(-1 1)"/><path fill="#faee32" fill-rule="evenodd" d="M19.904 7.43389L22.0523 7.43389L21.965 7.38269L22.9518 6.81285L21.6759 6.95531L21.8553 6.10056L20.9781 6.81285L20.101 6.10056L20.2804 6.95531L19.0045 6.81285L19.9913 7.38269L19.904 7.43389Z"/><path d="M19.904 7.43389L22.0523 7.43389L21.965 7.38269L22.9518 6.81285L21.6759 6.95531L21.8553 6.10056L20.9781 6.81285L20.101 6.10056L20.2804 6.95531L19.0045 6.81285L19.9913 7.38269L19.904 7.43389Z"/><path fill="#e3243b" fill-rule="evenodd" d="M18.9781 9.93393C18.9781 9.56312 18.9781 9.14954 18.9781 8.76721C18.9781 8.03083 19.5751 7.43393 20.3115 7.43393L21.6448 7.43393C22.3812 7.43393 22.9781 8.03083 22.9781 8.76721C22.9781 9.14954 22.9781 9.56312 22.9781 9.93393C22.9781 11.7196 20.9781 12.4339 20.9781 12.4339C20.9781 12.4339 18.9781 11.7196 18.9781 9.93393Z"/><path d="M18.9781 8.76726C18.9781 8.03088 19.5751 7.43393 20.3115 7.43393L21.6448 7.43393C22.3812 7.43393 22.9781 8.03088 22.9781 8.76726C22.9781 9.14958 22.9781 9.56314 22.9781 9.93393C22.9781 11.7196 20.9781 12.4339 20.9781 12.4339C20.9781 12.4339 18.9781 11.7196 18.9781 9.93393C18.9781 9.56314 18.9781 9.14958 18.9781 8.76726Z"/><g mask="url(#Jersey_svg__e)"><rect width=".667" height=".667" x="20.645" y="11.434" fill="#faee32" rx=".333"/><rect width=".667" height=".667" x="20.645" y="11.434" rx=".333"/><rect width="2.667" height=".667" x="19.645" y="10.101" fill="#faee32" rx=".333"/><rect width="2.667" height=".667" x="19.645" y="10.101" rx=".333"/><rect width="2.667" height=".667" x="19.645" y="8.767" fill="#faee32" rx=".333"/><rect width="2.667" height=".667" x="19.645" y="8.767" rx=".333"/></g></g></svg>