<svg xmlns="http://www.w3.org/2000/svg" fill="none" viewBox="0 0 36.324 28" focusable="false"><defs><filter id="Namibia_svg__a"><feColorMatrix values="0 0 0 0 1 0 0 0 0 1 0 0 0 0 1 0 0 0 1 0"/></filter></defs><mask id="Namibia_svg__b" width="28" height="20" x="4.162" y="4" maskUnits="userSpaceOnUse"><g filter="url(#Namibia_svg__a)"><rect width="28" height="20" x="4.162" y="4" fill="#fff" rx="3"/><rect width="28" height="20" x="4.162" y="4" stroke="#969696" stroke-opacity="0" stroke-width="0" rx="3"/></g></mask><path fill="none" d="M4.162 0H32.162V28H4.162z"/><rect width="28" height="20" x="4.162" y="4" fill="#fff" rx="3"/><rect width="28" height="20" x="4.162" y="4" rx="3"/><g mask="url(#Namibia_svg__b)"><path fill="#0c4799" fill-rule="evenodd" d="M4.16199 17.3333L32.162 4L4.16199 4L4.16199 17.3333Z"/><path d="M32.162 4L4.16199 4L4.16199 17.3333L32.162 4Z"/><path fill="#ffd243" fill-rule="evenodd" d="M8.82865 10L7.80816 11.1303L7.88585 9.60948L6.36497 9.68716L7.49532 8.66667L6.36497 7.64618L7.88585 7.72386L7.80816 6.20299L8.82865 7.33333L9.84914 6.20299L9.77146 7.72386L11.2923 7.64618L10.162 8.66667L11.2923 9.68716L9.77146 9.60948L9.84914 11.1303L8.82865 10Z"/><path d="M7.80816 11.1303L7.88585 9.60948L6.36497 9.68716L7.49532 8.66667L6.36497 7.64618L7.88585 7.72386L7.80816 6.20299L8.82865 7.33333L9.84914 6.20299L9.77146 7.72386L11.2923 7.64618L10.162 8.66667L11.2923 9.68716L9.77146 9.60948L9.84914 11.1303L8.82865 10L7.80816 11.1303Z"/><path fill="#1bac55" fill-rule="evenodd" d="M4.16199 24L32.162 24L32.162 10.6667L4.16199 24Z"/><path d="M32.162 24L32.162 10.6667L4.16199 24L32.162 24Z"/><path fill="#fff" fill-rule="evenodd" d="M7.24438 26.6667L34.3327 9.74004L29.0796 1.33331L1.99127 18.26L7.24438 26.6667Z"/><path d="M34.3327 9.74004L29.0796 1.33331L1.99127 18.26L7.24438 26.6667L34.3327 9.74004Z"/><path fill="#e52347" fill-rule="evenodd" d="M3.5328 27.0719L36.324 6.58169L32.7912 0.92804L0 21.4183L3.5328 27.0719Z"/><path d="M36.324 6.58169L32.7912 0.92804L0 21.4183L3.5328 27.0719L36.324 6.58169Z"/></g></svg>