<svg xmlns="http://www.w3.org/2000/svg" fill="none" viewBox="0 0 28 28" focusable="false"><defs><filter id="Niue_svg__a"><feColorMatrix values="0 0 0 0 1 0 0 0 0 1 0 0 0 0 1 0 0 0 1 0"/></filter></defs><mask id="Niue_svg__b" width="28" height="20" x="0" y="4" maskUnits="userSpaceOnUse"><g filter="url(#Niue_svg__a)"><rect width="28" height="20" y="4" fill="#fedd00" rx="3"/><rect width="27.5" height="19.5" x=".25" y="4.25" stroke="#f5f5f5" stroke-opacity="0" stroke-width=".5" rx="2.75"/></g></mask><path fill="none" d="M0 0H28V28H0z" transform="matrix(-1 0 0 -1 28 28)"/><rect width="28" height="20" y="4" fill="#fff" rx="3"/><rect width="27.5" height="19.5" x=".25" y="4.25" stroke="#f5f5f5" stroke-width=".5" rx="2.75"/><g mask="url(#Niue_svg__b)"><rect width="28" height="20" y="4" fill="#fedd00" rx="3"/><rect width="27.5" height="19.5" x=".25" y="4.25" rx="2.75"/><path fill="#012169" d="M0 4H12.662V14H0z"/><path d="M.25 4.25H12.412V13.75H.25z"/><path fill="#c8102e" d="M4.88942 0L4.88942 1.13512L0.994651 5.30269L0.000215953 5.30269L4.88942 0Z" transform="matrix(0 -1 -1 0 12.665 8.89)"/><path fill="#c8102e" d="M4.88942 0L4.88942 1.13512L0.994651 5.30269L0.000215953 5.30269L4.88942 0Z" transform="matrix(0 1 1 0 0 9.112)"/><path fill="#fff" d="M4.97114 0L4.97114 1.13512L0.994435 5.33003L0 5.33003L4.97114 0Z" transform="matrix(0 -1 -1 0 11.545 8.97)"/><path fill="#fff" d="M4.97114 0L4.97114 1.13512L0.994435 5.33003L0 5.33003L4.97114 0Z" transform="matrix(0 1 1 0 1.12 9.03)"/><path fill="#fff" d="M4.84895 0L0.994289 4.16757L-0.00014556 4.16757L3.85451 0L4.84895 0Z" transform="matrix(0 -1 -1 0 12.66 8.848)"/><path fill="#fff" d="M4.84895 0L0.994289 4.16757L-0.00014556 4.16757L3.85451 0L4.84895 0Z" transform="matrix(0 1 1 0 .005 9.153)"/><path fill="#fff" d="M3.67752 0L4.67753 0L1 5.30266L0 5.30266L3.67752 0Z" transform="rotate(90 2.172 10.492)"/><path fill="#fff" d="M3.67752 0L4.67753 0L1 5.30266L0 5.30266L3.67752 0Z" transform="rotate(-90 4.84 4.84)"/><path fill="#c8102e" d="M3.67752 0L4.67753 0L1 5.30266L0 5.30266L3.67752 0Z" transform="rotate(90 1.672 10.992)"/><path fill="#c8102e" d="M3.67752 0L4.67753 0L1 5.30266L0 5.30266L3.67752 0Z" transform="rotate(-90 4.34 4.34)"/><path fill="#fff" d="M3.67752 0L3.67752 1.44192L1 5.30266L0 5.30266L3.67752 0Z" transform="rotate(90 1.17 11.494)"/><path fill="#fff" d="M3.67752 0L3.67752 1.44192L1 5.30266L0 5.30266L3.67752 0Z" transform="rotate(-90 3.839 3.839)"/><path fill="#fff" d="M7.332 4H8.332V14H7.332z"/><path fill="#fff" d="M7.332 4H8.332V14H7.332zM4.332 4H5.332V14H4.332z"/><path fill="#fff" d="M4.332 4H5.332V14H4.332z"/><path fill="#d9d9d9" d="M0 0H2V12.665H0z" transform="rotate(90 2.332 10.332)"/><path fill="#c8102e" d="M0 0H2V12.665H0z" transform="rotate(90 2.332 10.332)"/><path fill="#fff" d="M0 0H1V12.665H0z" transform="rotate(90 1.332 11.332)"/><path fill="#fff" d="M0 0H1V12.665H0z" transform="rotate(90 1.332 11.332)"/><path fill="#fff" d="M0 0H1V12.665H0z" transform="rotate(90 2.832 9.832)"/><path fill="#fff" d="M0 0H1V12.665H0z" transform="rotate(90 2.832 9.832)"/><path fill="#d9d9d9" d="M5.332 4H7.332V14H5.332z"/><path fill="#c8102e" d="M5.332 4H7.332V14H5.332z"/></g><circle cx="6.339" cy="9.077" r="1.595" fill="#012169"/><circle cx="6.339" cy="9.078" r=".902" fill="#fedd00"/><circle cx="6.339" cy="5.932" r=".644" fill="#fedd00"/><circle cx=".644" cy=".644" r=".644" fill="#fedd00" transform="rotate(90 .848 9.282)"/><circle cx="6.339" cy="12.224" r=".644" fill="#fedd00"/><circle cx=".644" cy=".644" r=".644" fill="#fedd00" transform="rotate(90 -2.298 6.136)"/></svg>