<svg xmlns="http://www.w3.org/2000/svg" fill="none" viewBox="0 0 29.43 28" focusable="false"><defs><filter id="North_Macedonia_svg__a"><feColorMatrix values="0 0 0 0 1 0 0 0 0 1 0 0 0 0 1 0 0 0 1 0"/></filter></defs><mask id="North_Macedonia_svg__b" width="28" height="20" x=".715" y="4" maskUnits="userSpaceOnUse"><g filter="url(#North_Macedonia_svg__a)"><rect width="28" height="20" x=".715" y="4" fill="#fff" rx="3"/><rect width="28" height="20" x=".715" y="4" stroke="#969696" stroke-opacity="0" stroke-width="0" rx="3"/></g></mask><path fill="none" d="M.715 0H28.715V28H.715z"/><rect width="28" height="20" x=".715" y="4" fill="#fff" rx="3"/><rect width="28" height="20" x=".715" y="4" rx="3"/><g mask="url(#North_Macedonia_svg__b)"><path fill="#e81b26" d="M.715 4H28.715V24H.715z"/><path d="M.715 4H28.715V24H.715z"/><path fill="#ffe94f" fill-rule="evenodd" d="M14.7149 17.3334C16.5558 17.3334 18.0482 15.841 18.0482 14C18.0482 12.1591 16.5558 10.6667 14.7149 10.6667C12.8739 10.6667 11.3816 12.1591 11.3816 14C11.3816 15.841 12.8739 17.3334 14.7149 17.3334Z"/><path d="M18.0482 14C18.0482 12.1591 16.5558 10.6667 14.7149 10.6667C12.8739 10.6667 11.3816 12.1591 11.3816 14C11.3816 15.841 12.8739 17.3334 14.7149 17.3334C16.5558 17.3334 18.0482 15.841 18.0482 14Z"/><path fill="#ffe94f" fill-rule="evenodd" d="M13.7995 9.42308L12.7149 4L16.7149 4L15.6303 9.42308C15.3343 9.36421 15.0282 9.33333 14.7149 9.33333C14.4016 9.33333 14.0955 9.36421 13.7995 9.42308ZM10.923 11.2793C11.1243 10.9992 11.3559 10.7423 11.6129 10.5135L2.67655 0.46936L3.05176e-05 3.44194L10.923 11.2793ZM10.0945 13.34C10.064 13.5556 10.0482 13.7759 10.0482 14C10.0482 14.2241 10.064 14.4444 10.0946 14.6601L0.714899 16L0.714899 12L10.0945 13.34ZM11.6129 17.4865C11.3559 17.2577 11.1243 17.0008 10.923 16.7207L3.05176e-05 24.5581L2.67655 27.5306L11.6129 17.4865ZM17.8169 10.5135C18.0739 10.7423 18.3055 10.9992 18.5068 11.2793L29.4298 3.44194L26.7532 0.46936L17.8169 10.5135ZM13.7995 18.5769L12.7149 24L16.7149 24L15.6303 18.5769C15.3343 18.6358 15.0282 18.6667 14.7149 18.6667C14.4016 18.6667 14.0955 18.6358 13.7995 18.5769ZM18.5068 16.7207C18.3055 17.0008 18.0739 17.2577 17.8169 17.4865L26.7532 27.5306L29.4298 24.5581L18.5068 16.7207ZM19.3352 13.34C19.3658 13.5556 19.3816 13.7759 19.3816 14C19.3816 14.2241 19.3658 14.4444 19.3352 14.6601L28.7149 16L28.7149 12L19.3352 13.34Z"/><path d="M13.7995 9.42308L12.7149 4L16.7149 4L15.6303 9.42308C15.3343 9.36421 15.0282 9.33333 14.7149 9.33333C14.4016 9.33333 14.0955 9.36421 13.7995 9.42308ZM10.923 11.2793C11.1243 10.9992 11.3559 10.7423 11.6129 10.5135L2.67655 0.46936L3.05176e-05 3.44194L10.923 11.2793ZM10.0945 13.34C10.064 13.5556 10.0482 13.7759 10.0482 14C10.0482 14.2241 10.064 14.4444 10.0946 14.6601L0.714899 16L0.714899 12L10.0945 13.34ZM11.6129 17.4865C11.3559 17.2577 11.1243 17.0008 10.923 16.7207L3.05176e-05 24.5581L2.67655 27.5306L11.6129 17.4865ZM17.8169 10.5135C18.0739 10.7423 18.3055 10.9992 18.5068 11.2793L29.4298 3.44194L26.7532 0.46936L17.8169 10.5135ZM13.7995 18.5769L12.7149 24L16.7149 24L15.6303 18.5769C15.3343 18.6358 15.0282 18.6667 14.7149 18.6667C14.4016 18.6667 14.0955 18.6358 13.7995 18.5769ZM18.5068 16.7207C18.3055 17.0008 18.0739 17.2577 17.8169 17.4865L26.7532 27.5306L29.4298 24.5581L18.5068 16.7207ZM19.3352 13.34C19.3658 13.5556 19.3816 13.7759 19.3816 14C19.3816 14.2241 19.3658 14.4444 19.3352 14.6601L28.7149 16L28.7149 12L19.3352 13.34Z"/></g></svg>