<svg xmlns="http://www.w3.org/2000/svg" fill="none" viewBox="0 0 28 28" focusable="false"><path fill="none" d="M0 0H28V28H0z" transform="matrix(-1 0 0 -1 28 28)"/><rect width="28" height="20" y="4" fill="#fff" rx="3"/><rect width="27.5" height="19.5" x=".25" y="4.25" stroke="#f5f5f5" stroke-width=".5" rx="2.75"/><path fill="#eabe4e" d="M7.0607 18.7464C7.05952 18.7515 7.09154 18.793 7.13186 18.8385C7.24157 18.9624 7.33804 19.015 7.68061 19.1381C7.84026 19.1954 8.03305 19.2733 8.10903 19.3113C8.2601 19.3866 8.34559 19.4533 8.44637 19.4514C8.51801 19.4501 8.69816 19.4229 8.70194 19.4066C8.70501 19.3932 8.45062 19.2054 8.33506 19.1319C8.13344 19.0036 7.9589 18.9491 7.69527 18.9321C7.4492 18.9163 7.29938 18.8703 7.06676 18.7393C7.0646 18.7381 7.06188 18.7413 7.0607 18.7464Z"/><path fill="#e20909" d="M8.58567 19.4256C8.32971 19.4253 7.44886 19.1264 7.38032 19.2926C7.36488 19.3301 7.39362 19.3989 7.43657 19.4274C7.79558 19.6655 8.46965 19.8522 8.90002 19.8364C9.00103 19.8327 8.7142 19.4129 8.67737 19.3829C8.67737 19.3829 8.65002 19.4256 8.58567 19.4256Z"/><path fill="#eabe4e" d="M9.30132 19.786C9.23997 19.7831 9.02578 19.7761 8.60043 19.7304C8.17893 19.6851 7.78659 19.5954 7.55282 19.4909C7.4452 19.4428 7.40392 19.3793 7.42523 19.4263C7.44586 19.4719 7.48702 19.8012 7.48392 19.9259C7.47837 20.1486 7.38011 20.4702 7.2728 20.6168C7.2448 20.6551 7.24147 20.668 7.25605 20.6816C7.40896 20.8252 7.6828 20.8169 7.6828 20.8169C7.91355 20.8109 8.86846 20.7863 9.08563 21.1306C9.0896 21.1369 10.5994 20.2415 10.603 20.226C10.607 20.2089 10.6452 20.1619 10.6634 20.1464C10.7105 20.1062 10.4902 19.9907 10.4589 19.9759C10.1428 19.8261 9.30132 19.786 9.30132 19.786Z"/><path fill="#eabe4e" d="M6.88161 19.4632C6.94916 19.5651 7.08906 19.665 7.25607 19.7306C7.46484 19.8125 7.52864 19.8342 7.50882 19.7066L7.48705 19.6145L7.25513 19.5682C7.09337 19.531 7.05481 19.5178 6.96679 19.4699C6.93218 19.4494 6.89606 19.4317 6.85873 19.4167C6.85519 19.4179 6.86548 19.4388 6.88161 19.4632Z"/><path fill="#eabe4e" d="M3.16407e-05 0.00739466C-0.00114913 0.0125251 0.0308667 0.0539717 0.0711866 0.0994873C0.180897 0.223367 0.277373 0.276035 0.619943 0.399062C0.779592 0.456401 0.972377 0.534328 1.04836 0.572241C1.19943 0.647618 1.28492 0.714317 1.3857 0.712411C1.45734 0.711055 1.63749 0.683903 1.64127 0.667552C1.64434 0.654232 1.38995 0.466411 1.27439 0.392871C1.07277 0.264571 0.898227 0.210073 0.6346 0.193109C0.388532 0.177276 0.238707 0.131303 0.00608772 0.000250731C0.00393242 -0.00094723 0.00120898 0.00226422 3.16407e-05 0.00739466Z" transform="matrix(-1 0 0 1 20.94 18.702)"/><path fill="#e20909" d="M1.20957 0.183324C0.953613 0.182984 0.072764 -0.115901 0.00422478 0.0502978C-0.0112181 0.0877491 0.0175169 0.156624 0.0604751 0.185113C0.419482 0.42321 1.09355 0.609872 1.52393 0.594128C1.62493 0.590433 1.33811 0.170605 1.30127 0.140625C1.30127 0.140625 1.27393 0.183324 1.20957 0.183324Z" transform="matrix(-1 0 0 1 20.61 19.21)"/><path fill="#eabe4e" d="M2.05376 0.376221C1.99241 0.373299 1.77822 0.366321 1.35287 0.320618C0.93137 0.275327 0.539034 0.185631 0.305258 0.0811128C0.197639 0.0329881 0.15636 -0.0305274 0.17767 0.01653C0.198305 0.0620989 0.239464 0.391415 0.236358 0.516158C0.230816 0.738771 0.132547 1.06037 0.0252444 1.20703C-0.00276073 1.24531 -0.00608703 1.25818 0.00849131 1.27186C0.161404 1.41537 0.435239 1.40708 0.435239 1.40708C0.665991 1.40112 1.69648 1.42438 1.91365 1.76869C1.91762 1.77498 3.3518 0.831683 3.35543 0.816197C3.35941 0.799148 3.3976 0.752069 3.4158 0.736571C3.46297 0.696424 3.24267 0.580941 3.21135 0.566096C2.89528 0.416318 2.05376 0.376221 2.05376 0.376221Z" transform="matrix(-1 0 0 1 20.753 19.373)"/><path fill="#e20909" fill-rule="evenodd" d="M1.48633 0.145508C1.68164 0.141602 1.68381 -0.00682804 1.73132 0.000299567C1.73143 0.001461 1.77813 0.502523 1.73132 0.572329C1.5837 0.599982 0.00616808 0.446916 1.5406e-05 0.262266C-0.00467327 0.121555 0.388672 0.0595703 0.720863 0.0559883C1.05305 0.0524062 1.29102 0.149414 1.48633 0.145508Z" transform="matrix(-1 0 0 1 19.053 20.096)"/><path fill="#e20909" fill-rule="evenodd" d="M10.4343 20.2727C10.6296 20.2688 10.6318 20.1204 10.6793 20.1275C10.6794 20.1287 10.7261 20.6297 10.6793 20.6995C10.5317 20.7272 8.95417 20.5741 8.94801 20.3895C8.94333 20.2488 9.33667 20.1868 9.66886 20.1832C10.0011 20.1796 10.239 20.2766 10.4343 20.2727Z"/><path fill="#eabe4e" d="M0.02358 0.0464282C0.0911265 0.148368 0.231033 0.248282 0.398037 0.313831C0.606807 0.395776 0.670605 0.417445 0.65079 0.289827L0.629021 0.197703L0.3971 0.151468C0.235341 0.114226 0.196777 0.101079 0.108755 0.0531567C0.0741483 0.0327016 0.0380236 0.0149298 0.000698495 0C-0.00284554 0.00119109 0.00744968 0.022084 0.02358 0.0464282Z" transform="matrix(-1 0 0 1 21.14 19.373)"/><path fill="#eabe4e" d="M12.8908 20.3835C12.6679 20.399 12.292 20.4297 12.0555 20.4516C10.2691 20.6172 9.7418 20.6109 9.04416 20.434C8.99605 20.4218 8.95315 20.4118 8.94882 20.4118C8.9445 20.4118 8.95233 20.4309 8.96623 20.4541C9.01067 20.5286 9.04191 20.6448 9.06139 20.8082C9.08379 20.9961 9.06059 21.2617 9.00552 21.4479C8.95701 21.6119 8.95622 21.6065 9.03237 21.6331C9.76386 21.656 10.5515 21.5331 11.3112 21.4948C12.8978 21.4213 14.5083 21.4213 16.1327 21.4949C16.6634 21.519 17.1119 21.5488 17.8044 21.6061C18.1545 21.6369 18.6612 21.7163 18.9033 21.6055C18.9086 21.5938 18.8918 21.5547 18.8872 21.5161C18.8521 21.225 18.8354 20.8455 18.9258 20.5755C18.9446 20.5194 19.0703 20.3401 19.0518 20.3577C19.0108 20.3967 18.9149 20.4152 18.8965 20.4221C18.2533 20.5357 18.0574 20.53 17.3988 20.5183C16.7209 20.5009 16.3646 20.5223 15.471 20.4467C14.9588 20.4033 14.2756 20.3586 13.9907 20.3498C13.7362 20.3419 13.2927 20.3555 12.8908 20.3835Z"/><path fill="#666" d="M18.2034 9.59375L9.76477 9.59375L9.76477 10.1912L18.2034 10.1912L18.2034 9.59375Z"/><path stroke="#520" stroke-width=".026" d="M9.76477 9.59375L9.76477 10.1912L18.2034 10.1912L18.2034 9.59375L9.76477 9.59375Z"/><path fill="#eace24" d="M9.76481 10.1918L8.80964 7.9442L8.64911 7.99299L8.29846 7.18973L8.94257 6.99943L9.08842 7.37651L9.39939 7.28433L9.2663 6.91469L9.92231 6.76338L10.0389 7.1485L10.3619 7.08632L10.2501 6.69743L10.908 6.58273L10.9981 6.97451L11.4333 6.91287L11.4711 7.11088L11.6327 7.09043L11.5995 6.8934L11.9329 6.85001L11.967 7.05042L12.13 7.03398L12.1055 6.83198L12.4367 6.80173L12.4645 7.00357L12.7868 6.97885L12.728 6.38119L13.3955 6.34708L13.4174 6.74031L13.7357 6.73546L13.7299 6.3385L14.4002 6.33853L14.3899 6.74031L14.7139 6.74694L14.7375 6.34705L15.4034 6.37631L15.3426 6.98245L15.6647 7.00475L15.6926 6.80498L16.0229 6.8353L15.9967 7.03538L16.1632 7.05169L16.1933 6.85654L16.5256 6.89212L16.4937 7.09154L16.6583 7.11439L16.6981 6.91513L17.1284 6.97878L17.2196 6.5838L17.8767 6.69848L17.7748 7.09461L18.0849 7.15548L18.2051 6.76555L18.8599 6.91388L18.7236 7.29865L19.0357 7.38387L19.1864 6.99888L19.833 7.18327L19.4823 7.98656L19.2056 7.8954L18.2329 10.1919C15.5467 9.41901 12.3587 9.41579 9.76481 10.1918Z"/><path fill="#5e520e" d="M13.786 8.332 13.786 7.62C13.786 7.335 14.299 7.335 14.299 7.62L14.299 8.332M10.044 8.816 9.823 8.128C9.734 7.853 10.229 7.742 10.318 8.017L10.539 8.705M17.504 8.68 17.725 7.992C17.814 7.717 18.309 7.827 18.22 8.102L17.999 8.79"/><path fill="#1353b4" d="M9.7655 10.1917C9.74304 11.6304 9.74304 13.0693 9.7655 14.5082C9.78579 15.8943 9.85376 16.9761 10.4641 17.8219C11.1993 18.8407 12.4241 19.576 13.9996 20.2984C15.5751 19.576 16.7999 18.8407 17.5351 17.8219C18.1454 16.9761 18.2134 15.8943 18.2337 14.5082C18.2549 13.0694 18.2549 11.6306 18.2337 10.1917L9.7655 10.1917Z"/><path fill="#ce0f25" d="M18.1154 16.308C18.1182 15.9482 18.193 15.7774 18.1931 15.4177C18.2304 14.6958 18.2447 13.9788 18.2334 13.2594L9.76524 13.2594C9.75395 13.9788 9.76824 14.6894 9.80551 15.4177C9.80564 15.7774 9.8826 15.9483 9.88531 16.308L18.1154 16.308Z"/><path stroke="#540" stroke-width=".026" d="M9.75269 13.2405L18.2451 13.2405M9.87939 16.3079L18.115 16.3079"/><path fill="#fff" d="M12.9438 15.2254L13.9722 14.8065L13.5532 15.8348L14.0102 15.5302L14.4673 15.8348L14.0483 14.8065L15.0767 15.2254L14.772 14.7684L15.0767 14.3114L14.0483 14.7303L14.4673 13.702L14.0102 14.0067L13.5532 13.702L13.9722 14.7303L12.9438 14.3114L13.2485 14.7684L12.9438 15.2254Z"/><path fill="#eace24" d="M0.0220171 0.237069C0.0110172 1.48339 0 1.52749 0 1.52749C0.545899 2.06241 0.610667 2.25835 0.771993 2.43193C0.981526 2.12859 1.30688 2.2499 1.30688 2.2499C1.37309 1.96318 1.72053 1.71501 1.72053 1.71501C1.23525 1.67643 0.39702 1.42819 0.330845 1.32896C0.111068 0.999299 0.413548 0 0.413548 0L0.0220171 0.237069Z" transform="matrix(-1 0 0 1 20.813 17.763)"/><path fill="#eace24" d="M0.538115 0.413295L0 0L0.639482 0.382088" transform="matrix(-1 0 0 1 20.133 19.54)"/><path fill="#eace24" d="M0 2.07373C0 2.07373 0.67423 1.7985 1.36524 2.28336C1.41957 2.2989 1.47694 2.30045 1.53202 2.28786C1.66559 2.14463 1.96854 1.72358 2.20252 1.77818C2.21975 1.42241 2.1791 5.81531e-05 2.1791 5.81531e-05C2.07776 -0.00389495 2.04263 0.195009 2.04263 0.195009C2.10115 0.600518 1.86715 3.06499 0.907919 1.43498L0.229413 1.50518L0 2.07373Z" transform="matrix(-1 0 0 1 20.393 15.337)"/><path fill="#eace24" d="M0 0.461475C0.579043 0.671008 0.586292 0.781726 1.15973 1.28905C1.61743 1.47108 2.29913 1.91736 2.33774 2.01666L2.3006 2.16161C2.38885 2.21672 2.47219 2.01344 2.47219 2.01344C2.38397 1.51156 0.77231 0 0.77231 0L0.0624092 0.149484L0 0.461475Z" transform="matrix(-1 0 0 1 20.762 11.248)"/><path fill="#dfdfdf" fill-rule="evenodd" d="M1.36252 1.15699C1.35653 0.695046 1.77514 0.353099 1.96863 0.195044C2.02667 0.147638 2.06445 0.116775 2.06445 0.104179C2.00954 -0.230513 1.37769 0.320571 1.0786 0.640237C1.14404 0.419672 1.25264 0.241064 1.31297 0.141834C1.34419 0.0904825 1.36249 0.060389 1.35519 0.05674C1.15538 -0.0431547 0.911536 0.325605 0.75817 0.617106C0.758862 0.60469 0.759548 0.592487 0.76022 0.580527L0.76022 0.580525C0.769116 0.422235 0.775612 0.306641 0.762395 0.306641C0.509037 0.306641 0.358313 1.01341 0.358888 1.34521C0.299013 1.07855 0.271957 0.850204 0.247702 0.805664C-0.152828 0.883678 0.052748 1.88189 0.052748 1.88189C0.0605339 1.95987 0.583047 2.58378 0.583047 2.58378L0.722905 2.23401C0.733374 2.24458 0.739009 2.24851 0.739009 2.24851L0.794867 1.61551L0.990943 1.2349C0.998709 1.24993 1.00376 1.25839 1.00376 1.25839L1.36252 1.15699Z" transform="matrix(-1 0 0 1 21.916 9.9)"/><path stroke="#000" stroke-width=".026" d="M1.36252 1.15699C1.35653 0.695046 1.77514 0.353099 1.96863 0.195044C2.02667 0.147638 2.06445 0.116775 2.06445 0.104179C2.00954 -0.230513 1.37769 0.320571 1.0786 0.640237C1.14404 0.419672 1.25264 0.241064 1.31297 0.141834C1.34419 0.0904825 1.36249 0.060389 1.35519 0.05674C1.15538 -0.0431547 0.911536 0.325605 0.75817 0.617106C0.758862 0.60469 0.759548 0.592487 0.76022 0.580527L0.76022 0.580525C0.769116 0.422235 0.775612 0.306641 0.762395 0.306641C0.509037 0.306641 0.358313 1.01341 0.358888 1.34521C0.299013 1.07855 0.271957 0.850204 0.247702 0.805664C-0.152828 0.883678 0.052748 1.88189 0.052748 1.88189C0.0605339 1.95987 0.583047 2.58378 0.583047 2.58378L0.722905 2.23401C0.733374 2.24458 0.739009 2.24851 0.739009 2.24851L0.794867 1.61551L0.990943 1.2349C0.998709 1.24993 1.00376 1.25839 1.00376 1.25839L1.36252 1.15699Z" transform="matrix(-1 0 0 1 21.916 9.9)"/><path fill="#fff" d="M1.09179 2.30838C1.09179 2.30838 0.990386 0.95144 1.16196 0.748699L0.655078 0L0 1.30235L0.592674 2.3864L1.09179 2.30838Z" transform="matrix(-1 0 0 1 21.801 12.017)"/><path stroke="#000" stroke-width=".026" d="M1.16196 0.748699L0.655078 0L0 1.30235L0.592674 2.3864L1.09179 2.30838C1.09179 2.30838 0.990385 0.95144 1.16196 0.748699Z" transform="matrix(-1 0 0 1 21.801 12.017)"/><path fill="#dfdfdf" d="M1.09179 2.30838C1.09179 2.30838 0.990386 0.95144 1.16196 0.748699L0.655078 0L0 1.30235L0.592674 2.3864L1.09179 2.30838Z" transform="matrix(-1 0 0 1 21.801 12.017)"/><path stroke="#000" stroke-width=".026" d="M1.16196 0.748699L0.655078 0L0 1.30235L0.592674 2.3864L1.09179 2.30838C1.09179 2.30838 0.990385 0.95144 1.16196 0.748699Z" transform="matrix(-1 0 0 1 21.801 12.017)"/><path fill="#dfdfdf" d="M0.746173 6.51948C0.968439 6.80409 1.07705 7.44593 1.07705 7.44593L1.14322 7.23633C1.17442 7.25583 1.19335 7.41836 1.23696 7.41836C1.25646 7.41836 1.25304 7.25082 1.29762 7.24182C1.31711 7.23799 1.30419 7.47347 1.34727 7.47347C1.38236 7.47347 1.38517 7.30576 1.39688 7.31352C1.42445 7.33186 1.4299 7.53616 1.45205 7.42934C1.42088 6.33362 3.56877 5.43696 3.52554 4.20877C3.58013 2.93762 2.21304 2.45518 1.37484 1.38537C1.37484 1.38537 1.13933 0.683827 1.57333 0.99384C1.92431 0.939248 1.8932 0.591299 1.8932 0.591299L2.08621 0.591299C2.17204 -0.15737 1.41897 0.0178009 1.41897 0.0178009C0.721005 0.0178009 0.657988 0.740178 0.657988 0.740178C0.478607 1.67997 1.69631 2.79914 1.69631 2.79914C1.87566 3.18908 1.69471 3.8615 1.69471 3.8615L0 5.45813" transform="matrix(-1 0 0 1 21.933 10.763)"/><path stroke="#000" stroke-width=".026" d="M0.746173 6.51947C0.968439 6.80409 1.07705 7.44593 1.07705 7.44593L1.14322 7.23633C1.17442 7.25583 1.19335 7.41836 1.23696 7.41836C1.25646 7.41836 1.25304 7.25082 1.29762 7.24182C1.31711 7.23799 1.30419 7.47347 1.34727 7.47347C1.38236 7.47347 1.38517 7.30576 1.39688 7.31351C1.42445 7.33186 1.4299 7.53616 1.45205 7.42934C1.42088 6.33362 3.56877 5.43696 3.52554 4.20877C3.58013 2.93762 2.21304 2.45518 1.37484 1.38537C1.37484 1.38537 1.13933 0.683827 1.57333 0.99384C1.92431 0.939248 1.8932 0.591299 1.8932 0.591299L2.08621 0.591299C2.17204 -0.15737 1.41897 0.0178009 1.41897 0.0178009C0.721005 0.0178009 0.657988 0.740178 0.657988 0.740178C0.478607 1.67997 1.69631 2.79914 1.69631 2.79914C1.87566 3.18908 1.69471 3.8615 1.69471 3.8615L0 5.45813" transform="matrix(-1 0 0 1 21.933 10.763)"/><path fill="#dfdfdf" d="M1.24243 0C1.14882 0.113112 0.668008 0.682908 0.551036 0.881754C0.385406 1.06436 0.707381 1.01299 0.707381 1.01299C0.707381 1.01299 0.231263 1.51632 0 1.66354C0.0709942 1.87652 0.527616 1.56801 0.527616 1.56801C0.527616 1.56801 0.0830542 1.84098 0.106506 1.89557C0.242144 1.99908 0.636772 1.70844 0.636772 1.70844C0.636772 1.70844 0.542518 1.84098 0.621169 1.88779C0.753775 1.88779 1.05788 1.64606 1.05788 1.64606C1.05788 1.64606 0.995504 1.78642 1.0657 1.80978C1.1925 1.72985 1.98599 1.06886 1.98599 1.06886" transform="matrix(-1 0 0 1 23.156 16.209)"/><path stroke="#000" stroke-width=".026" d="M1.24243 0C1.14882 0.113112 0.668008 0.682908 0.551036 0.881754C0.385406 1.06436 0.707381 1.01299 0.707381 1.01299C0.707381 1.01299 0.231263 1.51632 0 1.66354C0.0709942 1.87652 0.527616 1.56801 0.527616 1.56801C0.527616 1.56801 0.0830542 1.84098 0.106506 1.89557C0.242144 1.99908 0.636772 1.70844 0.636772 1.70844C0.636772 1.70844 0.542518 1.84098 0.621169 1.88779C0.753775 1.88779 1.05788 1.64606 1.05788 1.64606C1.05788 1.64606 0.995504 1.78642 1.0657 1.80978C1.1925 1.72985 1.986 1.06886 1.986 1.06886" transform="matrix(-1 0 0 1 23.156 16.209)"/><path stroke="#000" stroke-width=".026" d="M0.132619 0C0.132619 0 -0.104514 0.314317 0.055404 0.264701" transform="matrix(-1 0 0 1 21.74 15.871)"/><path fill="#dfdfdf" fill-rule="evenodd" d="M1.95512 1.24669C1.33752 0.667645 1.25476 0.00594715 1.18858 0.000362965C0.988568 -0.0162777 1.1098 0.543066 1.20558 0.895726C1.09082 0.74031 1.01276 0.600987 0.958031 0.503311C0.904676 0.408084 0.8735 0.352443 0.852123 0.36007C0.57025 0.471392 0.929307 1.23142 0.929307 1.23142C0.966196 1.38711 1.37757 1.78943 1.58655 1.98591C0.887088 1.57501 0.65986 1.13432 0.547192 0.915807C0.496957 0.818379 0.469496 0.765122 0.433106 0.778369C0.184376 1.45254 1.04329 2.09057 1.70702 2.58361C1.73122 2.60159 1.75516 2.61937 1.77877 2.63695C1.13494 2.43224 0.715837 1.96071 0.474983 1.68972C0.358975 1.5592 0.284318 1.47521 0.245817 1.48996C-0.0298924 1.59474 0.549127 2.33919 0.549127 2.33919C0.792182 2.56511 1.1168 2.75988 1.37304 2.89505C0.616282 2.60292 0.338799 2.3331 0.199187 2.19734C0.130465 2.13052 0.095149 2.09618 0.0525202 2.10765C-0.189661 2.29182 0.475899 2.85622 0.624782 2.97779C0.449756 2.91098 0.331194 2.85453 0.247568 2.81471C0.150094 2.7683 0.100084 2.74449 0.063448 2.75322C-0.119189 3.00149 0.763834 3.54174 0.763834 3.54174C0.864372 3.59963 0.972056 3.65184 1.08085 3.6985C0.856509 3.61259 0.646299 3.51485 0.48823 3.44136C0.321968 3.36406 0.213394 3.31358 0.206741 3.33188C-0.0765617 3.66375 1.14973 4.21973 1.41991 4.19213L1.45543 4.19438C0.970831 4.61251 0.817356 5.05843 0.895986 5.08469C0.965931 5.10802 1.14689 4.96518 1.33043 4.8203C1.45079 4.7253 1.57226 4.62941 1.66427 4.57893C1.40906 5.00931 1.23674 5.51138 1.38185 5.54211C1.42332 5.54407 1.49024 5.43996 1.58009 5.30019C1.7385 5.05374 1.96818 4.69643 2.25527 4.61407C2.08272 4.98726 1.92413 5.48979 2.15867 5.73013C2.19821 5.7425 2.26728 5.56703 2.348 5.36195C2.44626 5.11231 2.56178 4.81881 2.66231 4.76692C2.60117 5.23159 2.70883 5.34027 2.76048 5.345C2.8487 5.3008 3.00313 4.6611 3.17958 4.62252L2.74398 4.49959C2.78038 4.37553 2.81491 4.25781 2.81491 4.25781L2.54469 4.37142L2.56194 4.35644L2.35511 4.25453C2.35701 4.25353 2.35886 4.25255 2.36065 4.2516L2.37943 4.25279L2.37223 4.24547C2.39082 4.23562 2.40146 4.22993 2.40146 4.22993L2.347 4.21986L2.04205 3.91022L1.89024 3.33226C1.87531 3.32911 1.8605 3.32596 1.84582 3.3228L1.78913 3.06276L1.77889 2.63704C1.7862 2.64248 1.79347 2.6479 1.80071 2.6533L1.68183 2.07437C1.69789 2.08908 1.70688 2.09719 1.70688 2.09719L1.98135 1.72877L2.02678 1.76505L2.01544 1.68301L2.04964 1.63711C2.03479 1.62888 2.02013 1.62058 2.00565 1.6122L1.95512 1.24669Z" transform="matrix(-1 0 0 1 23.97 10.593)"/><path stroke="#000" stroke-width=".026" d="M1.95512 1.24669C1.33752 0.667645 1.25476 0.00594715 1.18858 0.000362965C0.988568 -0.0162777 1.1098 0.543066 1.20558 0.895726C1.09082 0.74031 1.01276 0.600987 0.958031 0.503311C0.904676 0.408084 0.8735 0.352443 0.852123 0.36007C0.57025 0.471392 0.929307 1.23142 0.929307 1.23142C0.966196 1.38711 1.37757 1.78943 1.58655 1.98591C0.887088 1.57501 0.65986 1.13432 0.547192 0.915807C0.496957 0.818379 0.469496 0.765122 0.433106 0.778369C0.184376 1.45254 1.04329 2.09057 1.70702 2.58361C1.73122 2.60159 1.75516 2.61937 1.77877 2.63695C1.13494 2.43224 0.715837 1.96071 0.474983 1.68972C0.358975 1.5592 0.284318 1.47521 0.245817 1.48996C-0.0298924 1.59474 0.549127 2.33919 0.549127 2.33919C0.792182 2.56511 1.1168 2.75988 1.37304 2.89505C0.616282 2.60292 0.338799 2.3331 0.199187 2.19734C0.130465 2.13052 0.095149 2.09618 0.0525202 2.10765C-0.189661 2.29182 0.475899 2.85622 0.624782 2.97779C0.449756 2.91098 0.331194 2.85453 0.247568 2.81471C0.150094 2.7683 0.100084 2.74449 0.063448 2.75322C-0.119189 3.00149 0.763834 3.54174 0.763834 3.54174C0.864372 3.59963 0.972056 3.65184 1.08085 3.6985C0.856509 3.61259 0.646299 3.51485 0.48823 3.44136C0.321968 3.36406 0.213394 3.31358 0.206741 3.33188C-0.0765617 3.66375 1.14973 4.21973 1.41991 4.19213L1.45543 4.19438C0.970831 4.61251 0.817356 5.05843 0.895986 5.08469C0.965931 5.10802 1.14689 4.96518 1.33043 4.8203C1.45079 4.7253 1.57226 4.62941 1.66427 4.57893C1.40906 5.00931 1.23674 5.51138 1.38185 5.54211C1.42332 5.54407 1.49024 5.43996 1.58009 5.30019C1.7385 5.05374 1.96818 4.69643 2.25527 4.61407C2.08272 4.98726 1.92413 5.48979 2.15867 5.73013C2.19821 5.7425 2.26728 5.56703 2.348 5.36195C2.44626 5.11231 2.56178 4.81881 2.66231 4.76692C2.60117 5.23159 2.70883 5.34027 2.76048 5.345C2.8487 5.3008 3.00313 4.6611 3.17958 4.62252L2.74398 4.49959C2.78038 4.37553 2.81491 4.25781 2.81491 4.25781L2.54469 4.37142L2.56194 4.35644L2.35511 4.25453C2.35701 4.25353 2.35886 4.25255 2.36065 4.2516L2.37943 4.25279L2.37223 4.24547C2.39082 4.23562 2.40146 4.22993 2.40146 4.22993L2.347 4.21986L2.04205 3.91022L1.89024 3.33226C1.87531 3.32911 1.8605 3.32596 1.84582 3.3228L1.78913 3.06276L1.77889 2.63704C1.7862 2.64248 1.79347 2.6479 1.80071 2.6533L1.68183 2.07437C1.69789 2.08908 1.70688 2.09719 1.70688 2.09719L1.98135 1.72877L2.02678 1.76505L2.01544 1.68301L2.04964 1.63711C2.03479 1.62888 2.02013 1.62058 2.00565 1.6122L1.95512 1.24669Z" transform="matrix(-1 0 0 1 23.97 10.593)"/><path fill="#dfdfdf" d="M2.55979 3.07272C2.55979 3.07272 2.55979 2.70617 2.38044 2.69057C2.09364 2.67458 1.80595 2.69028 1.52259 2.73738C0.488031 2.11975 1.29847 1.32641 1.15601 1.05284C1.10923 0.63173 0.415157 0 0.415157 0C0.34496 0.0624418 0.42929 0.455538 0.376141 0.42896C0.235782 0.358796 0.322345 0.667785 0.282558 0.748702C0.149984 0.701924 0.156781 0.902589 0.188974 1.05284C0.0797897 1.06848 0.118746 1.25561 0.142167 1.38822C-0.0719308 1.27045 0.206964 1.72209 0.134351 1.70793C-0.193177 1.66112 0.181157 2.01991 0.181157 2.01991C-0.00601381 2.09011 0.0814151 2.22932 0.212395 2.28506C0.0485837 2.40203 0.216255 2.58878 0.27474 2.59705C0.126564 2.675 0.291461 2.78773 0.376111 2.86998C0.243536 2.99476 0.485296 3.04806 0.602332 3.09611C0.508716 3.24429 0.618764 3.27632 0.719272 3.32227C0.656892 3.43924 0.810397 3.43056 0.906406 3.41592C0.789467 3.54067 0.98442 3.59527 1.0624 3.5796C1.0624 3.5796 1.10401 3.74151 1.24182 3.68103C1.20286 3.80589 1.48361 3.79025 1.48361 3.79025C1.48361 3.91514 1.89693 3.86826 1.89693 3.86826" transform="matrix(-1 0 0 1 22.466 11.486)"/><path stroke="#000" stroke-width=".026" d="M2.55979 3.07272C2.55979 3.07272 2.55979 2.70617 2.38044 2.69057C2.09364 2.67458 1.80595 2.69028 1.52259 2.73738C0.488031 2.11975 1.29847 1.32641 1.15601 1.05284C1.10923 0.63173 0.415157 0 0.415157 0C0.34496 0.0624418 0.42929 0.455538 0.376141 0.42896C0.235782 0.358796 0.322345 0.667785 0.282558 0.748701C0.149984 0.701924 0.156781 0.902589 0.188974 1.05284C0.0797897 1.06848 0.118746 1.25561 0.142167 1.38822C-0.0719308 1.27045 0.206964 1.72209 0.134351 1.70793C-0.193177 1.66112 0.181157 2.01991 0.181157 2.01991C-0.00601381 2.09011 0.0814151 2.22932 0.212395 2.28506C0.0485837 2.40203 0.216255 2.58878 0.27474 2.59705C0.126564 2.675 0.291461 2.78773 0.376111 2.86998C0.243536 2.99476 0.485296 3.04806 0.602332 3.09611C0.508716 3.24429 0.618764 3.27632 0.719272 3.32227C0.656892 3.43924 0.810397 3.43056 0.906406 3.41592C0.789467 3.54067 0.98442 3.59527 1.0624 3.5796C1.0624 3.5796 1.10401 3.74151 1.24182 3.68103C1.20286 3.80589 1.48361 3.79025 1.48361 3.79025C1.48361 3.91514 1.89693 3.86826 1.89693 3.86826" transform="matrix(-1 0 0 1 22.466 11.486)"/><path fill="#eace24" d="M7.20732 18.001C7.19632 19.2473 7.1853 19.2914 7.1853 19.2914C7.7312 19.8263 7.79597 20.0223 7.9573 20.1958C8.16683 19.8925 8.49219 20.0138 8.49219 20.0138C8.55839 19.7271 8.90583 19.4789 8.90583 19.4789C8.42056 19.4403 7.58232 19.1921 7.51615 19.0929C7.29637 18.7632 7.59885 17.7639 7.59885 17.7639L7.20732 18.001Z"/><path fill="#eace24" d="M8.404 19.953 7.865 19.54 8.505 19.922M7.605 17.411C7.605 17.411 8.279 17.136 8.97 17.621 9.025 17.636 9.082 17.638 9.137 17.625 9.271 17.482 9.574 17.061 9.808 17.116 9.825 16.76 9.784 15.337 9.784 15.337 9.683 15.333 9.648 15.532 9.648 15.532 9.706 15.938 9.472 18.402 8.513 16.772L7.834 16.843 7.605 17.411ZM7.236 11.709C7.815 11.919 7.822 12.03 8.396 12.537 8.853 12.719 9.535 13.165 9.574 13.265L9.536 13.41C9.625 13.465 9.708 13.261 9.708 13.261 9.62 12.76 8.008 11.248 8.008 11.248L7.298 11.397 7.236 11.709Z"/><path fill="#dfdfdf" fill-rule="evenodd" d="M7.44455 11.058C7.43856 10.596 7.85717 10.2541 8.05067 10.096C8.1087 10.0486 8.14648 10.0178 8.14648 10.0052C8.09157 9.67049 7.45972 10.2216 7.16064 10.5412C7.22608 10.3207 7.33467 10.1421 7.395 10.0428C7.42622 9.99148 7.44452 9.96139 7.43722 9.95774C7.23741 9.85785 6.99357 10.2266 6.8402 10.5181C6.84089 10.5057 6.84158 10.4935 6.84225 10.4815L6.84225 10.4815C6.85115 10.3232 6.85764 10.2076 6.84443 10.2076C6.59107 10.2076 6.44034 10.9144 6.44092 11.2462C6.38104 10.9795 6.35399 10.7512 6.32973 10.7067C5.9292 10.7847 6.13478 11.7829 6.13478 11.7829C6.14257 11.8609 6.66508 12.4848 6.66508 12.4848L6.80494 12.135C6.8154 12.1456 6.82104 12.1495 6.82104 12.1495L6.8769 11.5165L7.07297 11.1359C7.08074 11.1509 7.08579 11.1594 7.08579 11.1594L7.44455 11.058Z"/><path stroke="#000" stroke-width=".026" d="M7.44455 11.058C7.43856 10.596 7.85717 10.2541 8.05067 10.096C8.1087 10.0486 8.14648 10.0178 8.14648 10.0052C8.09157 9.67049 7.45972 10.2216 7.16064 10.5412C7.22608 10.3207 7.33467 10.1421 7.395 10.0428C7.42622 9.99148 7.44452 9.96139 7.43722 9.95774C7.23741 9.85785 6.99357 10.2266 6.8402 10.5181C6.84089 10.5057 6.84158 10.4935 6.84225 10.4815L6.84225 10.4815C6.85115 10.3232 6.85764 10.2076 6.84443 10.2076C6.59107 10.2076 6.44034 10.9144 6.44092 11.2462C6.38104 10.9795 6.35399 10.7512 6.32973 10.7067C5.9292 10.7847 6.13478 11.7829 6.13478 11.7829C6.14257 11.8609 6.66508 12.4848 6.66508 12.4848L6.80494 12.135C6.8154 12.1456 6.82104 12.1495 6.82104 12.1495L6.8769 11.5165L7.07297 11.1359C7.08074 11.1509 7.08579 11.1594 7.08579 11.1594L7.44455 11.058Z"/><path fill="#fff" d="M7.28845 14.3256C7.28845 14.3256 7.18704 12.9687 7.35861 12.7659L6.85173 12.0172L6.19666 13.3196L6.78933 14.4036L7.28845 14.3256Z"/><path stroke="#000" stroke-width=".026" d="M7.35861 12.7659L6.85173 12.0172L6.19666 13.3196L6.78933 14.4036L7.28845 14.3256C7.28845 14.3256 7.18704 12.9687 7.35861 12.7659Z"/><path fill="#dfdfdf" d="M7.28845 14.3256C7.28845 14.3256 7.18704 12.9687 7.35861 12.7659L6.85173 12.0172L6.19666 13.3196L6.78933 14.4036L7.28845 14.3256Z"/><path stroke="#000" stroke-width=".026" d="M7.35861 12.7659L6.85173 12.0172L6.19666 13.3196L6.78933 14.4036L7.28845 14.3256C7.28845 14.3256 7.18704 12.9687 7.35861 12.7659Z"/><path fill="#dfdfdf" d="M6.81124 17.2829C7.0335 17.5675 7.14211 18.2094 7.14211 18.2094L7.20828 17.9998C7.23949 18.0193 7.25841 18.1818 7.30203 18.1818C7.32152 18.1818 7.31811 18.0142 7.36268 18.0052C7.38218 18.0014 7.36925 18.2369 7.41233 18.2369C7.44743 18.2369 7.45023 18.0692 7.46194 18.0769C7.48951 18.0953 7.49497 18.2996 7.51712 18.1928C7.48594 17.097 9.63383 16.2004 9.5906 14.9722C9.64519 13.701 8.2781 13.2186 7.4399 12.1488C7.4399 12.1488 7.20439 11.4473 7.6384 11.7573C7.98938 11.7027 7.95826 11.3547 7.95826 11.3547L8.15128 11.3547C8.23711 10.6061 7.48404 10.7812 7.48404 10.7812C6.78607 10.7812 6.72305 11.5036 6.72305 11.5036C6.54367 12.4434 7.76137 13.5626 7.76137 13.5626C7.94072 13.9525 7.75978 14.6249 7.75978 14.6249L6.06506 16.2216"/><path stroke="#000" stroke-width=".026" d="M6.81124 17.2829C7.0335 17.5675 7.14211 18.2094 7.14211 18.2094L7.20828 17.9998C7.23949 18.0193 7.25841 18.1818 7.30203 18.1818C7.32152 18.1818 7.31811 18.0142 7.36268 18.0052C7.38218 18.0014 7.36925 18.2369 7.41233 18.2369C7.44743 18.2369 7.45023 18.0692 7.46194 18.0769C7.48951 18.0953 7.49497 18.2996 7.51712 18.1928C7.48594 17.097 9.63383 16.2004 9.5906 14.9722C9.64519 13.701 8.2781 13.2186 7.4399 12.1488C7.4399 12.1488 7.20439 11.4473 7.6384 11.7573C7.98938 11.7027 7.95826 11.3547 7.95826 11.3547L8.15128 11.3547C8.23711 10.6061 7.48404 10.7812 7.48404 10.7812C6.78607 10.7812 6.72305 11.5036 6.72305 11.5036C6.54367 12.4434 7.76137 13.5626 7.76137 13.5626C7.94072 13.9525 7.75978 14.6249 7.75978 14.6249L6.06506 16.2216"/><path fill="#dfdfdf" d="M6.08472 16.2091C5.9911 16.3222 5.51029 16.892 5.39332 17.0909C5.22769 17.2735 5.54967 17.2221 5.54967 17.2221C5.54967 17.2221 5.07355 17.7254 4.84229 17.8727C4.91328 18.0856 5.3699 17.7771 5.3699 17.7771C5.3699 17.7771 4.92534 18.0501 4.94879 18.1047C5.08443 18.2082 5.47906 17.9175 5.47906 17.9175C5.47906 17.9175 5.3848 18.0501 5.46345 18.0969C5.59606 18.0969 5.90017 17.8552 5.90017 17.8552C5.90017 17.8552 5.83779 17.9955 5.90798 18.0189C6.03478 17.939 6.82828 17.278 6.82828 17.278"/><path stroke="#000" stroke-width=".026" d="M6.085 16.209C5.991 16.322 5.51 16.892 5.393 17.091 5.228 17.274 5.55 17.222 5.55 17.222 5.55 17.222 5.074 17.725 4.842 17.873 4.913 18.086 5.37 17.777 5.37 17.777 5.37 17.777 4.925 18.05 4.949 18.105 5.084 18.208 5.479 17.918 5.479 17.918 5.479 17.918 5.385 18.05 5.463 18.097 5.596 18.097 5.9 17.855 5.9 17.855 5.9 17.855 5.838 17.996 5.908 18.019 6.035 17.939 6.828 17.278 6.828 17.278M6.391 15.872C6.391 15.872 6.154 16.186 6.314 16.136"/><path fill="#dfdfdf" fill-rule="evenodd" d="M5.98295 11.8401C5.36536 11.261 5.28259 10.5993 5.21641 10.5937C5.0164 10.5771 5.13764 11.1364 5.23341 11.4891C5.11865 11.3337 5.04059 11.1944 4.98586 11.0967C4.93251 11.0015 4.90133 10.9458 4.87995 10.9535C4.59808 11.0648 4.95714 11.8248 4.95714 11.8248C4.99403 11.9805 5.4054 12.3828 5.61438 12.5793C4.91492 12.1684 4.68769 11.7277 4.57502 11.5092C4.52479 11.4118 4.49733 11.3585 4.46094 11.3718C4.21221 12.0459 5.07112 12.6839 5.73485 13.177C5.75905 13.195 5.78299 13.2128 5.8066 13.2303C5.16277 13.0256 4.74367 12.5541 4.50282 12.2831C4.38681 12.1526 4.31215 12.0686 4.27365 12.0833C3.99794 12.1881 4.57696 12.9326 4.57696 12.9326C4.82001 13.1585 5.14464 13.3533 5.40088 13.4884C4.64411 13.1963 4.36663 12.9265 4.22702 12.7907C4.1583 12.7239 4.12298 12.6896 4.08035 12.701C3.83817 12.8852 4.50373 13.4496 4.65261 13.5712C4.47759 13.5044 4.35903 13.4479 4.2754 13.4081C4.17793 13.3617 4.12792 13.3379 4.09128 13.3466C3.90864 13.5949 4.79167 14.1351 4.79167 14.1351C4.8922 14.193 4.99989 14.2452 5.10868 14.2919C4.88434 14.206 4.67413 14.1082 4.51606 14.0347C4.3498 13.9574 4.24123 13.907 4.23457 13.9253C3.95127 14.2571 5.17756 14.8131 5.44775 14.7855L5.48326 14.7878C4.99866 15.2059 4.84519 15.6518 4.92382 15.6781C4.99376 15.7014 5.17472 15.5586 5.35826 15.4137C5.47862 15.3187 5.60009 15.2228 5.6921 15.1723C5.43689 15.6027 5.26458 16.1048 5.40969 16.1355C5.45115 16.1375 5.51807 16.0333 5.60792 15.8936C5.76633 15.6471 5.99601 15.2898 6.2831 15.2075C6.11055 15.5806 5.95197 16.0832 6.18651 16.3235C6.22604 16.3359 6.29511 16.1604 6.37583 15.9553C6.47409 15.7057 6.58961 15.4122 6.69014 15.3603C6.62901 15.825 6.73666 15.9337 6.78831 15.9384C6.87653 15.8942 7.03096 15.2545 7.20741 15.2159L6.77181 15.093C6.80821 14.9689 6.84274 14.8512 6.84274 14.8512L6.57252 14.9648L6.58977 14.9498L6.38294 14.8479C6.38484 14.8469 6.38669 14.8459 6.38848 14.845L6.40726 14.8462L6.40006 14.8389C6.41865 14.829 6.42929 14.8233 6.42929 14.8233L6.37484 14.8132L6.06988 14.5036L5.91807 13.9256C5.90314 13.9225 5.88833 13.9193 5.87366 13.9162L5.81696 13.6561L5.80672 13.2304C5.81403 13.2359 5.8213 13.2413 5.82854 13.2467L5.70966 12.6678C5.72572 12.6825 5.73471 12.6906 5.73471 12.6906L6.00918 12.3222L6.05461 12.3584L6.04327 12.2764L6.07747 12.2305C6.06262 12.2223 6.04796 12.214 6.03348 12.2056L5.98295 11.8401Z"/><path stroke="#000" stroke-width=".026" d="M5.98295 11.8401C5.36536 11.261 5.28259 10.5993 5.21641 10.5937C5.0164 10.5771 5.13764 11.1364 5.23341 11.4891C5.11865 11.3337 5.04059 11.1944 4.98586 11.0967C4.93251 11.0015 4.90133 10.9458 4.87995 10.9535C4.59808 11.0648 4.95714 11.8248 4.95714 11.8248C4.99403 11.9805 5.4054 12.3828 5.61438 12.5793C4.91492 12.1684 4.68769 11.7277 4.57502 11.5092C4.52479 11.4118 4.49733 11.3585 4.46094 11.3718C4.21221 12.0459 5.07112 12.6839 5.73485 13.177C5.75905 13.195 5.78299 13.2128 5.8066 13.2303C5.16277 13.0256 4.74367 12.5541 4.50282 12.2831C4.38681 12.1526 4.31215 12.0686 4.27365 12.0833C3.99794 12.1881 4.57696 12.9326 4.57696 12.9326C4.82001 13.1585 5.14464 13.3533 5.40088 13.4884C4.64411 13.1963 4.36663 12.9265 4.22702 12.7907C4.1583 12.7239 4.12298 12.6896 4.08035 12.701C3.83817 12.8852 4.50373 13.4496 4.65261 13.5712C4.47759 13.5044 4.35903 13.4479 4.2754 13.4081C4.17793 13.3617 4.12792 13.3379 4.09128 13.3466C3.90864 13.5949 4.79167 14.1351 4.79167 14.1351C4.8922 14.193 4.99989 14.2452 5.10868 14.2919C4.88434 14.206 4.67413 14.1082 4.51606 14.0347C4.3498 13.9574 4.24123 13.907 4.23457 13.9253C3.95127 14.2571 5.17756 14.8131 5.44775 14.7855L5.48326 14.7878C4.99866 15.2059 4.84519 15.6518 4.92382 15.6781C4.99376 15.7014 5.17472 15.5586 5.35826 15.4137C5.47862 15.3187 5.60009 15.2228 5.6921 15.1723C5.43689 15.6027 5.26458 16.1048 5.40969 16.1355C5.45115 16.1375 5.51807 16.0333 5.60792 15.8936C5.76633 15.6471 5.99601 15.2898 6.2831 15.2075C6.11055 15.5806 5.95197 16.0832 6.18651 16.3235C6.22604 16.3359 6.29511 16.1604 6.37583 15.9553C6.47409 15.7057 6.58961 15.4122 6.69014 15.3603C6.62901 15.825 6.73666 15.9337 6.78831 15.9384C6.87653 15.8942 7.03096 15.2545 7.20741 15.2159L6.77181 15.093C6.80821 14.9689 6.84274 14.8512 6.84274 14.8512L6.57252 14.9648L6.58977 14.9498L6.38294 14.8479C6.38484 14.8469 6.38669 14.8459 6.38848 14.845L6.40726 14.8462L6.40006 14.8389C6.41865 14.829 6.42929 14.8233 6.42929 14.8233L6.37484 14.8132L6.06988 14.5036L5.91807 13.9256C5.90314 13.9225 5.88833 13.9193 5.87366 13.9162L5.81696 13.6561L5.80672 13.2304C5.81403 13.2359 5.8213 13.2413 5.82854 13.2467L5.70966 12.6678C5.72572 12.6825 5.73471 12.6906 5.73471 12.6906L6.00918 12.3222L6.05461 12.3584L6.04327 12.2764L6.07747 12.2305C6.06262 12.2223 6.04796 12.214 6.03348 12.2056L5.98295 11.8401Z"/><path fill="#dfdfdf" d="M8.09178 14.5595C8.09178 14.5595 8.09178 14.193 7.91243 14.1774C7.62562 14.1614 7.33793 14.1771 7.05457 14.2242C6.02001 13.6066 6.83046 12.8132 6.68799 12.5397C6.64121 12.1185 5.94714 11.4868 5.94714 11.4868C5.87694 11.5493 5.96127 11.9424 5.90812 11.9158C5.76776 11.8456 5.85433 12.1546 5.81454 12.2355C5.68197 12.1887 5.68876 12.3894 5.72096 12.5397C5.61177 12.5553 5.65073 12.7424 5.67415 12.875C5.46005 12.7573 5.73895 13.2089 5.66633 13.1947C5.33881 13.1479 5.71314 13.5067 5.71314 13.5067C5.52597 13.5769 5.6134 13.7161 5.74438 13.7719C5.58057 13.8888 5.74824 14.0756 5.80672 14.0839C5.65855 14.1618 5.82344 14.2745 5.90809 14.3568C5.77552 14.4816 6.01728 14.5349 6.13431 14.5829C6.0407 14.7311 6.15075 14.7631 6.25125 14.8091C6.18887 14.9261 6.34238 14.9174 6.43839 14.9027C6.32145 15.0275 6.5164 15.0821 6.59438 15.0664C6.59438 15.0664 6.63599 15.2283 6.7738 15.1678C6.73484 15.2927 7.01559 15.2771 7.01559 15.2771C7.01559 15.402 7.42891 15.3551 7.42891 15.3551"/><path stroke="#000" stroke-width=".026" d="M8.09178 14.5595C8.09178 14.5595 8.09178 14.193 7.91243 14.1774C7.62562 14.1614 7.33793 14.1771 7.05457 14.2242C6.02001 13.6066 6.83046 12.8132 6.68799 12.5397C6.64121 12.1185 5.94714 11.4868 5.94714 11.4868C5.87694 11.5493 5.96127 11.9424 5.90812 11.9158C5.76776 11.8456 5.85433 12.1546 5.81454 12.2355C5.68197 12.1887 5.68876 12.3894 5.72096 12.5397C5.61177 12.5553 5.65073 12.7424 5.67415 12.875C5.46005 12.7573 5.73895 13.2089 5.66633 13.1947C5.33881 13.1479 5.71314 13.5067 5.71314 13.5067C5.52597 13.5769 5.6134 13.7161 5.74438 13.7719C5.58057 13.8888 5.74824 14.0756 5.80672 14.0839C5.65855 14.1618 5.82344 14.2745 5.90809 14.3568C5.77552 14.4816 6.01728 14.5349 6.13431 14.5829C6.0407 14.7311 6.15075 14.7631 6.25125 14.8091C6.18887 14.9261 6.34238 14.9174 6.43839 14.9027C6.32145 15.0275 6.5164 15.0821 6.59438 15.0664C6.59438 15.0664 6.63599 15.2283 6.7738 15.1678C6.73484 15.2927 7.01559 15.2771 7.01559 15.2771C7.01559 15.402 7.42891 15.3551 7.42891 15.3551"/><path fill="#eace24" fill-rule="evenodd" d="M16.784 12.863C16.784 12.863 16.93 12.739 16.955 12.599 16.964 12.545 16.952 12.486 16.934 12.433 16.943 12.443 16.953 12.452 16.964 12.461 17.021 12.511 17.203 12.538 17.203 12.538 17.203 12.538 17.103 12.408 17.077 12.351 17.071 12.337 17.065 12.323 17.059 12.31 17.041 12.273 17.025 12.24 17.016 12.201L16.555 12.201C16.546 12.24 16.53 12.274 16.512 12.311 16.506 12.324 16.5 12.337 16.494 12.351 16.468 12.408 16.368 12.538 16.368 12.538 16.368 12.538 16.55 12.511 16.607 12.461 16.616 12.453 16.625 12.445 16.634 12.437 16.616 12.489 16.604 12.546 16.613 12.599 16.637 12.739 16.784 12.863 16.784 12.863ZM16.565 12 17.006 12C17.011 11.924 17.025 11.846 17.052 11.8 17.068 11.773 17.109 11.741 17.14 11.742 17.171 11.743 17.213 11.753 17.228 11.781 17.242 11.816 17.249 11.853 17.247 11.891 17.242 11.931 17.196 12.014 17.196 12.014 17.196 12.014 17.361 11.98 17.416 11.936 17.471 11.893 17.53 11.811 17.548 11.742 17.567 11.679 17.567 11.613 17.548 11.55 17.524 11.489 17.487 11.435 17.439 11.39 17.334 11.297 17.131 11.324 17.09 11.347 17.081 11.352 17.072 11.358 17.063 11.364 17.083 11.336 17.11 11.297 17.126 11.257 17.142 11.213 17.149 11.167 17.149 11.12 17.149 11.074 17.141 11.03 17.127 10.987 17.106 10.93 17.068 10.882 17.018 10.849L16.972 10.82C16.931 10.795 16.9 10.775 16.886 10.766 16.83 10.729 16.793 10.618 16.785 10.594L16.784 10.59 16.782 10.594C16.774 10.618 16.737 10.729 16.681 10.766L16.675 10.77C16.652 10.785 16.608 10.814 16.552 10.849 16.502 10.882 16.464 10.93 16.443 10.987 16.429 11.03 16.421 11.074 16.421 11.12 16.421 11.167 16.428 11.213 16.444 11.257 16.46 11.296 16.487 11.335 16.506 11.363 16.498 11.357 16.489 11.352 16.481 11.347 16.44 11.324 16.237 11.297 16.132 11.39 16.084 11.435 16.047 11.489 16.023 11.55 16.004 11.613 16.004 11.679 16.023 11.742 16.041 11.811 16.1 11.893 16.155 11.936 16.21 11.98 16.375 12.014 16.375 12.014 16.375 12.014 16.329 11.931 16.324 11.891 16.322 11.853 16.329 11.816 16.343 11.781 16.358 11.753 16.4 11.743 16.431 11.742 16.462 11.741 16.503 11.773 16.519 11.8 16.546 11.846 16.56 11.924 16.565 12ZM14.009 12.863C14.009 12.863 14.155 12.739 14.179 12.599 14.189 12.545 14.176 12.486 14.158 12.433 14.168 12.443 14.178 12.452 14.189 12.461 14.246 12.511 14.427 12.538 14.427 12.538 14.427 12.538 14.327 12.408 14.302 12.351 14.296 12.337 14.289 12.323 14.283 12.31 14.266 12.273 14.25 12.24 14.24 12.201L13.78 12.201C13.77 12.24 13.754 12.274 13.737 12.311 13.731 12.324 13.725 12.337 13.718 12.351 13.693 12.408 13.593 12.538 13.593 12.538 13.593 12.538 13.775 12.511 13.831 12.461 13.841 12.453 13.85 12.445 13.858 12.437 13.841 12.489 13.828 12.546 13.838 12.599 13.862 12.739 14.009 12.863 14.009 12.863ZM13.789 12 14.231 12C14.236 11.924 14.249 11.846 14.277 11.8 14.293 11.773 14.333 11.741 14.365 11.742 14.395 11.743 14.438 11.753 14.452 11.781 14.467 11.816 14.473 11.853 14.471 11.891 14.467 11.931 14.421 12.014 14.421 12.014 14.421 12.014 14.585 11.98 14.641 11.936 14.696 11.893 14.755 11.811 14.772 11.742 14.792 11.679 14.791 11.613 14.772 11.55 14.748 11.489 14.711 11.435 14.663 11.39 14.559 11.297 14.356 11.324 14.314 11.347 14.306 11.352 14.297 11.358 14.288 11.364 14.307 11.336 14.335 11.297 14.35 11.257 14.366 11.213 14.374 11.167 14.373 11.12 14.373 11.074 14.366 11.03 14.352 10.987 14.331 10.93 14.292 10.882 14.242 10.849L14.196 10.82C14.156 10.795 14.125 10.775 14.111 10.766 14.055 10.729 14.018 10.618 14.01 10.594L14.008 10.59 14.007 10.594C13.999 10.618 13.962 10.729 13.906 10.766L13.899 10.77C13.877 10.785 13.833 10.814 13.777 10.849 13.727 10.882 13.688 10.93 13.668 10.987 13.653 11.03 13.646 11.074 13.646 11.12 13.645 11.167 13.653 11.213 13.669 11.257 13.684 11.296 13.711 11.335 13.731 11.363 13.722 11.357 13.714 11.352 13.706 11.347 13.664 11.324 13.461 11.297 13.357 11.39 13.309 11.435 13.272 11.489 13.248 11.55 13.229 11.613 13.229 11.679 13.248 11.742 13.265 11.811 13.325 11.893 13.38 11.936 13.435 11.98 13.599 12.014 13.599 12.014 13.599 12.014 13.553 11.931 13.549 11.891 13.547 11.853 13.553 11.816 13.568 11.781 13.582 11.753 13.625 11.743 13.656 11.742 13.687 11.741 13.727 11.773 13.744 11.8 13.771 11.846 13.785 11.924 13.789 12ZM11.233 12.863C11.233 12.863 11.379 12.739 11.404 12.599 11.413 12.545 11.4 12.486 11.382 12.433 11.392 12.443 11.402 12.452 11.413 12.461 11.47 12.511 11.651 12.538 11.651 12.538 11.651 12.538 11.552 12.408 11.526 12.351 11.52 12.337 11.513 12.323 11.507 12.31 11.49 12.273 11.474 12.24 11.465 12.201L11.004 12.201C10.994 12.24 10.978 12.274 10.961 12.311 10.955 12.324 10.949 12.337 10.942 12.351 10.917 12.408 10.817 12.538 10.817 12.538 10.817 12.538 10.999 12.511 11.055 12.461 11.065 12.453 11.074 12.445 11.083 12.437 11.065 12.489 11.053 12.546 11.062 12.599 11.086 12.739 11.233 12.863 11.233 12.863ZM11.014 12 11.455 12C11.46 11.924 11.473 11.846 11.501 11.8 11.517 11.773 11.557 11.741 11.589 11.742 11.619 11.743 11.662 11.753 11.677 11.781 11.691 11.816 11.697 11.853 11.695 11.891 11.691 11.931 11.645 12.014 11.645 12.014 11.645 12.014 11.809 11.98 11.865 11.936 11.92 11.893 11.979 11.811 11.997 11.742 12.016 11.679 12.016 11.613 11.996 11.55 11.972 11.489 11.935 11.435 11.887 11.39 11.783 11.297 11.58 11.324 11.538 11.347 11.53 11.352 11.521 11.358 11.512 11.364 11.531 11.336 11.559 11.297 11.574 11.257 11.59 11.213 11.598 11.167 11.597 11.12 11.597 11.074 11.59 11.03 11.576 10.987 11.555 10.93 11.517 10.882 11.466 10.849L11.42 10.82C11.38 10.795 11.349 10.775 11.335 10.766 11.279 10.729 11.242 10.618 11.234 10.594L11.233 10.59 11.231 10.594C11.223 10.618 11.186 10.729 11.13 10.766L11.123 10.77C11.101 10.785 11.057 10.814 11.001 10.849 10.951 10.882 10.912 10.93 10.892 10.987 10.877 11.03 10.87 11.074 10.87 11.12 10.869 11.167 10.877 11.213 10.893 11.257 10.909 11.296 10.935 11.335 10.955 11.363 10.946 11.357 10.938 11.352 10.93 11.347 10.888 11.324 10.686 11.297 10.581 11.39 10.533 11.435 10.496 11.489 10.472 11.55 10.453 11.613 10.453 11.679 10.472 11.742 10.489 11.811 10.549 11.893 10.604 11.936 10.659 11.98 10.823 12.014 10.823 12.014 10.823 12.014 10.777 11.931 10.773 11.891 10.771 11.853 10.777 11.816 10.792 11.781 10.806 11.753 10.849 11.743 10.88 11.742 10.911 11.741 10.951 11.773 10.968 11.8 10.995 11.846 11.009 11.924 11.014 12ZM13.224 19.418 13.149 19.493 13.224 19.568C13.224 19.609 13.231 19.641 13.231 19.683L14.785 19.683C14.785 19.64 14.791 19.608 14.791 19.568L14.866 19.493 14.791 19.418C14.791 19.22 14.786 19.012 14.816 18.809 14.819 18.809 14.823 18.81 14.826 18.81 14.838 18.811 14.85 18.81 14.861 18.805 14.873 18.801 14.883 18.794 14.891 18.785 14.899 18.776 14.905 18.765 14.908 18.754 14.911 18.742 14.912 18.73 14.91 18.718 14.907 18.706 14.903 18.695 14.895 18.686 14.888 18.676 14.879 18.668 14.868 18.663 14.86 18.659 14.852 18.657 14.844 18.656 14.875 18.513 14.919 18.375 14.981 18.247 14.945 18.237 14.907 18.236 14.871 18.246 14.834 18.257 14.802 18.277 14.777 18.305 14.751 18.333 14.735 18.367 14.728 18.404 14.722 18.441 14.726 18.48 14.741 18.514 14.714 18.502 14.684 18.495 14.655 18.496 14.625 18.496 14.595 18.503 14.569 18.516 14.542 18.529 14.519 18.548 14.5 18.572 14.482 18.595 14.469 18.623 14.463 18.652 14.456 18.681 14.456 18.711 14.463 18.74 14.47 18.769 14.483 18.796 14.502 18.819 14.52 18.842 14.544 18.861 14.571 18.874 14.598 18.887 14.627 18.893 14.657 18.893 14.671 18.893 14.685 18.892 14.698 18.889 14.683 19.023 14.615 19.125 14.532 19.125 14.468 19.125 14.412 19.064 14.384 18.975 14.355 19.064 14.299 19.125 14.235 19.125 14.146 19.125 14.073 19.007 14.066 18.858 14.092 18.876 14.121 18.887 14.152 18.892 14.183 18.896 14.214 18.893 14.244 18.883 14.273 18.873 14.3 18.856 14.322 18.833 14.343 18.811 14.36 18.784 14.369 18.754 14.378 18.725 14.381 18.693 14.376 18.663 14.371 18.632 14.358 18.603 14.34 18.578 14.322 18.552 14.298 18.532 14.27 18.518 14.242 18.503 14.212 18.496 14.181 18.496 14.198 18.466 14.207 18.431 14.207 18.396 14.207 18.362 14.198 18.327 14.18 18.297 14.163 18.267 14.138 18.242 14.107 18.225 14.077 18.207 14.043 18.198 14.008 18.198 13.973 18.198 13.939 18.207 13.909 18.225 13.879 18.242 13.854 18.267 13.836 18.297 13.819 18.327 13.809 18.362 13.809 18.396 13.809 18.431 13.818 18.466 13.836 18.496 13.805 18.496 13.774 18.504 13.746 18.518 13.719 18.532 13.695 18.552 13.676 18.578 13.658 18.603 13.646 18.632 13.641 18.663 13.636 18.693 13.638 18.725 13.648 18.754 13.657 18.784 13.673 18.811 13.695 18.833 13.717 18.856 13.743 18.872 13.773 18.883 13.802 18.893 13.833 18.896 13.864 18.891 13.895 18.887 13.924 18.876 13.95 18.858 13.943 19.007 13.87 19.125 13.781 19.125 13.717 19.125 13.662 19.064 13.633 18.975 13.604 19.064 13.548 19.125 13.485 19.125 13.402 19.125 13.333 19.023 13.318 18.889 13.332 18.892 13.346 18.893 13.36 18.893 13.39 18.893 13.419 18.887 13.446 18.874 13.473 18.861 13.496 18.842 13.515 18.819 13.533 18.796 13.547 18.769 13.553 18.74 13.56 18.711 13.56 18.681 13.554 18.652 13.547 18.622 13.534 18.595 13.516 18.572 13.498 18.548 13.474 18.529 13.448 18.516 13.421 18.503 13.392 18.496 13.362 18.496 13.332 18.495 13.303 18.502 13.276 18.514 13.29 18.48 13.294 18.441 13.288 18.404 13.282 18.367 13.265 18.333 13.24 18.305 13.215 18.277 13.182 18.257 13.146 18.246 13.11 18.236 13.071 18.237 13.035 18.247 13.097 18.375 13.142 18.513 13.173 18.655 13.164 18.656 13.155 18.659 13.148 18.663 13.137 18.668 13.127 18.676 13.12 18.686 13.113 18.695 13.108 18.706 13.106 18.718 13.103 18.73 13.104 18.742 13.107 18.754 13.111 18.765 13.116 18.776 13.125 18.785 13.133 18.794 13.143 18.801 13.154 18.805 13.165 18.81 13.177 18.811 13.189 18.81 13.193 18.81 13.197 18.809 13.2 18.809 13.23 19.013 13.224 19.221 13.224 19.418ZM11.656 17.659 11.581 17.734 11.656 17.81C11.656 17.85 11.664 17.882 11.664 17.924L13.217 17.924C13.217 17.881 13.223 17.849 13.223 17.809L13.299 17.734 13.223 17.659C13.223 17.461 13.218 17.253 13.248 17.05 13.252 17.051 13.255 17.051 13.258 17.051 13.27 17.053 13.282 17.051 13.294 17.046 13.305 17.042 13.315 17.035 13.323 17.026 13.331 17.017 13.337 17.007 13.34 16.995 13.343 16.984 13.344 16.971 13.342 16.96 13.34 16.948 13.335 16.937 13.327 16.927 13.32 16.917 13.311 16.91 13.3 16.904 13.292 16.9 13.284 16.898 13.276 16.897 13.307 16.754 13.351 16.617 13.413 16.488 13.377 16.478 13.339 16.477 13.303 16.488 13.266 16.498 13.234 16.518 13.209 16.546 13.184 16.574 13.167 16.608 13.16 16.646 13.154 16.683 13.158 16.721 13.173 16.756 13.146 16.743 13.116 16.737 13.087 16.737 13.057 16.737 13.028 16.744 13.001 16.757 12.974 16.771 12.951 16.79 12.932 16.813 12.914 16.836 12.901 16.864 12.895 16.893 12.888 16.922 12.889 16.952 12.895 16.981 12.902 17.01 12.915 17.037 12.934 17.06 12.952 17.083 12.976 17.102 13.003 17.115 13.03 17.128 13.059 17.135 13.089 17.135 13.103 17.135 13.117 17.133 13.13 17.13 13.115 17.264 13.047 17.366 12.964 17.366 12.9 17.366 12.845 17.306 12.816 17.216 12.787 17.306 12.731 17.366 12.667 17.366 12.578 17.366 12.506 17.249 12.499 17.099 12.524 17.117 12.554 17.129 12.584 17.133 12.615 17.137 12.647 17.134 12.676 17.124 12.705 17.114 12.732 17.097 12.754 17.075 12.776 17.052 12.792 17.025 12.801 16.996 12.81 16.966 12.813 16.934 12.808 16.904 12.803 16.873 12.791 16.844 12.772 16.819 12.754 16.794 12.73 16.773 12.702 16.759 12.675 16.745 12.644 16.737 12.613 16.737 12.63 16.707 12.639 16.672 12.639 16.638 12.639 16.603 12.63 16.569 12.612 16.538 12.595 16.508 12.57 16.483 12.54 16.466 12.509 16.448 12.475 16.439 12.44 16.439 12.405 16.439 12.371 16.448 12.341 16.466 12.311 16.483 12.286 16.508 12.268 16.538 12.251 16.569 12.242 16.603 12.241 16.638 12.241 16.672 12.251 16.707 12.268 16.737 12.237 16.737 12.206 16.745 12.178 16.759 12.151 16.773 12.127 16.794 12.109 16.819 12.09 16.844 12.078 16.873 12.073 16.904 12.068 16.934 12.07 16.966 12.08 16.996 12.089 17.025 12.105 17.052 12.127 17.074 12.149 17.097 12.175 17.114 12.205 17.124 12.234 17.134 12.265 17.137 12.296 17.133 12.327 17.128 12.357 17.117 12.382 17.099 12.375 17.249 12.302 17.366 12.213 17.366 12.15 17.366 12.094 17.306 12.065 17.216 12.036 17.306 11.981 17.366 11.917 17.366 11.834 17.366 11.765 17.264 11.75 17.13 11.764 17.133 11.778 17.135 11.792 17.135 11.822 17.135 11.851 17.128 11.878 17.115 11.905 17.102 11.928 17.083 11.947 17.06 11.966 17.037 11.979 17.01 11.985 16.981 11.992 16.952 11.992 16.922 11.986 16.893 11.979 16.864 11.967 16.836 11.948 16.813 11.93 16.79 11.906 16.771 11.88 16.757 11.853 16.744 11.824 16.737 11.794 16.737 11.764 16.737 11.735 16.743 11.708 16.756 11.722 16.721 11.727 16.683 11.72 16.646 11.714 16.608 11.697 16.574 11.672 16.546 11.647 16.518 11.614 16.498 11.578 16.488 11.542 16.477 11.503 16.478 11.467 16.488 11.53 16.617 11.574 16.754 11.605 16.897 11.596 16.898 11.588 16.9 11.58 16.904 11.569 16.909 11.56 16.917 11.552 16.927 11.545 16.936 11.54 16.948 11.538 16.959 11.536 16.971 11.536 16.983 11.539 16.995 11.543 17.007 11.549 17.017 11.557 17.026 11.565 17.035 11.575 17.042 11.586 17.046 11.597 17.051 11.609 17.053 11.621 17.052 11.625 17.051 11.629 17.051 11.632 17.05 11.662 17.254 11.656 17.462 11.656 17.659ZM14.808 17.659 14.733 17.734 14.808 17.81C14.808 17.85 14.816 17.882 14.816 17.924L16.369 17.924C16.369 17.881 16.375 17.849 16.375 17.809L16.45 17.734 16.375 17.659C16.375 17.461 16.37 17.253 16.4 17.05 16.404 17.051 16.407 17.051 16.41 17.051 16.422 17.053 16.434 17.051 16.445 17.046 16.457 17.042 16.467 17.035 16.475 17.026 16.483 17.017 16.489 17.007 16.492 16.995 16.495 16.984 16.496 16.971 16.494 16.96 16.492 16.948 16.487 16.937 16.479 16.927 16.472 16.917 16.463 16.91 16.452 16.904 16.444 16.9 16.436 16.898 16.428 16.897 16.459 16.754 16.503 16.617 16.565 16.488 16.529 16.478 16.491 16.477 16.455 16.488 16.418 16.498 16.386 16.518 16.361 16.546 16.335 16.574 16.319 16.608 16.312 16.646 16.306 16.683 16.31 16.721 16.325 16.756 16.298 16.743 16.268 16.737 16.239 16.737 16.209 16.737 16.18 16.744 16.153 16.757 16.126 16.771 16.103 16.79 16.084 16.813 16.066 16.836 16.053 16.864 16.047 16.893 16.04 16.922 16.04 16.952 16.047 16.981 16.054 17.01 16.067 17.037 16.086 17.06 16.104 17.083 16.128 17.102 16.155 17.115 16.182 17.128 16.211 17.135 16.241 17.135 16.255 17.135 16.269 17.133 16.282 17.13 16.267 17.264 16.199 17.366 16.116 17.366 16.052 17.366 15.997 17.306 15.968 17.216 15.939 17.306 15.883 17.366 15.819 17.366 15.73 17.366 15.658 17.249 15.65 17.099 15.676 17.117 15.706 17.129 15.736 17.133 15.767 17.137 15.799 17.134 15.828 17.124 15.857 17.114 15.884 17.097 15.906 17.075 15.928 17.052 15.944 17.025 15.953 16.996 15.962 16.966 15.965 16.934 15.96 16.904 15.955 16.873 15.943 16.844 15.924 16.819 15.906 16.794 15.882 16.773 15.854 16.759 15.827 16.745 15.796 16.737 15.765 16.737 15.782 16.707 15.791 16.672 15.791 16.638 15.791 16.603 15.782 16.569 15.764 16.538 15.747 16.508 15.722 16.483 15.692 16.466 15.661 16.448 15.627 16.439 15.592 16.439 15.557 16.439 15.523 16.448 15.493 16.466 15.463 16.483 15.438 16.508 15.42 16.538 15.403 16.569 15.394 16.603 15.393 16.638 15.393 16.672 15.402 16.707 15.42 16.737 15.389 16.737 15.358 16.745 15.33 16.759 15.303 16.773 15.279 16.794 15.261 16.819 15.242 16.844 15.23 16.873 15.225 16.904 15.22 16.934 15.222 16.966 15.232 16.996 15.241 17.025 15.257 17.052 15.279 17.074 15.301 17.097 15.327 17.114 15.357 17.124 15.386 17.134 15.417 17.137 15.448 17.133 15.479 17.128 15.508 17.117 15.534 17.099 15.527 17.249 15.454 17.366 15.365 17.366 15.301 17.366 15.246 17.306 15.217 17.216 15.188 17.306 15.133 17.366 15.069 17.366 14.986 17.366 14.917 17.264 14.902 17.13 14.916 17.133 14.93 17.135 14.944 17.135 14.974 17.135 15.003 17.128 15.03 17.115 15.057 17.102 15.08 17.083 15.099 17.06 15.117 17.037 15.131 17.01 15.137 16.981 15.144 16.952 15.144 16.922 15.138 16.893 15.131 16.864 15.119 16.836 15.1 16.813 15.082 16.79 15.058 16.771 15.032 16.757 15.005 16.744 14.976 16.737 14.946 16.737 14.916 16.737 14.887 16.743 14.86 16.756 14.874 16.721 14.879 16.683 14.872 16.646 14.866 16.608 14.849 16.574 14.824 16.546 14.799 16.518 14.766 16.498 14.73 16.488 14.694 16.477 14.655 16.478 14.619 16.488 14.682 16.617 14.726 16.754 14.757 16.897 14.748 16.898 14.74 16.9 14.732 16.904 14.721 16.909 14.712 16.917 14.704 16.927 14.697 16.936 14.692 16.948 14.69 16.959 14.688 16.971 14.688 16.983 14.691 16.995 14.695 17.007 14.701 17.017 14.709 17.026 14.717 17.035 14.727 17.042 14.738 17.046 14.749 17.051 14.761 17.053 14.773 17.052 14.777 17.051 14.781 17.051 14.784 17.05 14.814 17.254 14.808 17.462 14.808 17.659Z"/></svg>