<svg xmlns="http://www.w3.org/2000/svg" fill="none" viewBox="0 0 39.15 30.667" focusable="false"><defs><filter id="Saint_Kitts_and_Nevis_svg__a"><feColorMatrix values="0 0 0 0 1 0 0 0 0 1 0 0 0 0 1 0 0 0 1 0"/></filter></defs><mask id="Saint_Kitts_and_Nevis_svg__b" width="28" height="20" x="5.575" y="5.333" maskUnits="userSpaceOnUse"><g filter="url(#Saint_Kitts_and_Nevis_svg__a)"><rect width="28" height="20" x="5.575" y="5.333" fill="#fff" rx="3"/><rect width="28" height="20" x="5.575" y="5.333" stroke="#969696" stroke-opacity="0" stroke-width="0" rx="3"/></g></mask><path fill="none" d="M5.575 1.333H33.575V29.333H5.575z"/><rect width="28" height="20" x="5.575" y="5.333" fill="#fff" rx="3"/><rect width="28" height="20" x="5.575" y="5.333" rx="3"/><g mask="url(#Saint_Kitts_and_Nevis_svg__b)"><path fill="#1ec160" fill-rule="evenodd" d="M5.57512 18.6667L33.5751 5.33339L5.57512 5.33339L5.57512 18.6667Z"/><path d="M33.5751 5.33339L5.57512 5.33339L5.57512 18.6667L33.5751 5.33339Z"/><path fill="#df2a40" fill-rule="evenodd" d="M5.57512 25.3333L33.5751 25.3333L33.5751 12L5.57512 25.3333Z"/><path d="M33.5751 25.3333L33.5751 12L5.57512 25.3333L33.5751 25.3333Z"/><path fill="#ffd956" fill-rule="evenodd" d="M6.35902 30.6668L39.1502 10.1766L32.7912 1.52588e-05L-1.52588e-05 20.4902L6.35902 30.6668Z"/><path d="M39.1502 10.1766L32.7912 1.52588e-05L-1.52588e-05 20.4902L6.35902 30.6668L39.1502 10.1766Z"/><path fill="#262626" fill-rule="evenodd" d="M4.94593 28.4054L37.7371 7.91514L34.2043 2.26149L1.41313 22.7517L4.94593 28.4054Z"/><path d="M37.7371 7.91514L34.2043 2.26149L1.41313 22.7517L4.94593 28.4054L37.7371 7.91514Z"/><path fill="#fff" fill-rule="evenodd" d="M25.8845 13.1309L24.9391 14.6282L24.3256 12.967L22.6094 12.5306L23.9998 11.4338L23.8845 9.66676L25.3572 10.6501L27.0022 9.99444L26.522 11.6989L27.6539 13.0608L25.8845 13.1309Z"/><path d="M24.9391 14.6282L24.3256 12.967L22.6094 12.5306L23.9998 11.4338L23.8845 9.66676L25.3572 10.6501L27.0022 9.99444L26.522 11.6989L27.6539 13.0608L25.8845 13.1309L24.9391 14.6282Z"/><path fill="#fff" fill-rule="evenodd" d="M15.2179 19.5975L14.2724 21.0949L13.659 19.4337L11.9428 18.9973L13.3331 17.9005L13.2179 16.1334L14.6906 17.1168L16.3355 16.4611L15.8554 18.1656L16.9873 19.5275L15.2179 19.5975Z"/><path d="M14.2724 21.0949L13.659 19.4337L11.9428 18.9973L13.3331 17.9005L13.2179 16.1334L14.6906 17.1168L16.3355 16.4611L15.8554 18.1656L16.9873 19.5275L15.2179 19.5975L14.2724 21.0949Z"/></g></svg>