<svg xmlns="http://www.w3.org/2000/svg" fill="none" viewBox="0 0 28 28" focusable="false"><path fill="none" d="M0 0H28V28H0z" transform="matrix(-1 0 0 -1 28 28)"/><rect width="28" height="20" y="4" fill="#fff" rx="3"/><rect width="27.5" height="19.5" x=".25" y="4.25" stroke="#f5f5f5" stroke-width=".5" rx="2.75"/><path fill="#003787" fill-rule="evenodd" d="M0.0212793 17.3592C0.00722856 17.2414 0 17.1215 0 17L0 3C0 1.34315 1.34315 0 3 0L12 0L12 7.00692L0.0212793 17.3592ZM16 0L25 0C26.6569 0 28 1.34315 28 3L28 17C28 17.1215 27.9928 17.2414 27.9787 17.3592L16 7.00692L16 0Z" transform="matrix(-1 0 0 -1 28 24)"/><path fill="none" d="M0.5 16.9455L0.0212793 17.3592C0.00722856 17.2414 0 17.1215 0 17L0 3C0 1.34315 1.34315 0 3 0L12 0L12 7.00692L0.5 16.9455ZM0.5 16.2846L11.5 6.77819L11.5 0.5L3 0.5Q2.48223 0.5 2.04029 0.683059Q1.59835 0.866117 1.23223 1.23223Q0.866118 1.59835 0.683059 2.04029Q0.5 2.48223 0.5 3L0.5 16.2846ZM16 0L16 7.00692L27.5 16.9455L27.9787 17.3592C27.9928 17.2414 28 17.1215 28 17L28 3C28 1.34315 26.6569 0 25 0L16 0ZM16.5 0.5L16.5 6.77819L27.5 16.2846L27.5 3Q27.5 2.48223 27.3169 2.04029Q27.1339 1.59835 26.7678 1.23223Q26.4017 0.866117 25.9597 0.683058Q25.5178 0.5 25 0.5L16.5 0.5Z" transform="matrix(-1 0 0 -1 28 24)"/><path fill="#cf142b" d="M8 12L20 12L14 17L8 12Z"/><path fill="#f9d90f" fill-rule="evenodd" d="M14 8C12.3431 8 11 9.34315 11 11L17 11C17 9.34315 15.6569 8 14 8Z"/></svg>