<svg xmlns="http://www.w3.org/2000/svg" fill="none" viewBox="0 0 29.333 28" focusable="false"><defs><filter id="Samoa_svg__a"><feColorMatrix values="0 0 0 0 1 0 0 0 0 1 0 0 0 0 1 0 0 0 1 0"/></filter></defs><mask id="Samoa_svg__b" width="28" height="20" x="1.333" y="4" maskUnits="userSpaceOnUse"><g filter="url(#Samoa_svg__a)"><rect width="28" height="20" x="1.333" y="4" fill="#fff" rx="3"/><rect width="28" height="20" x="1.333" y="4" stroke="#969696" stroke-opacity="0" stroke-width="0" rx="3"/></g></mask><path fill="none" d="M1.333 0H29.333V28H1.333z"/><rect width="28" height="20" x="1.333" y="4" fill="#fff" rx="3"/><rect width="28" height="20" x="1.333" y="4" rx="3"/><g mask="url(#Samoa_svg__b)"><path fill="#e31f37" d="M1.333 4H29.333V24H1.333z"/><path d="M1.333 4H29.333V24H1.333z"/><path fill="#083b9a" fill-rule="evenodd" d="M0 14.6666L16 14.6666L16 2.66663L0 2.66663L0 14.6666Z"/><path d="M16 14.6666L16 2.66663L0 2.66663L0 14.6666L16 14.6666Z"/><path fill="#fff" fill-rule="evenodd" d="M7.99998 6.6666L7.05717 6.94275L7.33331 5.99994L7.05717 5.05713L7.99998 5.33327L8.94279 5.05713L8.66665 5.99994L8.94279 6.94275L7.99998 6.6666ZM11.3333 9.33327L10.3905 9.60941L10.6666 8.6666L10.3905 7.7238L11.3333 7.99994L12.2761 7.7238L12 8.6666L12.2761 9.60941L11.3333 9.33327ZM5.33331 9.99994L4.3905 10.2761L4.66665 9.33327L4.3905 8.39046L5.33331 8.6666L6.27612 8.39046L5.99998 9.33327L6.27612 10.2761L5.33331 9.99994ZM9.99998 10.9999C9.99998 11.184 9.85074 11.3333 9.66665 11.3333C9.48255 11.3333 9.33331 11.184 9.33331 10.9999C9.33331 10.8158 9.48255 10.6666 9.66665 10.6666C9.85074 10.6666 9.99998 10.8158 9.99998 10.9999ZM7.05717 13.6094L7.99998 13.3333L8.94279 13.6094L8.66665 12.6666L8.94279 11.7238L7.99998 11.9999L7.05717 11.7238L7.33331 12.6666L7.05717 13.6094Z"/><path d="M7.99998 6.6666L7.05717 6.94275L7.33331 5.99994L7.05717 5.05713L7.99998 5.33327L8.94279 5.05713L8.66665 5.99994L8.94279 6.94275L7.99998 6.6666ZM11.3333 9.33327L10.3905 9.60941L10.6666 8.6666L10.3905 7.7238L11.3333 7.99994L12.2761 7.7238L12 8.6666L12.2761 9.60941L11.3333 9.33327ZM5.33331 9.99994L4.3905 10.2761L4.66665 9.33327L4.3905 8.39046L5.33331 8.6666L6.27612 8.39046L5.99998 9.33327L6.27612 10.2761L5.33331 9.99994ZM9.99998 10.9999C9.99998 11.184 9.85074 11.3333 9.66665 11.3333C9.48255 11.3333 9.33331 11.184 9.33331 10.9999C9.33331 10.8158 9.48255 10.6666 9.66665 10.6666C9.85074 10.6666 9.99998 10.8158 9.99998 10.9999ZM7.05717 13.6094L7.99998 13.3333L8.94279 13.6094L8.66665 12.6666L8.94279 11.7238L7.99998 11.9999L7.05717 11.7238L7.33331 12.6666L7.05717 13.6094Z"/></g></svg>