<svg xmlns="http://www.w3.org/2000/svg" fill="none" viewBox="0 0 31.535 28" focusable="false"><defs><linearGradient id="Solomon_Islands_svg__c" x1="2.774" x2="2.774" y1="4" y2="24" gradientUnits="userSpaceOnUse"><stop offset="0" stop-color="#1cbd4f"/><stop offset="1" stop-color="#159b3f"/></linearGradient><linearGradient id="Solomon_Islands_svg__e" x1="2.774" x2="2.774" y1="4" y2="24" gradientUnits="userSpaceOnUse"><stop offset="0" stop-color="#065fd4"/><stop offset="1" stop-color="#0051bb"/></linearGradient><filter id="Solomon_Islands_svg__a"><feColorMatrix values="0 0 0 0 1 0 0 0 0 1 0 0 0 0 1 0 0 0 1 0"/></filter><filter id="Solomon_Islands_svg__d" width="28" height="20" x="2.774" y="4" color-interpolation-filters="sRGB" filterUnits="userSpaceOnUse"><feFlood flood-opacity="0" result="BackgroundImageFix"/><feOffset in="SourceAlpha"/><feColorMatrix values="0 0 0 0 0 0 0 0 0 0 0 0 0 0 0 0 0 0 0.06 0"/><feBlend in2="BackgroundImageFix" result="effect_dropShadow_1"/><feBlend in="SourceGraphic" in2="effect_dropShadow_1" result="shape"/></filter></defs><mask id="Solomon_Islands_svg__b" width="28" height="20" x="2.774" y="4" maskUnits="userSpaceOnUse"><g filter="url(#Solomon_Islands_svg__a)"><rect width="28" height="20" x="2.774" y="4" fill="#fff" rx="3"/><rect width="28" height="20" x="2.774" y="4" stroke="#969696" stroke-opacity="0" stroke-width="0" rx="3"/></g></mask><path fill="none" d="M2.774 0H30.774V28H2.774z"/><rect width="28" height="20" x="2.774" y="4" fill="#fff" rx="3"/><rect width="28" height="20" x="2.774" y="4" rx="3"/><g mask="url(#Solomon_Islands_svg__b)"><path fill="url(#Solomon_Islands_svg__c)" d="M2.774 4H30.774V24H2.774z"/><path d="M2.774 4H30.774V24H2.774z"/><g filter="url(#Solomon_Islands_svg__d)"><path fill="url(#Solomon_Islands_svg__e)" fill-rule="evenodd" d="M2.77365 4L30.7737 4L2.77365 24L2.77365 4Z"/><path d="M30.7737 4L2.77365 24L2.77365 4L30.7737 4Z"/></g><path fill="#2c7442" fill-rule="evenodd" d="M0 0L28 20L0 20L0 0Z" transform="matrix(-1 0 0 1 30.774 4)"/><path d="M28 20L0 20L0 0L28 20Z" transform="matrix(-1 0 0 1 30.774 4)"/><path fill="#ffd646" d="M0 0H36.775V1.873H0z" transform="rotate(-34 38.769 11.853)"/><path d="M0 0H36.775V1.873H0z" transform="rotate(-34 38.769 11.853)"/><path fill="#fff" fill-rule="evenodd" d="M4.98112 7.25756L4.79402 8.3484L5.77366 7.83337L6.7533 8.3484L6.56621 7.25756L7.35876 6.48501L6.26348 6.32586L5.77366 5.33337L5.28384 6.32586L4.18857 6.48501L4.98112 7.25756ZM11.6478 7.25756L11.4607 8.3484L12.4403 7.83337L13.42 8.3484L13.2329 7.25756L14.0254 6.48501L12.9302 6.32586L12.4403 5.33337L11.9505 6.32586L10.8552 6.48501L11.6478 7.25756ZM8.12735 10.3484L8.31445 9.25756L7.5219 8.48501L8.61717 8.32586L9.107 7.33337L9.59682 8.32586L10.6921 8.48501L9.89954 9.25756L10.0866 10.3484L9.107 9.83337L8.12735 10.3484ZM4.79402 12.3484L4.98112 11.2576L4.18857 10.485L5.28384 10.3259L5.77366 9.33337L6.26348 10.3259L7.35876 10.485L6.56621 11.2576L6.7533 12.3484L5.77366 11.8334L4.79402 12.3484ZM11.4607 12.3484L11.6478 11.2576L10.8552 10.485L11.9505 10.3259L12.4403 9.33337L12.9302 10.3259L14.0254 10.485L13.2329 11.2576L13.42 12.3484L12.4403 11.8334L11.4607 12.3484Z"/><path d="M4.98112 7.25756L4.79402 8.3484L5.77366 7.83337L6.7533 8.3484L6.56621 7.25756L7.35876 6.48501L6.26348 6.32586L5.77366 5.33337L5.28384 6.32586L4.18857 6.48501L4.98112 7.25756ZM11.6478 7.25756L11.4607 8.3484L12.4403 7.83337L13.42 8.3484L13.2329 7.25756L14.0254 6.48501L12.9302 6.32586L12.4403 5.33337L11.9505 6.32586L10.8552 6.48501L11.6478 7.25756ZM8.12735 10.3484L8.31445 9.25756L7.5219 8.48501L8.61717 8.32586L9.107 7.33337L9.59682 8.32586L10.6921 8.48501L9.89954 9.25756L10.0866 10.3484L9.107 9.83337L8.12735 10.3484ZM4.79402 12.3484L4.98112 11.2576L4.18857 10.485L5.28384 10.3259L5.77366 9.33337L6.26348 10.3259L7.35876 10.485L6.56621 11.2576L6.7533 12.3484L5.77366 11.8334L4.79402 12.3484ZM11.4607 12.3484L11.6478 11.2576L10.8552 10.485L11.9505 10.3259L12.4403 9.33337L12.9302 10.3259L14.0254 10.485L13.2329 11.2576L13.42 12.3484L12.4403 11.8334L11.4607 12.3484Z"/></g></svg>