<svg xmlns="http://www.w3.org/2000/svg" fill="none" viewBox="0 0 29.333 28" focusable="false"><defs><filter id="South_Africa_svg__a"><feColorMatrix values="0 0 0 0 1 0 0 0 0 1 0 0 0 0 1 0 0 0 1 0"/></filter></defs><mask id="South_Africa_svg__b" width="28" height="20" x="1.333" y="4" maskUnits="userSpaceOnUse"><g filter="url(#South_Africa_svg__a)"><rect width="28" height="20" x="1.333" y="4" fill="#06a86e" rx="3"/><rect width="28" height="20" x="1.333" y="4" stroke="#969696" stroke-opacity="0" stroke-width="0" rx="3"/></g></mask><path fill="none" d="M1.333 0H29.333V28H1.333z"/><rect width="28" height="20" x="1.333" y="4" fill="#06a86e" rx="3"/><rect width="28" height="20" x="1.333" y="4" rx="3"/><g mask="url(#South_Africa_svg__b)"><path fill="#ffbf2e" fill-rule="evenodd" d="M1.33333 6.66663L10.6667 14L1.33333 21.3333L1.33333 6.66663Z"/><path d="M10.6667 14L1.33333 21.3333L1.33333 6.66663L10.6667 14Z"/><path fill="#262626" fill-rule="evenodd" d="M1.52588e-05 7L9.00002 14L1.52588e-05 21L1.52588e-05 7Z"/><path d="M9.00002 14L1.52588e-05 21L1.52588e-05 7L9.00002 14Z"/><path fill="#fff" fill-rule="evenodd" d="M13.3333 12L4.00002 4L29.3333 4L29.3333 12L13.3333 12Z"/><path d="M4.00002 4L29.3333 4L29.3333 12L13.3333 12L4.00002 4Z"/><path fill="#f44e46" fill-rule="evenodd" d="M13.6666 10.6667L5.66664 4L29.3333 4L29.3333 10.6667L13.6666 10.6667Z"/><path d="M5.66664 4L29.3333 4L29.3333 10.6667L13.6666 10.6667L5.66664 4Z"/><path fill="#fff" fill-rule="evenodd" d="M4.00002 24L29.3333 24L29.3333 16L13.3333 16L4.00002 24Z"/><path d="M29.3333 24L29.3333 16L13.3333 16L4.00002 24L29.3333 24Z"/><path fill="#072cb4" fill-rule="evenodd" d="M5.66664 24L29.3333 24L29.3333 17.3334L13.6666 17.3334L5.66664 24Z"/><path d="M29.3333 24L29.3333 17.3334L13.6666 17.3334L5.66664 24L29.3333 24Z"/></g></svg>