<svg xmlns="http://www.w3.org/2000/svg" fill="none" viewBox="0 0 30.667 28" focusable="false"><defs><filter id="Taiwan_svg__a"><feColorMatrix values="0 0 0 0 1 0 0 0 0 1 0 0 0 0 1 0 0 0 1 0"/></filter></defs><mask id="Taiwan_svg__b" width="28" height="20" x="1.333" y="4" maskUnits="userSpaceOnUse"><g filter="url(#Taiwan_svg__a)"><rect width="28" height="20" x="1.333" y="4" fill="#fff" rx="3"/><rect width="28" height="20" x="1.333" y="4" stroke="#969696" stroke-opacity="0" stroke-width="0" rx="3"/></g></mask><path fill="none" d="M1.333 0H29.333V28H1.333z"/><rect width="28" height="20" x="1.333" y="4" fill="#fff" rx="3"/><rect width="28" height="20" x="1.333" y="4" rx="3"/><g mask="url(#Taiwan_svg__b)"><path fill="#fe3030" fill-rule="evenodd" d="M1.52588e-05 25.3333L30.6667 25.3333L30.6667 2.66663L1.52588e-05 2.66663L1.52588e-05 25.3333Z"/><path d="M30.6667 25.3333L30.6667 2.66663L1.52588e-05 2.66663L1.52588e-05 25.3333L30.6667 25.3333Z"/><path fill="#0909b6" fill-rule="evenodd" d="M1.52588e-05 14.6666L16 14.6666L16 2.66663L1.52588e-05 2.66663L1.52588e-05 14.6666Z"/><path d="M16 14.6666L16 2.66663L1.52588e-05 2.66663L1.52588e-05 14.6666L16 14.6666Z"/><path fill="#fff" fill-rule="evenodd" d="M8.66666 11L7.39105 12.4129L7.48815 10.5118L5.58706 10.6089L6.99999 9.33333L5.58706 8.05772L7.48815 8.15482L7.39105 6.25374L8.66666 7.66667L9.94227 6.25374L9.84517 8.15482L11.7463 8.05772L10.3333 9.33333L11.7463 10.6089L9.84517 10.5118L9.94227 12.4129L8.66666 11Z"/><path d="M7.39105 12.4129L7.48815 10.5118L5.58706 10.6089L6.99999 9.33333L5.58706 8.05772L7.48815 8.15482L7.39105 6.25374L8.66666 7.66667L9.94227 6.25374L9.84517 8.15482L11.7463 8.05772L10.3333 9.33333L11.7463 10.6089L9.84517 10.5118L9.94227 12.4129L8.66666 11L7.39105 12.4129Z"/></g></svg>