<svg xmlns="http://www.w3.org/2000/svg" fill="none" viewBox="0 0 36.324 28" focusable="false"><defs><filter id="Tanzania_svg__a"><feColorMatrix values="0 0 0 0 1 0 0 0 0 1 0 0 0 0 1 0 0 0 1 0"/></filter></defs><mask id="Tanzania_svg__b" width="28" height="20" x="4.162" y="4" maskUnits="userSpaceOnUse"><g filter="url(#Tanzania_svg__a)"><rect width="28" height="20" x="4.162" y="4" fill="#fff" rx="3"/><rect width="28" height="20" x="4.162" y="4" stroke="#969696" stroke-opacity="0" stroke-width="0" rx="3"/></g></mask><path fill="none" d="M4.162 0H32.162V28H4.162z"/><rect width="28" height="20" x="4.162" y="4" fill="#fff" rx="3"/><rect width="28" height="20" x="4.162" y="4" rx="3"/><g mask="url(#Tanzania_svg__b)"><path fill="#33cc4d" fill-rule="evenodd" d="M4.16199 17.3333L32.162 4L4.16199 4L4.16199 17.3333Z"/><path d="M32.162 4L4.16199 4L4.16199 17.3333L32.162 4Z"/><path fill="#2dafe4" fill-rule="evenodd" d="M4.16199 24L32.162 24L32.162 10.6666L4.16199 24Z"/><path d="M32.162 24L32.162 10.6666L4.16199 24L32.162 24Z"/><path fill="#ffd84f" fill-rule="evenodd" d="M7.24438 26.6666L34.3327 9.73998L29.0796 1.33325L1.99127 18.2599L7.24438 26.6666Z"/><path d="M34.3327 9.73998L29.0796 1.33325L1.99127 18.2599L7.24438 26.6666L34.3327 9.73998Z"/><path fill="#262626" fill-rule="evenodd" d="M3.5328 27.072L36.324 6.58175L32.7912 0.928101L0 21.4183L3.5328 27.072Z"/><path d="M36.324 6.58175L32.7912 0.928101L0 21.4183L3.5328 27.072L36.324 6.58175Z"/></g></svg>