<svg xmlns="http://www.w3.org/2000/svg" fill="none" mask="url(#Tokelau_svg__a)" viewBox="0 0 28 28" focusable="false"><defs><filter id="Tokelau_svg__b"><feColorMatrix values="0 0 0 0 1 0 0 0 0 1 0 0 0 0 1 0 0 0 1 0"/></filter></defs><mask id="Tokelau_svg__a" width="28" height="20" x="0" y="4" maskUnits="userSpaceOnUse"><g filter="url(#Tokelau_svg__b)"><rect width="28" height="20" y="4" fill="#062365" rx="3"/></g></mask><path fill="none" d="M0 0H28V28H0z"/><path fill="#062365" d="M0 4H28V24H0z"/><path fill="#f8d147" fill-rule="evenodd" d="M26.052 20.064 5.545 19.846C5.159 19.623 5.384 19.401 5.545 19.318L25.897 19.489 26.425 19.815 26.052 20.064ZM26.472 19.209 5.685 19.038C6.856 18.426 9.501 16.686 11.235 15.182 12.992 13.658 19.227 9.678 22.585 8.263 18.698 12.15 23.362 19.085 26.472 19.085L26.472 19.209Z"/><path fill="#fff" fill-rule="evenodd" d="M6.067 8.644 6.597 8.644 6.168 8.956 6.332 9.461 5.902 9.149 5.473 9.461 5.637 8.956 5.208 8.644 5.738 8.644 5.902 8.139 6.067 8.644ZM6.088 16.887 6.686 16.887 6.202 17.238 6.387 17.808 5.903 17.456 5.418 17.808 5.603 17.238 5.119 16.887 5.718 16.887 5.903 16.317 6.088 16.887ZM2.895 11.816 3.426 11.816 2.996 12.128 3.16 12.633 2.731 12.321 2.301 12.633 2.465 12.128 2.036 11.816 2.567 11.816 2.731 11.311 2.895 11.816ZM8.768 11.055 9.186 11.055 8.848 11.301 8.977 11.698 8.639 11.453 8.301 11.698 8.43 11.301 8.092 11.055 8.51 11.055 8.639 10.658 8.768 11.055Z"/></svg>