<svg xmlns="http://www.w3.org/2000/svg" fill="none" viewBox="0 0 29.961 33.906" focusable="false"><defs><filter id="Trinidad_and_Tobago_svg__a"><feColorMatrix values="0 0 0 0 1 0 0 0 0 1 0 0 0 0 1 0 0 0 1 0"/></filter></defs><mask id="Trinidad_and_Tobago_svg__b" width="28" height="20" x=".981" y="6.953" maskUnits="userSpaceOnUse"><g filter="url(#Trinidad_and_Tobago_svg__a)"><rect width="28" height="20" x=".981" y="6.953" fill="#fff" rx="3"/><rect width="28" height="20" x=".981" y="6.953" stroke="#969696" stroke-opacity="0" stroke-width="0" rx="3"/></g></mask><path fill="none" d="M.981 2.953H28.981V30.953H.981z"/><rect width="28" height="20" x=".981" y="6.953" fill="#fff" rx="3"/><rect width="28" height="20" x=".981" y="6.953" rx="3"/><g mask="url(#Trinidad_and_Tobago_svg__b)"><path fill="#ed233c" d="M.981 6.953H28.981V26.953H.981z"/><path d="M.981 6.953H28.981V26.953H.981z"/><path fill="#fff" fill-rule="evenodd" d="M7.59382 30.8409L28.1257 6.37197L20.5319 0L0 24.469L7.59382 30.8409Z" transform="matrix(-1 0 0 1 29.044 1.532)"/><path d="M28.1257 6.37197L20.5319 0L0 24.469L7.59382 30.8409L28.1257 6.37197Z" transform="matrix(-1 0 0 1 29.044 1.532)"/><path fill="#262626" fill-rule="evenodd" d="M5.10696 33.9056L29.9614 4.28525L24.8545 0L0 29.6204L5.10696 33.9056Z" transform="matrix(-1 0 0 1 29.961 0)"/><path d="M29.9614 4.28525L24.8545 0L0 29.6204L5.10696 33.9056L29.9614 4.28525Z" transform="matrix(-1 0 0 1 29.961 0)"/></g></svg>