<svg xmlns="http://www.w3.org/2000/svg" fill="none" viewBox="0 0 29.802 28" focusable="false"><defs><filter id="Tuvalu_svg__a"><feColorMatrix values="0 0 0 0 1 0 0 0 0 1 0 0 0 0 1 0 0 0 1 0"/></filter></defs><mask id="Tuvalu_svg__b" width="28" height="20" x="1.802" y="4" maskUnits="userSpaceOnUse"><g filter="url(#Tuvalu_svg__a)"><rect width="28" height="20" x="1.802" y="4" fill="#fff" rx="3"/><rect width="28" height="20" x="1.802" y="4" stroke="#969696" stroke-opacity="0" stroke-width="0" rx="3"/></g></mask><path fill="none" d="M1.802 0H29.802V28H1.802z"/><rect width="28" height="20" x="1.802" y="4" fill="#fff" rx="3"/><rect width="28" height="20" x="1.802" y="4" rx="3"/><g mask="url(#Tuvalu_svg__b)"><path fill="#52b3eb" d="M1.802 4H29.802V24H1.802z"/><path d="M1.802 4H29.802V24H1.802z"/><path fill="#062365" d="M1.802 3.991H14.450999999999999V14H1.802z"/><path d="M1.802 3.991H14.450999999999999V14H1.802z"/><path fill="#db1e36" fill-rule="evenodd" d="M6.46884 8L1.80217 4L2.46884 4L7.1355 7.33333L8.46884 7.33333L13.8022 4L13.8022 4.49513C13.8022 4.60278 13.7502 4.7038 13.6626 4.76637L9.1355 8L9.1355 9.33333L13.3496 12.9455C13.5051 13.0787 13.4109 13.3333 13.2062 13.3333L13.2062 13.3333C13.1602 13.3333 13.1154 13.319 13.078 13.2923L8.46884 10L7.1355 10L1.80217 13.3333L1.80217 12.6667L6.46884 9.33333L6.46884 8Z"/><path fill="#fff" fill-rule="evenodd" d="M2.68248 3.33333L-1.78814e-06 3.33333L5.80217 8.30662L5.80217 8.99026L1.1355 12.3236L1.1355 14.5362L7.3267 10.6667L8.25519 10.6667L12.6905 13.8348C12.7676 13.8898 12.8492 13.9311 12.9351 13.9587C13.021 13.9862 13.1114 14 13.2062 14C13.3096 14 13.4074 13.9839 13.4996 13.9518C13.5817 13.9232 13.6593 13.882 13.7325 13.828C13.8007 13.7777 13.8596 13.7203 13.9093 13.6558C13.9631 13.5858 14.0061 13.5074 14.0382 13.4206C14.0703 13.3339 14.0887 13.2464 14.0933 13.1582C14.0976 13.0769 14.0902 12.995 14.0712 12.9125C14.0508 12.8238 14.0187 12.742 13.975 12.6669C13.9259 12.5824 13.862 12.5066 13.7835 12.4393L9.80217 9.02671L9.80217 8.34308L14.0501 5.30886C14.1158 5.26194 14.1743 5.2088 14.2256 5.14944C14.2769 5.09008 14.3211 5.0245 14.358 4.95271C14.395 4.88091 14.4227 4.80688 14.4411 4.7306C14.4596 4.65435 14.4688 4.57586 14.4688 4.49513L14.4688 2.79717L8.27764 6.66667L7.34915 6.66667L2.68248 3.33333ZM7.1355 7.33333L4.6152 5.53312L2.46884 4L1.80217 4L2.21567 4.35443L2.46884 4.57143L6.46884 8L6.46884 9.33333L3.14055 11.7107L1.80217 12.6667L1.80217 13.3333L2.13139 13.1276L2.46884 12.9167L3.51133 12.2651L7.1355 10L8.46884 10L10.9891 11.8002L12.7622 13.0667L13.078 13.2923C13.1154 13.319 13.1602 13.3333 13.2062 13.3333C13.4109 13.3333 13.5051 13.0787 13.3496 12.9455L13.0551 12.693L11.4006 11.2749L9.1355 9.33333L9.1355 8L12.4638 5.62266L13.6626 4.76637C13.7502 4.7038 13.8022 4.60278 13.8022 4.49513L13.8022 4L13.1449 4.41077L13.1355 4.41667L12.093 5.06821L8.46884 7.33333L7.1355 7.33333Z"/><path fill="#fff" fill-rule="evenodd" d="M1.80217 7.33333L1.80217 10L6.46884 10L6.46884 13.3333C6.46884 13.7015 6.76731 14 7.1355 14L8.46884 14C8.83703 14 9.1355 13.7015 9.1355 13.3333L9.1355 10L13.8022 10C14.1704 10 14.4688 9.70152 14.4688 9.33333L14.4688 8C14.4688 7.63181 14.1704 7.33333 13.8022 7.33333L9.1355 7.33333L9.1355 4L6.46884 4L6.46884 7.33333L1.80217 7.33333Z"/><path d="M1.80217 10L6.46884 10L6.46884 13.3333C6.46884 13.7015 6.76731 14 7.1355 14L8.46884 14C8.83703 14 9.1355 13.7015 9.1355 13.3333L9.1355 10L13.8022 10C14.1704 10 14.4688 9.70152 14.4688 9.33333L14.4688 8C14.4688 7.63181 14.1704 7.33333 13.8022 7.33333L9.1355 7.33333L9.1355 4L6.46884 4L6.46884 7.33333L1.80217 7.33333L1.80217 10Z"/><path fill="#db1e36" fill-rule="evenodd" d="M1.80217 8L7.1355 8L7.1355 7.33333L7.1355 4L8.46884 4L8.46884 7.33333L8.46884 8L13.8022 8L13.8022 9.33333L8.46884 9.33333L8.46884 10L8.46884 13.3333L7.1355 13.3333L7.1355 10L7.1355 9.33333L1.80217 9.33333L1.80217 8Z"/><path d="M7.1355 8L7.1355 7.33333L7.1355 4L8.46884 4L8.46884 7.33333L8.46884 8L13.8022 8L13.8022 9.33333L8.46884 9.33333L8.46884 10L8.46884 13.3333L7.1355 13.3333L7.1355 10L7.1355 9.33333L1.80217 9.33333L1.80217 8L7.1355 8Z"/><path fill="#f9dd4a" fill-rule="evenodd" d="M26.338 6.962 27.349 6.962 26.531 7.556 26.843 8.517 26.025 7.923 25.207 8.517 25.52 7.556 24.702 6.962 25.713 6.962 26.025 6 26.338 6.962ZM27.369 13.767 28.441 13.767 27.573 14.397 27.905 15.417 27.037 14.787 26.17 15.417 26.501 14.397 25.634 13.767 26.706 13.767 27.037 12.747 27.369 13.767ZM23.386 15.733 24.397 15.733 23.579 16.327 23.891 17.289 23.073 16.694 22.255 17.289 22.568 16.327 21.75 15.733 22.761 15.733 23.073 14.771 23.386 15.733ZM12.506 21.13 13.517 21.13 12.699 21.725 13.012 22.686 12.194 22.092 11.376 22.686 11.688 21.725 10.87 21.13 11.881 21.13 12.194 20.169 12.506 21.13Z"/><path fill="#f9dd4a" fill-rule="evenodd" d="M1.73427 0.978633L2.76326 0.978633L1.93079 1.58346L2.24877 2.56209L1.41629 1.95727L0.583816 2.56209L0.901793 1.58346L0.0693183 0.978633L1.09831 0.978633L1.41629 0L1.73427 0.978633Z" transform="rotate(-35.504 26.244 -28.569)"/><path fill="#f9dd4a" fill-rule="evenodd" d="M1.78559 1.00759L2.84504 1.00759L1.98793 1.63032L2.31532 2.63792L1.4582 2.01519L0.601093 2.63792L0.928481 1.63032L0.0713697 1.00759L1.13082 1.00759L1.4582 0L1.78559 1.00759Z" transform="rotate(-35.504 25.906 -22.3)"/><path fill="#f9dd4a" fill-rule="evenodd" d="M1.75207 0.988678L2.79163 0.988678L1.95061 1.59971L2.27185 2.58839L1.43083 1.97736L0.589809 2.58839L0.91105 1.59971L0.0700298 0.988678L1.10959 0.988678L1.43083 0L1.75207 0.988678Z" transform="rotate(-35.504 31.132 -16.117)"/><path fill="#f9dd4a" fill-rule="evenodd" d="M1.75207 0.988678L2.79163 0.988678L1.95061 1.59972L2.27185 2.58839L1.43083 1.97736L0.589809 2.58839L0.91105 1.59972L0.0700298 0.988678L1.10959 0.988678L1.43083 0L1.75207 0.988678Z" transform="rotate(-35.504 39.104 -20.604)"/><path fill="#f9dd4a" fill-rule="evenodd" d="M1.75207 0.988678L2.79163 0.988678L1.95061 1.59971L2.27185 2.58839L1.43083 1.97736L0.589809 2.58839L0.91105 1.59971L0.0700298 0.988678L1.10959 0.988678L1.43083 0L1.75207 0.988678Z" transform="rotate(-35.504 38.929 -13.253)"/></g></svg>