<svg xmlns="http://www.w3.org/2000/svg" fill="none" viewBox="0 0 35.873 28" focusable="false"><defs><filter id="United_Kingdom_of_Great_Britain_and_Northern_Ireland_svg__a"><feColorMatrix values="0 0 0 0 1 0 0 0 0 1 0 0 0 0 1 0 0 0 1 0"/></filter></defs><mask id="United_Kingdom_of_Great_Britain_and_Northern_Ireland_svg__b" width="28" height="20" x="4.172" y="4" maskUnits="userSpaceOnUse"><g filter="url(#United_Kingdom_of_Great_Britain_and_Northern_Ireland_svg__a)"><rect width="28" height="20" x="4.172" y="4" fill="#fff" rx="3"/><rect width="28" height="20" x="4.172" y="4" stroke="#969696" stroke-opacity="0" stroke-width="0" rx="3"/></g></mask><path fill="none" d="M4.172 0H32.172V28H4.172z"/><rect width="28" height="20" x="4.172" y="4" fill="#fff" rx="3"/><rect width="28" height="20" x="4.172" y="4" rx="3"/><g mask="url(#United_Kingdom_of_Great_Britain_and_Northern_Ireland_svg__b)"><path fill="#0a17a7" d="M4.172 4H32.172V24H4.172z"/><path d="M4.172 4H32.172V24H4.172z"/><path fill="#fff" fill-rule="evenodd" d="M34.9457 23.7057L33.4545 25.9165L21.5054 17.8567L21.5054 25.3333L14.8387 25.3333L14.8387 17.8567L2.88956 25.9165L1.39838 23.7057L10.8458 17.3333L4.17203 17.3333L4.17203 10.6667L10.8458 10.6667L1.39838 4.29432L2.88956 2.08356L14.8387 10.1434L14.8387 2.66667L21.5054 2.66667L21.5054 10.1434L33.4545 2.08356L34.9457 4.29432L25.4983 10.6667L32.172 10.6667L32.172 17.3333L25.4983 17.3333L34.9457 23.7057Z"/><path d="M34.9457 23.7057L33.4545 25.9165L21.5054 17.8567L21.5054 25.3333L14.8387 25.3333L14.8387 17.8567L2.88956 25.9165L1.39838 23.7057L10.8458 17.3333L4.17203 17.3333L4.17203 10.6667L10.8458 10.6667L1.39838 4.29432L2.88956 2.08356L14.8387 10.1434L14.8387 2.66667L21.5054 2.66667L21.5054 10.1434L33.4545 2.08356L34.9457 4.29432L25.4983 10.6667L32.172 10.6667L32.172 17.3333L25.4983 17.3333L34.9457 23.7057Z"/><path fill="none" d="M22.84 10.3322L35.5053 2"/><path stroke="#db1f35" stroke-linecap="round" stroke-width=".667" d="M22.84 10.3322L35.5053 2"/><path fill="none" d="M0 7.65283L11.3538 0" transform="matrix(1 0 0 -1 24.185 25.35)"/><path stroke="#db1f35" stroke-linecap="round" stroke-width=".667" d="M0 7.65283L11.3538 0" transform="matrix(1 0 0 -1 24.185 25.35)"/><path fill="none" d="M12.1776 10.3104L0.334534 2.32898"/><path stroke="#db1f35" stroke-linecap="round" stroke-width=".667" d="M12.1776 10.3104L0.334534 2.32898"/><path fill="none" d="M13.1275 8.70557L0 0" transform="matrix(1 0 0 -1 .335 26.31)"/><path stroke="#db1f35" stroke-linecap="round" stroke-width=".667" d="M13.1275 8.70557L0 0" transform="matrix(1 0 0 -1 .335 26.31)"/><path fill="#e6273e" fill-rule="evenodd" d="M4.172 16L16.172 16L16.172 24L20.172 24L20.172 16L32.172 16L32.172 12L20.172 12L20.172 4L16.172 4L16.172 12L4.172 12L4.172 16Z"/><path d="M16.172 16L16.172 24L20.172 24L20.172 16L32.172 16L32.172 12L20.172 12L20.172 4L16.172 4L16.172 12L4.172 12L4.172 16L16.172 16Z"/></g></svg>