<svg xmlns="http://www.w3.org/2000/svg" fill="none" viewBox="0 0 29.333 28" focusable="false"><defs><filter id="Vanuatu_svg__a"><feColorMatrix values="0 0 0 0 1 0 0 0 0 1 0 0 0 0 1 0 0 0 1 0"/></filter><filter id="Vanuatu_svg__c" width="28" height="8" x="1.333" y="16" color-interpolation-filters="sRGB" filterUnits="userSpaceOnUse"><feFlood flood-opacity="0" result="BackgroundImageFix"/><feOffset in="SourceAlpha"/><feColorMatrix values="0 0 0 0 0 0 0 0 0 0 0 0 0 0 0 0 0 0 0.06 0"/><feBlend in2="BackgroundImageFix" result="effect_dropShadow_1"/><feBlend in="SourceGraphic" in2="effect_dropShadow_1" result="shape"/></filter><filter id="Vanuatu_svg__d" width="28" height="8" x="1.333" y="4" color-interpolation-filters="sRGB" filterUnits="userSpaceOnUse"><feFlood flood-opacity="0" result="BackgroundImageFix"/><feOffset in="SourceAlpha"/><feColorMatrix values="0 0 0 0 0 0 0 0 0 0 0 0 0 0 0 0 0 0 0.06 0"/><feBlend in2="BackgroundImageFix" result="effect_dropShadow_1"/><feBlend in="SourceGraphic" in2="effect_dropShadow_1" result="shape"/></filter></defs><mask id="Vanuatu_svg__b" width="28" height="20" x="1.333" y="4" maskUnits="userSpaceOnUse"><g filter="url(#Vanuatu_svg__a)"><rect width="28" height="20" x="1.333" y="4" fill="#fff" rx="3"/><rect width="28" height="20" x="1.333" y="4" stroke="#969696" stroke-opacity="0" stroke-width="0" rx="3"/></g></mask><path fill="none" d="M1.333 0H29.333V28H1.333z"/><rect width="28" height="20" x="1.333" y="4" fill="#fff" rx="3"/><rect width="28" height="20" x="1.333" y="4" rx="3"/><g mask="url(#Vanuatu_svg__b)"><g filter="url(#Vanuatu_svg__c)"><path fill="#009543" fill-rule="evenodd" d="M1.33334 24L29.3333 24L29.3333 16L1.33334 16L1.33334 24Z"/><path d="M29.3333 24L29.3333 16L1.33334 16L1.33334 24L29.3333 24Z"/></g><g filter="url(#Vanuatu_svg__d)"><path fill="#d21034" fill-rule="evenodd" d="M1.33334 12L29.3333 12L29.3333 4L1.33334 4L1.33334 12Z"/><path d="M29.3333 12L29.3333 4L1.33334 4L1.33334 12L29.3333 12Z"/></g><path fill="#262626" fill-rule="evenodd" d="M1.33334 16L29.3333 16L29.3333 12L1.33334 12L1.33334 16Z"/><path d="M29.3333 16L29.3333 12L1.33334 12L1.33334 16L29.3333 16Z"/><path fill="#262626" fill-rule="evenodd" d="M1.33334 4L14.6667 14L1.33334 24L1.33334 4Z"/><path d="M14.6667 14L1.33334 24L1.33334 4L14.6667 14Z"/><path fill="none" d="M0 5.33337L12 14L0 22.6667L0 5.33337Z"/><path fill="#fdce12" fill-rule="evenodd" d="M10.8614 13.1777L12 14L10.8614 14.8224L1.33333 21.7037L0 22.6667L0 5.33337L1.33333 6.29634L10.8614 13.1777ZM1.33333 7.94105L9.72271 14L1.33333 20.059L1.33333 7.94105Z"/><path fill="#fdce12" fill-rule="evenodd" d="M10.6667 14.6667L29.3334 14.6667L29.3334 13.3334L10.6667 13.3334L10.6667 14.6667Z"/><path d="M29.3334 14.6667L29.3334 13.3334L10.6667 13.3334L10.6667 14.6667L29.3334 14.6667Z"/></g></svg>