<svg xmlns="http://www.w3.org/2000/svg" fill="none" viewBox="0 0 28 28" focusable="false"><path fill="none" d="M0 0H28V28H0z" transform="matrix(-1 0 0 -1 28 28)"/><rect width="28" height="20" y="4" fill="#fff" rx="3"/><rect width="27.5" height="19.5" x=".25" y="4.25" stroke="#f5f5f5" stroke-width=".5" rx="2.75"/><path fill="#369443" d="M9.03259 17.457C9.03259 17.457 9.01121 17.3124 9.28583 17.2064C9.56045 17.1003 9.5818 16.7051 9.52687 16.4416C9.52687 16.4416 9.38347 16.6922 9.20956 16.7758C9.20956 16.7758 8.9258 16.9236 8.91281 17.2059C8.91281 17.2059 8.91055 17.3092 8.88918 17.3895C8.8775 17.4335 8.75188 17.036 8.98987 16.7404C9.23546 16.4353 9.30414 16.1877 9.10885 15.7057C9.10885 15.7057 9.09055 15.9981 8.89832 16.1652C8.7061 16.3323 8.68165 16.3452 8.68473 16.7436C8.68473 16.7436 8.6878 16.8818 8.61456 16.9268C8.61456 16.9268 8.46506 16.7083 8.42538 16.5637C8.38573 16.4191 8.36742 16.358 8.53827 16.1909C8.53827 16.1909 9.08567 15.8372 8.69084 15.063C8.69084 15.063 8.67863 15.3297 8.48945 15.4872C8.30027 15.6446 8.31554 15.7507 8.30637 16.0238C8.29721 16.297 8.2789 16.2777 8.25755 16.3162C8.25755 16.3162 7.90972 15.6768 8.17822 15.3362C8.44671 14.9955 8.59624 14.9248 8.30027 14.2918C8.30027 14.2918 8.31341 14.6164 8.07648 14.7771C7.83955 14.9377 7.89448 15.3137 7.89448 15.3137C7.89448 15.3137 7.90972 15.4551 7.86092 15.5579C7.86092 15.5579 7.52576 14.9042 7.84568 14.5521C8.11723 14.2533 8.13554 14.0444 7.98908 13.6202C7.98908 13.6202 7.97077 13.8163 7.82127 13.9223C7.67176 14.0283 7.55277 14.1344 7.58022 14.5424C7.58022 14.5424 7.59243 14.8284 7.55581 14.9088C7.55581 14.9088 7.41545 14.6485 7.3758 14.4782C7.33614 14.3079 7.32087 14.2083 7.42462 14.0379C7.52836 13.8676 7.94028 13.3792 7.44903 12.6755C7.44903 12.6755 7.43378 12.9036 7.30867 13.1093C7.18357 13.3149 7.24154 13.5592 7.26901 13.7455C7.29648 13.9319 7.20494 14.1118 7.20494 14.1118C7.20494 14.1118 6.99135 13.7198 7.03713 13.27C7.08289 12.8201 6.89983 12.4506 6.48486 12.1838C6.48486 12.1838 6.18279 12.8844 6.5947 13.241C6.5947 13.241 6.94559 13.5881 7.03407 14.009C7.03407 14.009 6.76862 13.9833 6.52757 13.5142C6.28653 13.045 5.78614 13.1189 5.75256 13.1157C5.75256 13.1157 5.83496 13.8419 6.60385 14.0476C6.60385 14.0476 7.0951 14.1312 7.18664 14.4911C7.18664 14.4911 7.26901 14.7385 7.30259 14.8702C7.30259 14.8702 7.14698 14.8092 7.00356 14.5971C6.86016 14.385 6.87846 14.3593 6.39332 14.3111C6.39332 14.3111 6.19803 14.2886 6.09429 14.1504C6.09429 14.1504 6.29872 14.9184 6.82352 14.912C6.82352 14.912 7.30257 14.8606 7.57106 15.4904C7.57106 15.4904 7.5192 15.4583 7.44901 15.4101C7.37884 15.3619 7.20186 15.2719 6.85097 15.3137C6.50008 15.3554 6.40244 15.2976 6.31396 15.2687C6.31396 15.2687 6.66789 15.9177 7.16831 15.7249C7.6687 15.5321 7.91039 16.2352 7.91585 16.2487C7.91585 16.2487 7.84872 16.1973 7.76024 16.1105C7.67176 16.0238 7.48806 15.9168 7.14084 16.027C7.14084 16.027 6.89065 16.1234 6.63738 16.0463C6.63738 16.0463 6.88148 16.5186 7.45205 16.4383C8.02261 16.3579 8.16603 16.8592 8.16603 16.8592C8.16603 16.8592 8.08976 16.8143 8.03788 16.7725C7.98602 16.7307 7.79377 16.6215 7.38188 16.7436C6.96996 16.8657 6.82046 16.7243 6.82046 16.7243C6.82046 16.7243 7.0493 17.142 7.48866 17.1902C7.48866 17.1902 7.73277 17.187 7.83649 17.1484C7.94024 17.1099 8.21483 17.0488 8.40402 17.322C8.40402 17.322 8.35215 17.3316 8.27282 17.2963C8.27282 17.2963 7.97991 17.1902 7.75716 17.3766C7.75716 17.3766 7.55883 17.579 7.27811 17.5405C7.27811 17.5405 7.64121 17.8939 8.21787 17.5951C8.21787 17.5951 8.41316 17.4537 8.55656 17.563C8.7 17.6723 9.03259 17.457 9.03259 17.457Z"/><path fill="#f4c53d" fill-rule="evenodd" d="M15.605 10.23C15.533 10.322 15.249 10.354 15.249 10.354 15.249 10.354 15.541 10.579 15.668 10.9 15.794 11.222 12.273 10.903 12.273 10.903 12.273 10.903 12.425 10.793 12.529 10.588 12.529 10.588 12.373 10.645 12.218 10.491 12.218 10.491 12.334 10.53 12.486 10.298 12.486 10.298 12.708 10.014 12.867 9.934 12.85 9.941 12.774 9.964 12.62 9.881 12.62 9.881 12.926 9.842 13.035 9.321 13.035 9.321 13.054 9.206 13.17 9.039 13.199 8.996 13.219 8.978 13.237 8.969 13.237 8.853 13.205 8.559 12.871 8.552 12.832 8.551 12.798 8.556 12.763 8.562L12.763 8.562C12.704 8.571 12.641 8.581 12.537 8.565 12.407 8.544 12.324 8.65 12.276 8.711 12.262 8.729 12.25 8.744 12.242 8.75 12.242 8.75 12.175 8.152 12.653 8.094 12.75 8.082 12.838 8.077 12.916 8.076 12.919 8.056 12.925 8.034 12.934 8.01 12.981 7.882 13.088 7.869 13.143 7.87 13.144 7.868 13.145 7.866 13.145 7.865L13.146 7.861 13.147 7.86 13.147 7.86 13.147 7.86 13.147 7.86 13.176 7.871 13.176 7.871C13.182 7.871 13.188 7.86 13.196 7.842 13.219 7.794 13.265 7.7 13.406 7.629 13.601 7.531 14.12 7.573 14.197 7.616 14.206 7.621 14.219 7.627 14.235 7.635 14.348 7.687 14.61 7.807 14.771 8.214 14.837 8.382 14.849 8.512 14.861 8.642 14.882 8.872 14.903 9.104 15.22 9.549 15.22 9.549 15.021 9.591 14.893 9.553 14.893 9.553 15.151 10.011 15.605 10.23ZM17.466 14.109C17.148 14.418 16.77 14.109 16.77 14.109L16.859 13.484C16.356 13.212 16.752 11.289 16.752 11.289 16.752 11.289 16.993 11.108 17.423 11.321 17.423 11.321 17.568 11.421 17.682 11.311 17.777 11.22 17.786 11.052 17.655 10.954 17.335 10.717 17.216 10.003 17.704 9.708 17.704 9.708 18.41 9.289 20.996 8.63L20.997 8.629C21 8.629 21.003 8.628 21.006 8.628L21.008 8.627C21.008 8.627 21.099 8.602 21.195 8.592 22.145 8.399 23.741 7.896 23.741 7.896 23.945 7.84 24.141 7.763 24.319 7.694 24.731 7.533 25.05 7.408 25.181 7.648 25.376 8.008 24.929 8.235 24.929 8.235 25.1 8.724 24.559 8.899 24.559 8.899 24.827 9.409 23.67 9.726 23.67 9.726 23.771 9.962 23.574 10.138 23.574 10.138 23.232 10.446 22.54 10.592 22.54 10.592 22.558 10.62 22.569 10.66 22.569 10.66 22.622 10.815 22.516 10.93 22.516 10.93 22.297 11.181 21.536 11.299 21.536 11.299 21.609 11.303 21.613 11.376 21.613 11.376 21.638 11.504 21.564 11.577 21.564 11.577 21.398 11.843 20.73 11.95 20.73 11.95 20.881 12.117 20.629 12.276 20.629 12.276 20.325 12.508 19.583 12.511 19.583 12.511 19.583 12.511 19.766 12.644 19.685 12.901 19.589 13.203 19.237 13.111 19.237 13.111 19.327 13.137 19.429 13.355 19.262 13.576 19.095 13.796 18.769 13.732 18.769 13.732 18.769 13.732 18.769 13.887 18.582 13.989 18.395 14.091 18.173 13.961 18.173 13.961 18.149 14.039 18.106 14.174 17.85 14.219 17.594 14.264 17.466 14.109 17.466 14.109Z"/><path fill="#0081c6" fill-rule="evenodd" d="M21.2072 14.7496L21.6395 12.7927L20.2928 14.2157L20.6816 14.3178L19.4338 16.6962L19.8206 15.0266L20.1752 15.2322L20.1118 13.2243L19.1607 14.9659L19.5614 14.9585L18.9868 17.3998L19.2303 17.5747L19.2567 17.4607L19.3296 17.5033L20.9153 14.4542L21.2072 14.7496ZM22.405 14.1179L21.5659 15.9221L21.3445 15.5652L19.5728 17.6587L19.381 17.4439L21.146 15.377L20.7889 15.1854L22.405 14.1179Z"/><path fill="#f4c53d" fill-rule="evenodd" d="M10.531 14.109C10.848 14.418 11.227 14.109 11.227 14.109L11.138 13.484C11.641 13.213 11.244 11.289 11.244 11.289 11.244 11.289 11.003 11.108 10.573 11.321 10.573 11.321 10.428 11.421 10.314 11.311 10.219 11.22 10.21 11.052 10.341 10.954 10.662 10.717 10.781 10.003 10.292 9.708 10.292 9.708 9.587 9.289 7 8.63L7 8.629C6.997 8.629 6.994 8.628 6.991 8.628L6.989 8.627C6.989 8.627 6.897 8.602 6.801 8.592 5.851 8.399 4.256 7.896 4.256 7.896 4.051 7.84 3.856 7.763 3.678 7.694 3.265 7.533 2.946 7.408 2.815 7.648 2.62 8.008 3.068 8.235 3.068 8.235 2.897 8.724 3.438 8.899 3.438 8.899 3.169 9.409 4.327 9.726 4.327 9.726 4.225 9.962 4.422 10.138 4.422 10.138 4.764 10.446 5.457 10.592 5.457 10.592 5.438 10.62 5.427 10.66 5.427 10.66 5.374 10.815 5.48 10.93 5.48 10.93 5.7 11.181 6.461 11.299 6.461 11.299 6.387 11.303 6.383 11.376 6.383 11.376 6.359 11.504 6.432 11.577 6.432 11.577 6.599 11.843 7.266 11.95 7.266 11.95 7.116 12.117 7.368 12.276 7.368 12.276 7.672 12.508 8.413 12.511 8.413 12.511 8.413 12.511 8.23 12.644 8.312 12.901 8.407 13.203 8.759 13.111 8.759 13.111 8.67 13.137 8.568 13.355 8.735 13.576 8.902 13.796 9.227 13.732 9.227 13.732 9.227 13.732 9.227 13.887 9.414 13.989 9.601 14.091 9.823 13.962 9.823 13.962 9.847 14.039 9.89 14.174 10.146 14.219 10.403 14.264 10.531 14.109 10.531 14.109ZM10.581 15.27C11.199 14.744 11.276 14.325 11.276 14.325 11.276 14.325 12.342 15.605 12.354 15.844 12.366 16.082 11.882 16.265 11.882 16.265 11.455 16.496 11.386 16.757 11.386 16.757 11.28 17.152 11.007 17.207 11.007 17.207 10.857 17.254 10.828 17.362 10.828 17.362 10.815 17.32 10.806 17.278 10.801 17.237 10.621 17.288 10.273 17.466 10.173 17.523 10.049 17.595 9.881 17.652 9.791 17.712 9.724 17.757 9.657 17.75 9.584 18.123 9.51 18.496 9.356 18.462 8.981 18.569 8.607 18.676 8.595 18.453 8.595 18.453 8.383 18.509 8.355 18.295 8.355 18.295 8.318 18.282 8.164 18.217 8.217 17.918 8.269 17.618 8.399 17.521 8.526 17.403 8.708 17.235 9.352 17.313 9.352 17.313 9.614 17.307 9.844 17.045 9.959 16.888 9.89 16.894 9.844 16.89 9.844 16.89 9.855 16.881 9.865 16.871 9.875 16.862 10.042 16.715 10.128 16.639 10.116 16.175 10.104 15.691 10.581 15.27 10.581 15.27ZM17.417 15.27C16.799 14.744 16.721 14.325 16.721 14.325 16.721 14.325 15.656 15.605 15.644 15.844 15.632 16.082 16.116 16.265 16.116 16.265 16.543 16.496 16.612 16.757 16.612 16.757 16.718 17.152 16.99 17.207 16.99 17.207 17.141 17.254 17.169 17.362 17.169 17.362 17.183 17.32 17.192 17.278 17.197 17.237 17.377 17.289 17.725 17.466 17.824 17.523 17.949 17.595 18.117 17.652 18.207 17.712 18.273 17.757 18.341 17.75 18.414 18.123 18.487 18.496 18.642 18.462 19.016 18.569 19.39 18.676 19.403 18.453 19.403 18.453 19.614 18.509 19.643 18.295 19.643 18.295 19.679 18.282 19.834 18.217 19.781 17.918 19.728 17.618 19.599 17.521 19.472 17.403 19.29 17.235 18.646 17.313 18.646 17.313 18.384 17.307 18.153 17.045 18.039 16.888 18.107 16.894 18.154 16.89 18.154 16.89 18.143 16.881 18.132 16.871 18.122 16.862 17.956 16.715 17.87 16.639 17.881 16.175 17.893 15.691 17.417 15.27 17.417 15.27Z"/><path stroke="#010002" stroke-width=".172" d="M15.226 19.688C15.226 19.688 15.185 18.827 14.439 17.593M15.694 19.371C15.694 19.371 15.81 18.874 14.758 17.405 14.758 17.405 14.88 17.053 14.506 16.829M16.056 18.96C16.056 18.96 16.088 18.422 15.059 17.195 15.059 17.195 15.15 16.878 14.777 16.625M16.357 18.579C16.357 18.579 16.318 18.035 15.311 16.972 15.311 16.972 15.362 16.646 15.001 16.445M16.727 18.262C16.727 18.262 16.654 17.64 15.592 16.698 15.592 16.698 15.629 16.454 15.275 16.205M12.771 19.688C12.771 19.688 12.812 18.827 13.558 17.593M12.304 19.371C12.304 19.371 12.188 18.874 13.239 17.405 13.239 17.405 13.117 17.053 13.491 16.829M11.942 18.959C11.942 18.959 11.909 18.422 12.938 17.194 12.938 17.194 12.848 16.877 13.22 16.624M11.641 18.578C11.641 18.578 11.679 18.034 12.686 16.971 12.686 16.971 12.636 16.646 12.997 16.444"/><path fill="#f4c53d" fill-rule="evenodd" d="M15.825 16.5052C15.8308 16.4108 15.7757 16.2707 15.5921 16.0628C15.1458 15.5573 14.4349 16.6244 14.2319 16.9554C14.1691 16.8762 14.0876 16.8284 13.9987 16.8284C13.9097 16.8284 13.8282 16.8762 13.7654 16.9554C13.5624 16.6245 12.8515 15.5573 12.4052 16.0628C12.2215 16.2708 12.1664 16.411 12.1723 16.5054C10.416 18.12 11.2703 18.2617 11.2703 18.2617C11.2703 18.6773 11.6405 18.5788 11.6405 18.5788C11.5998 19.0201 11.9416 18.9601 11.9416 18.9601C11.9375 19.4571 12.3037 19.3714 12.3037 19.3714C12.3688 19.9027 12.7715 19.6885 12.7715 19.6885C12.7512 20.1426 13.0238 20.1683 13.0238 20.1683C13.342 20.2009 13.4731 19.873 13.5091 19.7577C13.5109 19.8347 13.5145 19.9092 13.52 19.9803C13.5478 20.3361 13.7384 20.6267 13.9987 20.6267C14.259 20.6267 14.4496 20.3361 14.4774 19.9803C14.4829 19.9092 14.4865 19.8347 14.4883 19.7576C14.5244 19.873 14.6554 20.201 14.9737 20.1683C14.9737 20.1683 15.2463 20.1426 15.2259 19.6885C15.2259 19.6885 15.6287 19.9027 15.6938 19.3714C15.6938 19.3714 16.0599 19.4571 16.0559 18.9601C16.0559 18.9601 16.3976 19.0201 16.3569 18.5788C16.3569 18.5788 16.7271 18.6773 16.7271 18.2617C16.7271 18.2617 17.5816 18.12 15.825 16.5052Z"/><path fill="#fff" d="M13.9994 17.244C13.9994 17.244 17.054 15.8904 17.0616 12.759L10.9371 12.759C10.9447 15.8904 13.9994 17.244 13.9994 17.244Z"/><path stroke="#010002" stroke-width=".172" d="M12.3498 12.759L12.8209 12.759M11.4076 12.759L11.8787 12.759M13.292 12.759L13.7631 12.759"/><path fill="#a60032" d="M11.408 12.759 11.408 14.76C11.408 14.76 11.642 15.224 11.879 15.515L11.879 12.759 11.408 12.759ZM12.35 12.759 12.35 16.057C12.35 16.057 12.644 16.346 12.821 16.485L12.821 12.759 12.35 12.759ZM13.292 12.759 13.292 16.836C13.292 16.836 13.628 17.053 13.763 17.124L13.763 12.759 13.292 12.759ZM16.59 12.759 16.59 14.76C16.59 14.76 16.356 15.224 16.119 15.515L16.119 12.759 16.59 12.759ZM15.647 12.759 15.647 16.057C15.647 16.057 15.353 16.346 15.176 16.485L15.176 12.759 15.647 12.759ZM14.705 12.759 14.705 16.836C14.705 16.836 14.369 17.053 14.234 17.124L14.234 12.759 14.705 12.759Z"/><path d="M17.2252 20.2735L16.9415 20.6206M16.5897 20.235L17.3717 20.9579"/><path fill="#0081c6" fill-rule="evenodd" d="M17.7818 20.4396L17.669 20.916L18.2747 20.6333L18.6835 21.1823L19.143 19.2411L18.9789 19.0776L19.0466 18.949L18.8799 18.6636L18.9367 18.4315C18.936 18.431 18.9353 18.4305 18.9346 18.4299L19.0853 18.2385C19.0886 18.1895 19.0706 18.1471 19.0453 18.1123L19.0461 18.1108C18.9634 17.9784 18.7994 17.9785 18.7988 17.9785L18.5729 18.4166L18.1321 18.4152L17.9462 18.7685L17.8285 18.7394L16.5573 20.2262L17.2181 20.2761L17.3343 20.963L17.7818 20.4396Z"/><path fill="#369443" d="M8.96899 18.3461C8.96899 18.3461 8.95985 18.0858 9.28935 18.0665L10.2596 19.4161C10.2596 19.4161 10.223 19.5028 9.78362 19.4932C9.78362 19.4932 9.73709 19.4929 9.71268 19.5443C9.6752 19.6232 8.96899 18.3461 8.96899 18.3461Z"/><path fill="#162667" d="M17.0616 10.485C17.0616 10.485 15.5627 11.2691 13.9994 10.4208C12.436 11.2691 10.9371 10.485 10.9371 10.485L10.9371 12.7601L17.0616 12.7601L17.0616 10.485Z"/><path fill="#0081c6" d="M3.30989 16.3843C3.45832 16.3237 3.56521 16.2653 3.56475 16.1069C3.56465 16.0691 3.54367 15.9856 3.50155 15.8563L2.50492 12.8104C2.4459 12.6294 2.40128 12.5218 2.3806 12.4822C2.33579 12.3964 2.24785 12.3615 2.12939 12.3122L3.39609 12.3122C3.25848 12.3772 3.13304 12.4288 3.13422 12.5747C3.13467 12.6304 3.15033 12.709 3.18264 12.8104L3.94613 15.2006L4.70888 12.8104C4.74119 12.709 4.75788 12.6304 4.75735 12.5747C4.75588 12.4248 4.62524 12.3707 4.49688 12.3122L5.7245 12.3122C5.61225 12.3571 5.52077 12.3924 5.47377 12.4822C5.45304 12.5218 5.40847 12.6294 5.34947 12.8104L4.35284 15.8563C4.31068 15.9856 4.29543 16.0705 4.28962 16.1099C4.28962 16.1099 4.24375 16.3025 4.54448 16.3843L3.30989 16.3843ZM24.5486 16.0711L24.5486 12.6224C24.5486 12.5627 24.5388 12.517 24.5192 12.4852C24.4995 12.4534 24.4139 12.3617 24.2917 12.3121L25.4331 12.3121C25.3109 12.3526 25.2253 12.4509 25.2057 12.4837C25.186 12.5165 25.1762 12.5627 25.1762 12.6224L25.1762 16.0711C25.1762 16.1327 25.1863 16.18 25.2067 16.2128C25.227 16.2456 25.3109 16.3257 25.4331 16.3843L24.2917 16.3843C24.4139 16.3287 24.4995 16.2431 24.5192 16.2113C24.5388 16.1795 24.5486 16.1327 24.5486 16.0711Z"/></svg>