<svg xmlns="http://www.w3.org/2000/svg" fill="none" viewBox="0 0 28.5 28" focusable="false"><defs><filter id="Wallis_and_Futuna_svg__a"><feColorMatrix values="0 0 0 0 1 0 0 0 0 1 0 0 0 0 1 0 0 0 1 0"/></filter></defs><mask id="Wallis_and_Futuna_svg__b" width="28" height="20" x=".5" y="4" maskUnits="userSpaceOnUse"><g filter="url(#Wallis_and_Futuna_svg__a)"><rect width="28" height="20" x=".5" y="4" fill="#fff" rx="3"/><rect width="28" height="20" x=".5" y="4" stroke="#969696" stroke-opacity="0" stroke-width="0" rx="3"/></g></mask><path fill="none" d="M.5 0H28.5V28H.5z"/><rect width="28" height="20" x=".5" y="4" fill="#fff" rx="3"/><rect width="28" height="20" x=".5" y="4" rx="3"/><g mask="url(#Wallis_and_Futuna_svg__b)"><path fill="#f44653" d="M.5 4H28.5V24H.5z"/><path d="M.5 4H28.5V24H.5z"/><path fill="#083b9a" fill-rule="evenodd" d="M0.5 15L15.5 15L15.5 4L0.5 4L0.5 15Z"/><path stroke="#fff" d="M15.5 15L15.5 4L0.5 4L0.5 15L15.5 15Z"/><path fill="#083b9a" fill-rule="evenodd" d="M0.5 15L5.5 15L5.5 4L0.5 4L0.5 15Z"/><path fill="#fff" fill-rule="evenodd" d="M5.5 15L10.5 15L10.5 4L5.5 4L5.5 15Z"/><path fill="#f44653" fill-rule="evenodd" d="M10.5 15L15.5 15L15.5 4L10.5 4L10.5 15Z"/><g fill="#fff" fill-rule="evenodd"><path d="M24.3949 10.5L19.2689 10.5L21.8319 13.063L24.3949 10.5Z"/><path d="M5.12595 0L0 0L2.56298 2.56298L5.12595 0Z" transform="matrix(1 0 0 -1 19.269 17.42)"/><path d="M5.12595 0L0 0L2.56298 2.56298L5.12595 0Z" transform="matrix(0 -1 -1 0 25.164 16.523)"/><path d="M5.12595 0L0 0L2.56298 2.56298L5.12595 0Z" transform="rotate(-90 17.511 -.989)"/></g></g></svg>