<svg xmlns="http://www.w3.org/2000/svg" fill="none" viewBox="0 0 29.333 28" focusable="false"><defs><linearGradient id="Zimbabwe_svg__c" x1="2" x2="2" y1="10.667" y2="17.333" gradientUnits="userSpaceOnUse"><stop offset="0" stop-color="#f02f1f"/><stop offset="1" stop-color="#de2010"/></linearGradient><filter id="Zimbabwe_svg__a"><feColorMatrix values="0 0 0 0 1 0 0 0 0 1 0 0 0 0 1 0 0 0 1 0"/></filter></defs><mask id="Zimbabwe_svg__b" width="28" height="20" x="1.333" y="4" maskUnits="userSpaceOnUse"><g filter="url(#Zimbabwe_svg__a)"><rect width="28" height="20" x="1.333" y="4" fill="#fff" rx="3"/><rect width="28" height="20" x="1.333" y="4" stroke="#969696" stroke-opacity="0" stroke-width="0" rx="3"/></g></mask><path fill="none" d="M1.333 0H29.333V28H1.333z"/><rect width="28" height="20" x="1.333" y="4" fill="#fff" rx="3"/><rect width="28" height="20" x="1.333" y="4" rx="3"/><g mask="url(#Zimbabwe_svg__b)"><path fill="#369d0c" fill-rule="evenodd" d="M1.33331 6.66667L29.3333 6.66667L29.3333 4L1.33331 4L1.33331 6.66667Z"/><path d="M29.3333 6.66667L29.3333 4L1.33331 4L1.33331 6.66667L29.3333 6.66667Z"/><path fill="#369d0c" fill-rule="evenodd" d="M1.33331 24L29.3333 24L29.3333 21.3334L1.33331 21.3334L1.33331 24Z"/><path d="M29.3333 24L29.3333 21.3334L1.33331 21.3334L1.33331 24L29.3333 24Z"/><path fill="#369d0c" fill-rule="evenodd" d="M1.33331 12L29.3333 12L29.3333 9.33337L1.33331 9.33337L1.33331 12Z"/><path d="M29.3333 12L29.3333 9.33337L1.33331 9.33337L1.33331 12L29.3333 12Z"/><path fill="#369d0c" fill-rule="evenodd" d="M1.33331 18.6667L29.3333 18.6667L29.3333 16L1.33331 16L1.33331 18.6667Z"/><path d="M29.3333 18.6667L29.3333 16L1.33331 16L1.33331 18.6667L29.3333 18.6667Z"/><path fill="#262626" fill-rule="evenodd" d="M1.33331 16L29.3333 16L29.3333 12L1.33331 12L1.33331 16Z"/><path d="M29.3333 16L29.3333 12L1.33331 12L1.33331 16L29.3333 16Z"/><path fill="#ffd40e" fill-rule="evenodd" d="M1.33331 9.33329L29.3333 9.33329L29.3333 6.66663L1.33331 6.66663L1.33331 9.33329Z"/><path d="M29.3333 9.33329L29.3333 6.66663L1.33331 6.66663L1.33331 9.33329L29.3333 9.33329Z"/><path fill="#ffd40e" fill-rule="evenodd" d="M1.33331 21.3333L29.3333 21.3333L29.3333 18.6666L1.33331 18.6666L1.33331 21.3333Z"/><path d="M29.3333 21.3333L29.3333 18.6666L1.33331 18.6666L1.33331 21.3333L29.3333 21.3333Z"/><path fill="#fff" fill-rule="evenodd" d="M0 24L0 4L1.33333 4L14.6667 14L1.33333 24L0 24Z"/><path fill="#262626" fill-rule="evenodd" d="M0 4L0 24L1.33333 24L13.5556 14.8333L14.6667 14L13.5556 13.1667L1.33333 4L0 4ZM1.33333 5.66667L1.33333 22.3333L12.4444 14L1.33333 5.66667Z"/><path fill="url(#Zimbabwe_svg__c)" fill-rule="evenodd" d="M5.33333 15.3L3.37405 16.6967L4.09696 14.4017L2.16315 12.9699L4.56921 12.9482L5.33333 10.6666L6.09745 12.9482L8.50352 12.9699L6.56971 14.4017L7.29262 16.6967L5.33333 15.3Z"/><path d="M3.37405 16.6967L4.09696 14.4017L2.16315 12.9699L4.56921 12.9482L5.33333 10.6666L6.09745 12.9482L8.50352 12.9699L6.56971 14.4017L7.29262 16.6967L5.33333 15.3L3.37405 16.6967Z"/></g></svg>