<svg xmlns="http://www.w3.org/2000/svg" fill="none" viewBox="0 0 24 24" focusable="false"><path fill="currentColor" fill-rule="evenodd" d="M3.00741 20.0467L3.00741 19.5393L3.00204 19.5393L3.00204 11.4329C3.00166 11.417 3.00146 11.4011 3.00146 11.3851L3.00146 10.0249C3.00146 10.0157 3.00166 10.0065 3.00204 9.99735L3.00204 5.4541C3.00204 3.79725 4.34518 2.4541 6.00204 2.4541L18.0004 2.4541C19.6573 2.4541 21.0004 3.79725 21.0004 5.4541L21.0014 20.0355C21.0014 21.1124 20.1284 21.9855 19.0514 21.9855L17.871 21.9855C16.7915 21.9855 15.9174 21.1084 15.921 20.0289L15.9227 19.5393L8.0861 19.5393L8.0878 20.0401C8.09145 21.1196 7.21734 21.9967 6.13781 21.9967L4.95741 21.9967C3.88045 21.9967 3.00741 21.1236 3.00741 20.0467ZM18.0004 3.7541L6.00204 3.7541C5.06315 3.7541 4.30204 4.51522 4.30204 5.4541L4.30204 11.4127C4.3165 11.7597 4.60307 12.0363 4.9537 12.0351L19.0365 11.9867C19.3946 11.9855 19.6843 11.6948 19.6843 11.3367L19.6843 10.1969C19.6843 10.1472 19.6899 10.0988 19.7004 10.0522L19.7004 5.4541C19.7004 4.51522 18.9393 3.7541 18.0004 3.7541ZM6.34676 5.69724C6.34676 5.33826 6.63778 5.04724 6.99676 5.04724L17.028 5.04724C17.387 5.04724 17.678 5.33826 17.678 5.69724C17.678 6.05623 17.387 6.34724 17.028 6.34724L6.99676 6.34724C6.63778 6.34724 6.34676 6.05623 6.34676 5.69724ZM19.7004 13.17C19.4946 13.2448 19.2726 13.2859 19.041 13.2867L4.95817 13.3351C4.72809 13.3359 4.5072 13.2968 4.30204 13.2244L4.30204 15.0324L6.00612 15.0324C6.3651 15.0324 6.65612 15.3234 6.65612 15.6824C6.65612 16.0414 6.3651 16.3324 6.00612 16.3324L4.30204 16.3324L4.30204 18.2393L6.96108 18.2393C7.43424 16.7726 8.81055 15.7109 10.4355 15.7109L11.998 15.7109L13.5644 15.7071C15.1942 15.7031 16.576 16.7677 17.0489 18.2393L19.7004 18.2393L19.7004 16.3324L18.0168 16.3324C17.6578 16.3324 17.3668 16.0414 17.3668 15.6824C17.3668 15.3234 17.6578 15.0324 18.0168 15.0324L19.7004 15.0324L19.7004 13.17ZM8.36996 18.2393L15.6409 18.2393C15.2425 17.5039 14.4632 17.0049 13.5675 17.0071L12.0004 17.0109L11.9988 17.0109L10.4355 17.0109C9.54363 17.0109 8.76809 17.5077 8.36996 18.2393ZM4.30741 19.5393L6.7861 19.5393L6.78781 20.0445C6.78902 20.4043 6.49765 20.6967 6.13781 20.6967L4.95741 20.6967C4.59842 20.6967 4.30741 20.4056 4.30741 20.0467L4.30741 19.5393ZM17.2227 19.5393L19.7014 19.5393L19.7014 20.0355C19.7014 20.3945 19.4104 20.6855 19.0514 20.6855L17.871 20.6855C17.5112 20.6855 17.2198 20.3931 17.221 20.0333L17.2227 19.5393Z"/></svg>