<svg xmlns="http://www.w3.org/2000/svg" fill="none" viewBox="0 0 24 24" focusable="false"><path fill="currentColor" fill-rule="evenodd" d="M17.2816 5.2401C18.453 4.18319 20.0993 4.0687 21.1562 5.2401C22.2131 6.41151 21.779 8.07904 20.6075 9.13595L11.436 17.4342C9.23654 19.4186 6.38266 19.7327 4.23569 17.7816C4.21796 17.767 4.20078 17.7513 4.18421 17.7347L4.17829 17.7288C4.07771 17.6348 3.9798 17.5366 3.8848 17.4342L2.45164 15.9957C2.17294 15.716 2.17378 15.2633 2.45352 14.9846C2.73325 14.7059 3.18595 14.7067 3.46464 14.9864L4.89181 16.4189L8.05652 13.5635L4.75084 9.92806C3.90842 9.0016 3.9785 7.56713 4.90722 6.7272C5.59802 6.10245 6.60104 5.96475 7.43464 6.38022L12.9637 9.13595L17.2816 5.2401ZM13.3574 17.4105L14.6651 18.8501C15.5045 19.7793 16.9389 19.8502 17.8659 19.0084C18.5554 18.3822 18.7908 17.3975 18.459 16.5271L17.4032 13.75L13.3574 17.4105Z"/></svg>