<svg xmlns="http://www.w3.org/2000/svg" fill="none" viewBox="0 0 24 24" focusable="false"><path fill="currentColor" fill-rule="evenodd" d="M12.5003 16.4712L11.436 17.4342C9.23654 19.4186 6.38266 19.7327 4.23569 17.7816C4.21796 17.767 4.20078 17.7513 4.18421 17.7347L4.17829 17.7288C4.07771 17.6348 3.9798 17.5366 3.8848 17.4342L2.45164 15.9957C2.17294 15.716 2.17378 15.2633 2.45352 14.9846C2.73325 14.7059 3.18595 14.7067 3.46464 14.9864L4.89181 16.4189L8.05652 13.5635L4.75084 9.92806C3.90842 9.0016 3.9785 7.56713 4.90722 6.7272C5.59802 6.10245 6.60104 5.96475 7.43464 6.38022L12.9637 9.13595L17.2816 5.2401C18.453 4.18319 20.0993 4.0687 21.1562 5.2401C22.2131 6.41151 21.779 8.07904 20.6075 9.13595L16.9274 12.4657L18.4589 16.5272C18.7906 17.3975 18.5552 18.3822 17.8657 19.0084C16.9388 19.8502 15.5043 19.7793 14.665 18.8501L12.5003 16.4712ZM6.85474 7.54372L13.1768 10.6947L18.1524 6.2053C18.9266 5.50684 19.729 5.59895 20.191 6.11096C20.4255 6.3709 20.4973 6.6651 20.4373 7.00482C20.3719 7.37493 20.1399 7.80692 19.7367 8.17076L10.5645 16.4695C9.64304 17.3007 8.64728 17.7262 7.73081 17.7865C7.08492 17.829 6.434 17.6944 5.81434 17.3375L9.89631 13.6545L5.71267 9.05348C5.35418 8.65923 5.384 8.0488 5.77921 7.69137C6.07318 7.42552 6.50001 7.36692 6.85474 7.54372ZM13.4643 15.599L15.6296 17.9787C15.9868 18.3741 16.5972 18.4043 16.9917 18.046C17.2851 17.7795 17.3853 17.3605 17.2441 16.9902L17.2425 16.9858L15.8919 13.404L13.4643 15.599Z"/></svg>