<svg xmlns="http://www.w3.org/2000/svg" fill="none" viewBox="0 0 24 24" focusable="false"><path fill="currentColor" d="M8.945 10.475C9.017 9.855 9.204 9.26 9.49 8.718 9.328 10.227 9.832 11.781 10.961 12.921L12.466 14.441C12.718 14.696 13.13 14.698 13.385 14.445 13.64 14.193 13.642 13.781 13.389 13.526L11.885 12.007C10.619 10.728 10.437 8.697 11.374 7.176 11.443 7.064 11.568 7 11.699 7L12.437 7C12.815 7 13.173 7.164 13.42 7.449L13.695 7.767C14.402 8.584 14.445 9.783 13.798 10.649L13.759 10.7C13.652 10.844 13.702 11.049 13.864 11.127 16.053 12.175 16.844 14.893 15.559 16.953L14.994 17.859C14.939 17.947 14.843 18 14.739 18L13.867 18 13.867 21.35C13.867 21.709 13.576 22 13.217 22 12.858 22 12.567 21.709 12.567 21.35L12.567 18 11.272 18 11.272 21.35C11.272 21.709 10.981 22 10.622 22 10.263 22 9.972 21.709 9.972 21.35L9.972 18 8.122 18C7.938 18 7.797 17.835 7.826 17.653L8.887 10.977 8.945 10.475ZM12.952 5.524C12.026 6.702 9.335 6.731 8.55 4.339 8.49 4.157 8.634 3.978 8.824 3.952 9.559 3.848 9.947 3.435 10.417 2.933 10.572 2.768 10.736 2.593 10.924 2.417 10.944 2.398 10.964 2.379 10.985 2.36 10.992 2.354 10.998 2.348 11.005 2.343 11.258 2.128 11.578 2 11.928 2 12.823 2 13.519 2.844 13.418 3.807L13.33 4.645C13.294 4.986 13.157 5.29 12.952 5.524Z"/><path fill="currentColor" d="M12.9521 5.52351C12.0259 6.70193 9.33468 6.73105 8.5496 4.33939C8.48962 4.15667 8.63365 3.97834 8.82409 3.95162C9.55923 3.84846 9.94691 3.43487 10.4171 2.93323C10.5719 2.7681 10.7357 2.59343 10.9237 2.41714C10.9437 2.3976 10.9642 2.37863 10.9852 2.36025C10.9916 2.35435 10.9981 2.34844 11.0047 2.34253C11.258 2.12817 11.5777 2 11.9276 2C12.823 2 13.5189 2.84364 13.4178 3.80655L13.3297 4.64508C13.2939 4.98593 13.1565 5.29024 12.9521 5.52351Z"/></svg>