<svg xmlns="http://www.w3.org/2000/svg" fill="none" viewBox="0 0 24 24" focusable="false"><path fill="currentColor" fill-rule="evenodd" d="M9.7002 4C10.4116 4 10.99 4.57196 10.9998 5.28137L11 5.30005L11 7.69995C11 7.70757 11 7.71515 10.9998 7.72273C10.9875 8.43024 10.4104 9 9.7002 9L5.2998 9C4.58203 9 4 8.41797 4 7.69995L4 5.30005C4 4.58203 4.58203 4 5.2998 4L9.7002 4ZM12.2998 10.3999L12.2998 5.30005L12.3 5.28137C12.3098 4.57196 12.8882 4 13.5996 4L18 4C18.7178 4 19.2998 4.58203 19.2998 5.30005L19.2998 10.3999C19.2998 11.1179 18.7178 11.7 18 11.7L13.5996 11.7C12.8818 11.7 12.2998 11.1179 12.2998 10.3999ZM9.7002 5.3L5.2998 5.3L5.30005 5.30005L5.30005 7.69995L5.2998 7.7L9.7002 7.7L9.69995 7.69995L9.69995 5.30005L9.7002 5.3ZM18 5.3L13.5996 5.3L13.5999 5.30005L13.5999 10.3999L13.5996 10.3999L18 10.3999L17.9998 10.3999L17.9998 5.30005L18 5.3ZM11 11.6001L11 18C11 18.0062 11 18.0125 10.9998 18.0187C10.99 18.7281 10.4116 19.3 9.7002 19.3L5.2998 19.3C4.58203 19.3 4 18.718 4 18L4 11.6001C4 10.8821 4.58203 10.3 5.2998 10.3L9.7002 10.3C10.418 10.3 11 10.8821 11 11.6001ZM9.7002 11.6001L5.2998 11.6001L5.30005 11.6001L5.30005 18L5.2998 18L9.7002 18L9.69995 18L9.69995 11.6001L9.7002 11.6001ZM12.2998 14.3C12.2998 14.2924 12.2998 14.2849 12.3 14.2773C12.3123 13.5698 12.8894 13 13.5996 13L18 13C18.7178 13 19.2998 13.582 19.2998 14.3L19.2998 18C19.2998 18.718 18.7178 19.3 18 19.3L13.5996 19.3C12.8882 19.3 12.3098 18.7281 12.3 18.0187L12.2998 18L12.2998 14.3ZM18 14.3L13.5996 14.3L13.5999 14.3L13.5999 18L13.5996 18L18 18L17.9998 18L17.9998 14.3L18 14.3Z"/><path fill="currentColor" fill-rule="evenodd" d="M5.2998 4L9.7002 4C10.418 4 11 4.58203 11 5.30005L11 7.69995C11 8.41797 10.418 9 9.7002 9L5.2998 9C4.58203 9 4 8.41797 4 7.69995L4 5.30005C4 4.58203 4.58203 4 5.2998 4Z"/><path fill="none" d="M5.2998 4L9.7002 4C10.418 4 11 4.58203 11 5.30005L11 7.69995C11 8.41797 10.418 9 9.7002 9L5.2998 9C4.58203 9 4 8.41797 4 7.69995L4 5.30005C4 4.58203 4.58203 4 5.2998 4Z"/><path fill="currentColor" fill-rule="evenodd" d="M13.5996 13L18 13C18.7178 13 19.2998 13.582 19.2998 14.3L19.2998 18C19.2998 18.718 18.7178 19.3 18 19.3L13.5996 19.3C12.8818 19.3 12.2998 18.718 12.2998 18L12.2998 14.3C12.2998 13.582 12.8818 13 13.5996 13Z"/><path fill="none" d="M13.5996 13L18 13C18.7178 13 19.2998 13.582 19.2998 14.3L19.2998 18C19.2998 18.718 18.7178 19.3 18 19.3L13.5996 19.3C12.8818 19.3 12.2998 18.718 12.2998 18L12.2998 14.3C12.2998 13.582 12.8818 13 13.5996 13Z"/><path fill="currentColor" fill-rule="evenodd" d="M13.5996 4L18 4C18.7178 4 19.2998 4.58203 19.2998 5.30005L19.2998 10.3999C19.2998 11.1179 18.7178 11.7 18 11.7L13.5996 11.7C12.8818 11.7 12.2998 11.1179 12.2998 10.3999L12.2998 5.30005C12.2998 4.58203 12.8818 4 13.5996 4Z"/><path fill="none" d="M13.5996 4L18 4C18.7178 4 19.2998 4.58203 19.2998 5.30005L19.2998 10.3999C19.2998 11.1179 18.7178 11.7 18 11.7L13.5996 11.7C12.8818 11.7 12.2998 11.1179 12.2998 10.3999L12.2998 5.30005C12.2998 4.58203 12.8818 4 13.5996 4Z"/><path fill="currentColor" fill-rule="evenodd" d="M5.2998 10.3L9.7002 10.3C10.418 10.3 11 10.8821 11 11.6001L11 18C11 18.718 10.418 19.3 9.7002 19.3L5.2998 19.3C4.58203 19.3 4 18.718 4 18L4 11.6001C4 10.8821 4.58203 10.3 5.2998 10.3Z"/><path fill="none" d="M5.2998 10.3L9.7002 10.3C10.418 10.3 11 10.8821 11 11.6001L11 18C11 18.718 10.418 19.3 9.7002 19.3L5.2998 19.3C4.58203 19.3 4 18.718 4 18L4 11.6001C4 10.8821 4.58203 10.3 5.2998 10.3Z"/></svg>