<svg viewBox="0 0 24 24" xmlns="http://www.w3.org/2000/svg" xmlns:xlink="http://www.w3.org/1999/xlink" width="24.000000" height="24.000000" fill="none">
	<rect id="Outline/Subscript Outline" width="24.000000" height="24.000000" x="0.000000" y="0.000000" />
	<path id="Shape" d="M4.26797 4.09163C4.55547 3.87665 4.95918 3.9381 5.16968 4.22888L10.0141 10.9208L14.8586 4.22888C15.0691 3.9381 15.4728 3.87665 15.7603 4.09163C16.0478 4.30661 16.1102 4.71662 15.8997 5.00741L10.8165 12.0292L15.8995 19.0507C16.11 19.3415 16.0476 19.7515 15.7601 19.9665C15.4726 20.1815 15.0689 20.12 14.8584 19.8292L10.0141 13.1375L5.16984 19.8292C4.95934 20.12 4.55563 20.1815 4.26813 19.9665C3.98064 19.7515 3.91823 19.3415 4.12874 19.0507L9.21177 12.0292L4.12858 5.00741C3.91807 4.71662 3.98048 4.30661 4.26797 4.09163ZM18.8561 15.7705C19.3393 15.2447 20.1932 15.336 20.5543 15.9521C20.7905 16.355 20.7358 16.8649 20.4195 17.2084L17.0118 20.9101C16.8371 21.0999 16.7912 21.3752 16.8948 21.6115C16.9985 21.8477 17.232 22.0004 17.4901 22.0004L21.3404 22.0004C21.6994 22.0004 21.9904 21.7093 21.9904 21.3503C21.9904 20.9914 21.6994 20.7003 21.3404 20.7003L18.9719 20.7003L21.3759 18.0889C22.0794 17.3247 22.2011 16.1907 21.6759 15.2947C20.8727 13.9246 18.9735 13.7215 17.8989 14.8909L17.5101 15.314C17.2672 15.5783 17.2846 15.9895 17.5489 16.2324C17.8132 16.4753 18.2244 16.458 18.4673 16.1936L18.8561 15.7705Z" fill="rgb(0,0,0)" fill-opacity="0.560000002" fill-rule="evenodd" />
</svg>
