<svg xmlns="http://www.w3.org/2000/svg" fill="none" viewBox="0 0 24 24" focusable="false"><path fill="currentColor" fill-rule="evenodd" d="M6 19C4.34314 19 3 17.6569 3 16L3 8C3 6.34315 4.34315 5 6 5L18 5C18.1036 5 18.2059 5.00525 18.3067 5.01549C19.8195 5.16912 21 6.4467 21 8L21 16C21 17.6569 19.6569 19 18 19L6 19ZM19.7 8C19.7 7.06112 18.9389 6.3 18 6.3L6 6.3C5.06112 6.3 4.3 7.06112 4.3 8L4.3 8.3194C4.36165 8.30001 4.42726 8.28955 4.49531 8.28955L19.7 8.28955L19.7 8ZM4.3 16L4.3 9.5597C4.36165 9.57909 4.42726 9.58955 4.49531 9.58955L19.7 9.58955L19.7 16C19.7 16.9389 18.9389 17.7 18 17.7L6 17.7C5.06112 17.7 4.3 16.9389 4.3 16ZM15.2139 10.8261C15.2291 10.8261 15.2443 10.8263 15.2594 10.8266C16.4308 10.8303 17.3792 11.781 17.3792 12.9532L17.3791 12.9701L17.3792 12.9915C17.3792 14.1873 16.4098 15.1568 15.2139 15.1568L14.2997 15.1568L14.2997 15.9418C14.2997 16.3008 14.0087 16.5918 13.6497 16.5918C13.639 16.5918 13.6283 16.5915 13.6177 16.591C13.6122 16.5912 13.6066 16.5912 13.6011 16.5912C13.2678 16.5912 12.9977 16.3211 12.9977 15.9878L12.9977 11.43C12.9977 11.0968 13.2678 10.8266 13.6011 10.8266L13.6253 10.8266C13.6335 10.8263 13.6416 10.8261 13.6497 10.8261L15.2139 10.8261ZM8.8734 14.3648L8.4297 14.3648L8.4297 15.9476C8.4297 16.3066 8.13869 16.5976 7.7797 16.5976C7.42071 16.5976 7.1297 16.3066 7.1297 15.9476L7.1297 11.482C7.1297 11.123 7.42071 10.832 7.7797 10.832C8.13869 10.832 8.4297 11.123 8.4297 11.482L8.4297 13.0648L8.92983 13.0648C8.94363 13.0438 8.9588 13.0233 8.97534 13.0036L10.6002 11.0645C10.8308 10.7894 11.2407 10.7532 11.5159 10.9838C11.791 11.2143 11.8272 11.6243 11.5966 11.8995L10.0472 13.7485L11.5403 15.5302C11.7708 15.8054 11.7347 16.2153 11.4595 16.4459C11.1844 16.6765 10.7744 16.6403 10.5439 16.3652L8.91899 14.4261C8.90242 14.4063 8.88722 14.3858 8.8734 14.3648ZM15.2139 13.8568L14.2997 13.8568L14.2997 12.1261L15.2139 12.1261C15.6918 12.1261 16.0792 12.5136 16.0792 12.9915C16.0792 13.4694 15.6918 13.8568 15.2139 13.8568Z"/></svg>