<svg xmlns="http://www.w3.org/2000/svg" fill="none" viewBox="0 0 24 24" focusable="false"><path fill="currentColor" d="M7.777 14.946 6.248 16.709C6.013 16.981 5.603 17.01 5.331 16.775 5.06 16.54 5.031 16.129 5.266 15.858L7.056 13.793C7.101 13.741 7.152 13.698 7.208 13.664 7.44 13.443 7.805 13.423 8.08 13.605 9.195 14.342 10.532 14.772 11.968 14.772 13.468 14.772 14.859 14.304 16.002 13.507 16.294 13.303 16.699 13.332 16.931 13.602 16.95 13.623 16.966 13.645 16.982 13.668L18.734 15.69C18.969 15.961 18.94 16.372 18.668 16.607 18.397 16.842 17.987 16.813 17.752 16.541L16.298 14.864C15.218 15.52 13.978 15.937 12.65 16.044 12.65 16.053 12.65 16.061 12.65 16.069L12.65 17.946C12.65 18.305 12.359 18.596 12 18.596 11.641 18.596 11.35 18.305 11.35 17.946L11.35 16.069C11.35 16.063 11.35 16.056 11.35 16.049 10.055 15.954 8.841 15.564 7.777 14.946ZM5.412 18.651C5.412 19.369 4.83 19.951 4.112 19.951 3.394 19.951 2.812 19.369 2.812 18.651 2.812 17.933 3.394 17.351 4.112 17.351 4.83 17.351 5.412 17.933 5.412 18.651Z"/><path fill="currentColor" d="M5.412 18.651C5.412 19.369 4.83 19.951 4.112 19.951 3.394 19.951 2.812 19.369 2.812 18.651 2.812 17.933 3.394 17.351 4.112 17.351 4.83 17.351 5.412 17.933 5.412 18.651ZM13.3 20.7C13.3 21.418 12.718 22 12 22 11.282 22 10.7 21.418 10.7 20.7 10.7 19.982 11.282 19.4 12 19.4 12.718 19.4 13.3 19.982 13.3 20.7Z"/><path fill="currentColor" d="M13.3 20.7C13.3 21.418 12.718 22 12 22 11.282 22 10.7 21.418 10.7 20.7 10.7 19.982 11.282 19.4 12 19.4 12.718 19.4 13.3 19.982 13.3 20.7ZM19.888 19.951C20.606 19.951 21.188 19.369 21.188 18.651 21.188 17.933 20.606 17.351 19.888 17.351 19.17 17.351 18.588 17.933 18.588 18.651 18.588 19.369 19.17 19.951 19.888 19.951Z"/><path fill="currentColor" d="M19.888 19.951C20.606 19.951 21.188 19.369 21.188 18.651 21.188 17.933 20.606 17.351 19.888 17.351 19.17 17.351 18.588 17.933 18.588 18.651 18.588 19.369 19.17 19.951 19.888 19.951ZM11.299 6.916 11.299 5.359 13.077 5.359C13.507 5.359 13.856 5.708 13.856 6.138 13.856 6.568 13.507 6.916 13.077 6.916L11.299 6.916Z"/><path fill="currentColor" d="M11.2986 6.91647L11.2986 5.35933L13.0772 5.35933C13.5072 5.35933 13.8558 5.7079 13.8558 6.1379C13.8558 6.56789 13.5072 6.91647 13.0772 6.91647L11.2986 6.91647Z"/><path fill="currentColor" fill-rule="evenodd" d="M12 13.4186C15.1531 13.4186 17.7093 10.8625 17.7093 7.70932C17.7093 4.55615 15.1531 2 12 2C8.8468 2 6.29065 4.55615 6.29065 7.70932C6.29065 10.8625 8.8468 13.4186 12 13.4186ZM13.0772 8.21647L11.2986 8.21647L11.2986 8.9158L13.0421 8.9158C13.4011 8.9158 13.6921 9.20682 13.6921 9.5658C13.6921 9.92479 13.4011 10.2158 13.0421 10.2158L11.2986 10.2158L11.2986 10.7093C11.2986 11.0683 11.0076 11.3593 10.6486 11.3593C10.2896 11.3593 9.99864 11.0683 9.99864 10.7093L9.99864 10.2158L9.57523 10.2158C9.21625 10.2158 8.92523 9.92479 8.92523 9.5658C8.92523 9.20682 9.21625 8.9158 9.57523 8.9158L9.99864 8.9158L9.99864 8.21647L9.58373 8.21647C9.22474 8.21647 8.93373 7.92545 8.93373 7.56647C8.93373 7.20748 9.22474 6.91647 9.58373 6.91647L9.99864 6.91647L9.99864 5.00813C9.99864 4.48008 10.4274 4.05933 10.9486 4.05933L13.0772 4.05933C14.2252 4.05933 15.1558 4.98993 15.1558 6.1379C15.1558 7.28586 14.2252 8.21647 13.0772 8.21647Z"/><path fill="currentColor" fill-rule="evenodd" d="M12 13.4186C15.1531 13.4186 17.7093 10.8625 17.7093 7.70932C17.7093 4.55615 15.1531 2 12 2C8.8468 2 6.29065 4.55615 6.29065 7.70932C6.29065 10.8625 8.8468 13.4186 12 13.4186ZM13.0772 8.21647L11.2986 8.21647L11.2986 8.9158L13.0421 8.9158C13.4011 8.9158 13.6921 9.20682 13.6921 9.5658C13.6921 9.92479 13.4011 10.2158 13.0421 10.2158L11.2986 10.2158L11.2986 10.7093C11.2986 11.0683 11.0076 11.3593 10.6486 11.3593C10.2896 11.3593 9.99864 11.0683 9.99864 10.7093L9.99864 10.2158L9.57523 10.2158C9.21625 10.2158 8.92523 9.92479 8.92523 9.5658C8.92523 9.20682 9.21625 8.9158 9.57523 8.9158L9.99864 8.9158L9.99864 8.21647L9.58373 8.21647C9.22474 8.21647 8.93373 7.92545 8.93373 7.56647C8.93373 7.20748 9.22474 6.91647 9.58373 6.91647L9.99864 6.91647L9.99864 5.00813C9.99864 4.48008 10.4274 4.05933 10.9486 4.05933L13.0772 4.05933C14.2252 4.05933 15.1558 4.98993 15.1558 6.1379C15.1558 7.28586 14.2252 8.21647 13.0772 8.21647Z"/></svg>