<svg xmlns="http://www.w3.org/2000/svg" fill="none" viewBox="0 0 24 24" focusable="false"><path fill="currentColor" fill-rule="evenodd" d="M5 11L5 6C5 4.34314 6.34326 3 8 3L13.042 3C13.8752 3 14.6709 3.34656 15.2385 3.9566L18.1965 7.13629C18.7129 7.69141 19 8.42151 19 9.17969L19 11C20.6567 11 22 12.3431 22 14L22 18C22 19.6569 20.6567 21 19 21L5 21C3.34326 21 2 19.6569 2 18L2 14C2 12.3431 3.34326 11 5 11ZM13.042 4.29999L8 4.29999C7.06104 4.29999 6.30005 5.0611 6.30005 6L6.30005 11L17.7 11L17.7 9.17969C17.7 9.11914 17.6968 9.05896 17.6904 8.99927L15.2998 8.99927C14.2229 8.99927 13.3499 8.12622 13.3499 7.04926L13.3499 4.32812C13.249 4.30957 13.146 4.29999 13.042 4.29999ZM14.6499 5.23254L14.6499 7.04926C14.6499 7.4082 14.9409 7.69922 15.2998 7.69922L16.9446 7.69922L14.6499 5.23254ZM5.73218 17.7752C5.59302 17.9756 5.46216 18.0535 5.2395 18.0535C4.92773 18.0535 4.68848 17.8281 4.68848 17.5386C4.68848 17.3883 4.73291 17.2603 4.8584 17.0905L5.6792 15.9717L5.6792 15.9494L4.89722 14.9335C4.75537 14.7499 4.71069 14.6163 4.71069 14.4548C4.71069 14.1292 4.9585 13.8982 5.30371 13.8982C5.52344 13.8982 5.69336 14.004 5.82959 14.2155L6.50049 15.248L6.52246 15.248L7.22681 14.1737C7.35205 13.9817 7.46875 13.8982 7.69727 13.8982C8.00342 13.8982 8.27051 14.118 8.27051 14.3992C8.27051 14.5606 8.22607 14.6886 8.1062 14.8389L7.22119 15.955L7.22119 15.9772L8.08105 17.071C8.20361 17.2269 8.25098 17.3605 8.25098 17.5247C8.25098 17.8364 8.02539 18.0535 7.69995 18.0535C7.4856 18.0535 7.34082 17.9672 7.18774 17.7613L6.45581 16.7733L6.43066 16.7733L5.73218 17.7752ZM9.44482 17.9839L11.1455 17.9839C11.4629 17.9839 11.666 17.8141 11.666 17.5135C11.666 17.213 11.4573 17.0432 11.1455 17.0432L10.0349 17.0432L10.0349 14.5161C10.0349 14.1208 9.8208 13.8982 9.44482 13.8982C9.06934 13.8982 8.85498 14.1208 8.85498 14.5161L8.85498 17.3661C8.85498 17.7613 9.06934 17.9839 9.44482 17.9839ZM15.4287 16.7009C15.4287 17.5275 14.7832 18.0535 13.6753 18.0535C12.771 18.0535 12.2476 17.7279 12.0752 17.3354C12.0332 17.2436 12.0139 17.149 12.0139 17.0571C12.0139 16.7733 12.228 16.5784 12.5205 16.5784C12.7432 16.5784 12.8933 16.648 13.052 16.8707C13.1912 17.0682 13.4248 17.149 13.6895 17.149C14.0427 17.149 14.2598 17.0043 14.2598 16.8066C14.2598 16.6174 14.104 16.5367 13.6531 16.4559L13.2495 16.3836C12.4507 16.2416 12.0139 15.8381 12.0139 15.2147C12.0139 14.4075 12.7097 13.8982 13.6643 13.8982C14.4602 13.8982 15.0308 14.1793 15.2395 14.6803C15.2729 14.761 15.2896 14.8361 15.2896 14.928C15.2896 15.1952 15.0947 15.3761 14.7998 15.3788C14.5493 15.3788 14.3906 15.2926 14.2488 15.0782C14.1179 14.8779 13.9314 14.8027 13.6782 14.8027C13.3499 14.8027 13.1829 14.9474 13.1829 15.1284C13.1829 15.3093 13.3555 15.3956 13.7561 15.4679L14.1597 15.5403C15.0225 15.6962 15.4287 16.0496 15.4287 16.7009ZM16.2805 18.0535C16.5032 18.0535 16.634 17.9756 16.7732 17.7752L17.4717 16.7733L17.4968 16.7733L18.2288 17.7613C18.3818 17.9672 18.5266 18.0535 18.7407 18.0535C19.0664 18.0535 19.292 17.8364 19.292 17.5247C19.292 17.3605 19.2446 17.2269 19.1221 17.071L18.2622 15.9772L18.2622 15.955L19.1472 14.8389C19.2668 14.6886 19.3115 14.5606 19.3115 14.3992C19.3115 14.118 19.0442 13.8982 18.738 13.8982C18.5098 13.8982 18.3931 13.9817 18.2676 14.1737L17.5635 15.248L17.5413 15.248L16.8706 14.2155C16.7341 14.004 16.5645 13.8982 16.3445 13.8982C15.9995 13.8982 15.7517 14.1292 15.7517 14.4548C15.7517 14.6163 15.7961 14.7499 15.9382 14.9335L16.7202 15.9494L16.7202 15.9717L15.8992 17.0905C15.7739 17.2603 15.7295 17.3883 15.7295 17.5386C15.7295 17.8281 15.9688 18.0535 16.2805 18.0535Z"/></svg>