<svg xmlns="http://www.w3.org/2000/svg" fill="none" viewBox="0 0 24 24" focusable="false"><path fill="currentColor" fill-rule="evenodd" d="M5.87803 10.5269C5.62419 10.7807 5.21264 10.7807 4.95879 10.5269L3.19307 8.76115C2.93923 8.50731 2.93923 8.09576 3.19307 7.84191C3.44691 7.58807 3.85846 7.58807 4.11231 7.84191L4.76845 8.49806C4.77118 4.91036 7.68042 2.00281 11.2688 2.00281C11.6277 2.00281 11.9188 2.29382 11.9188 2.65281C11.9188 3.01179 11.6277 3.30281 11.2688 3.30281C8.39842 3.30281 6.07122 5.62829 6.06845 8.49799L6.72452 7.84191C6.97836 7.58807 7.38992 7.58807 7.64376 7.84191C7.8976 8.09576 7.8976 8.50731 7.64376 8.76115L5.87803 10.5269ZM22 8.69985C22 7.04299 20.6569 5.69984 19 5.69984L12.2566 5.69984C10.5998 5.69984 9.25665 7.04299 9.25665 8.69984L9.25665 18C9.25665 19.6569 10.5998 21 12.2566 21L19 21C20.6569 21 22 19.6569 22 18L22 8.69985Z"/></svg>