<svg xmlns="http://www.w3.org/2000/svg" fill="none" viewBox="0 0 24 24" focusable="false"><path fill="currentColor" d="M20.82 3.258C21.067 3.516 21.059 3.928 20.803 4.177L18.928 6 20.803 7.823C21.059 8.072 21.067 8.484 20.82 8.742 20.573 9.001 20.165 9.009 19.909 8.76L18 6.903 16.091 8.76C15.835 9.009 15.427 9.001 15.18 8.742 14.934 8.484 14.941 8.072 15.197 7.823L17.072 6 15.197 4.177C14.941 3.928 14.934 3.516 15.18 3.258 15.427 2.999 15.835 2.991 16.091 3.24L18 5.097 19.909 3.24C20.165 2.991 20.573 2.999 20.82 3.258ZM9.107 18.835C8.554 19.301 7.833 19.909 6.652 19.909 4.581 19.909 3.614 18.561 3.233 18.029 3.199 17.982 3.17 17.942 3.145 17.909 2.928 17.623 2.983 17.216 3.269 16.998 3.554 16.781 3.962 16.836 4.18 17.122 4.213 17.166 4.248 17.214 4.285 17.265 4.665 17.784 5.268 18.609 6.652 18.609 7.335 18.609 7.733 18.293 8.301 17.814L8.33 17.79C8.884 17.322 9.607 16.712 10.794 16.712 12.774 16.712 13.843 18.111 14.255 18.649 14.313 18.725 14.358 18.784 14.391 18.819 14.634 19.084 14.616 19.495 14.352 19.738 14.088 19.981 13.677 19.963 13.434 19.699 13.347 19.605 13.257 19.494 13.162 19.374 12.692 18.791 12.066 18.012 10.794 18.012 10.106 18.012 9.706 18.33 9.139 18.808L9.107 18.835Z"/><path fill="currentColor" d="M9.107 18.835C8.554 19.301 7.833 19.909 6.652 19.909 4.581 19.909 3.614 18.561 3.233 18.029 3.199 17.982 3.17 17.942 3.145 17.909 2.928 17.623 2.983 17.216 3.269 16.998 3.554 16.781 3.962 16.836 4.18 17.122 4.213 17.166 4.248 17.214 4.285 17.265 4.665 17.784 5.268 18.609 6.652 18.609 7.335 18.609 7.733 18.293 8.301 17.814L8.33 17.79C8.884 17.322 9.607 16.712 10.794 16.712 12.774 16.712 13.843 18.111 14.255 18.649 14.313 18.725 14.358 18.784 14.391 18.819 14.634 19.084 14.616 19.495 14.352 19.738 14.088 19.981 13.677 19.963 13.434 19.699 13.347 19.605 13.257 19.494 13.162 19.374 12.692 18.791 12.066 18.012 10.794 18.012 10.106 18.012 9.706 18.33 9.139 18.808L9.107 18.835ZM7.406 4.981C7.913 4.473 8.737 4.473 9.244 4.981L10.378 6.114C10.648 6.385 10.651 6.823 10.384 7.097L8.365 9.171C8.093 9.45 7.644 9.453 7.369 9.177L6.249 8.057C5.741 7.55 5.741 6.726 6.249 6.219L7.406 4.981Z"/><path fill="currentColor" d="M7.406 4.981C7.913 4.473 8.737 4.473 9.244 4.981L10.378 6.114C10.648 6.385 10.651 6.823 10.384 7.097L8.365 9.171C8.093 9.45 7.644 9.453 7.369 9.177L6.249 8.057C5.741 7.55 5.741 6.726 6.249 6.219L7.406 4.981ZM9.278 11.087C9.007 10.816 9.004 10.378 9.271 10.104L11.291 8.03C11.563 7.75 12.011 7.747 12.287 8.023L19.719 15.456C20.117 15.853 20.395 16.355 20.521 16.903L20.921 18.634C21.137 19.571 20.838 19.95 19.902 19.734L18.171 19.334C17.623 19.208 17.121 18.93 16.723 18.532L9.278 11.087Z"/><path fill="currentColor" d="M9.27802 11.0869C9.00722 10.8161 9.0043 10.3779 9.27147 10.1035L11.2905 8.03001C11.5628 7.75042 12.0111 7.74744 12.287 8.02338L19.7192 15.4556C20.1169 15.8533 20.3948 16.3547 20.5213 16.9027L20.9208 18.6342C21.1369 19.5705 20.8383 19.9499 19.902 19.7339L18.1705 19.3343C17.6225 19.2078 17.1211 18.9299 16.7234 18.5323L9.27802 11.0869Z"/></svg>