<svg viewBox="0 0 24 24" xmlns="http://www.w3.org/2000/svg" xmlns:xlink="http://www.w3.org/1999/xlink" width="24.000000" height="24.000000" fill="none">
	<rect id="Solid/File DOCX Solid" width="24.000000" height="24.000000" x="0.000000" y="0.000000" />
	<path id="Subtract" d="M5 11L5 6C5 4.34315 6.34314 3 8 3L13.042 3C13.8752 3 14.671 3.34655 15.2385 3.95662L18.1965 7.13629C18.7129 7.69141 19 8.42148 19 9.17966L19 11C20.6569 11 22 12.3431 22 14L22 18C22 19.6569 20.6569 21 19 21L5 21C3.34314 21 2 19.6569 2 18L2 14C2 12.3431 3.34314 11 5 11ZM13.042 4.3L8 4.3C7.0611 4.3 6.29999 5.06111 6.29999 6L6.29999 11L17.7 11L17.7 9.17966C17.7 9.11913 17.6968 9.05892 17.6904 8.99925L15.2999 8.99926C14.223 8.99926 13.3499 8.12621 13.3499 7.04926L13.3499 4.32811C13.2491 4.30954 13.1461 4.3 13.042 4.3ZM14.6499 5.23254L14.6499 7.04926C14.6499 7.40824 14.9409 7.69926 15.2999 7.69926L16.9446 7.69926L14.6499 5.23254ZM10.13 17.8908C11.2625 17.8908 11.9759 17.1672 11.9759 15.9967C11.9759 14.8261 11.2625 14.1 10.13 14.1C8.99762 14.1 8.28412 14.8261 8.28412 15.9967C8.28412 17.1672 8.99506 17.8908 10.13 17.8908ZM15.6957 17.0072C15.4824 17.5379 14.8654 17.8908 14.1519 17.8908C12.989 17.8908 12.306 17.2027 12.306 15.9941C12.306 14.7855 13.0043 14.1 14.1113 14.1C14.8121 14.1 15.3301 14.3666 15.6195 14.8769C15.6931 15.0039 15.7312 15.1385 15.7312 15.2679C15.7312 15.5422 15.5459 15.7199 15.264 15.7199C15.0305 15.7199 14.8882 15.6285 14.7715 15.4025C14.6089 15.0902 14.4058 14.9455 14.124 14.9455C13.6822 14.9455 13.4029 15.3365 13.4029 15.9916C13.4029 16.6543 13.6797 17.0453 14.1265 17.0453C14.4211 17.0453 14.6267 16.8955 14.7816 16.5705C14.8908 16.3394 15.0203 16.2506 15.2463 16.2506C15.5535 16.2506 15.7541 16.4384 15.7541 16.7254C15.7541 16.8168 15.7338 16.9133 15.6957 17.0072ZM16.6122 17.8908C16.8154 17.8908 16.9347 17.8197 17.0616 17.6369L17.699 16.7228L17.7218 16.7228L18.3896 17.6242C18.5292 17.8121 18.6613 17.8908 18.8568 17.8908C19.1538 17.8908 19.3595 17.6927 19.3595 17.4084C19.3595 17.2586 19.3163 17.1367 19.2046 16.9945L18.42 15.9967L18.42 15.9763L19.2275 14.9582C19.3367 14.8211 19.3773 14.7043 19.3773 14.557C19.3773 14.3006 19.1335 14.1 18.8542 14.1C18.646 14.1 18.5394 14.1761 18.4251 14.3513L17.7827 15.3314L17.7625 15.3314L17.1505 14.3894C17.0261 14.1965 16.8712 14.1 16.6707 14.1C16.3558 14.1 16.1298 14.3107 16.1298 14.6078C16.1298 14.7551 16.1704 14.8769 16.2999 15.0445L17.0134 15.9713L17.0134 15.9916L16.2644 17.0123C16.1501 17.1672 16.1095 17.284 16.1095 17.4211C16.1095 17.6851 16.3279 17.8908 16.6122 17.8908ZM6.18939 17.8273L5.16107 17.8273C4.8183 17.8273 4.6228 17.6242 4.6228 17.2636L4.6228 14.7271C4.6228 14.3666 4.8183 14.1635 5.16107 14.1635L6.18939 14.1635C7.30151 14.1635 7.95404 14.7957 7.95404 15.9687C7.95404 17.1418 7.29895 17.8273 6.18939 17.8273ZM10.13 17.0326C9.67804 17.0326 9.38098 16.6289 9.38098 15.9967C9.38098 15.3619 9.6806 14.9582 10.13 14.9582C10.5794 14.9582 10.879 15.3619 10.879 15.9967C10.879 16.6289 10.582 17.0326 10.13 17.0326ZM5.69934 15.0191L5.69934 16.9716L6.03705 16.9716C6.57532 16.9716 6.85718 16.6441 6.85718 15.9687C6.85718 15.3517 6.55249 15.0191 6.03705 15.0191L5.69934 15.0191Z" fill="rgb(0,0,0)" fill-opacity="0.560000002" fill-rule="evenodd" />
</svg>
