<svg viewBox="0 0 24 24" xmlns="http://www.w3.org/2000/svg" xmlns:xlink="http://www.w3.org/1999/xlink" width="24.000000" height="24.000000" fill="none">
	<rect id="Solid/File PNG Solid" width="24.000000" height="24.000000" x="0.000000" y="0.000000" />
	<path id="Shape" d="M5 11L5 6C5 4.34314 6.34326 3 8 3L13.042 3C13.8752 3 14.6709 3.34656 15.2385 3.9566L18.1965 7.13629C18.7129 7.69141 19 8.42151 19 9.17969L19 11C20.6567 11 22 12.3431 22 14L22 18C22 19.6569 20.6567 21 19 21L5 21C3.34326 21 2 19.6569 2 18L2 14C2 12.3431 3.34326 11 5 11ZM13.042 4.29999L8 4.29999C7.06104 4.29999 6.30005 5.0611 6.30005 6L6.30005 11L17.7 11L17.7 9.17969C17.7 9.11914 17.6968 9.0589 17.6904 8.99927L15.2998 8.99927C14.2229 8.99927 13.3499 8.12622 13.3499 7.04926L13.3499 4.32812C13.249 4.30957 13.146 4.29999 13.042 4.29999ZM14.6499 5.23254L14.6499 7.04926C14.6499 7.40826 14.9409 7.69928 15.2998 7.69928L16.9446 7.69928L14.6499 5.23254ZM10.9253 17.584C10.9253 17.9957 10.7012 18.2198 10.3198 18.2198C9.9353 18.2198 9.71436 17.9957 9.71436 17.584L9.71436 14.2933C9.71436 13.9058 9.92627 13.7 10.3198 13.7C10.553 13.7 10.7314 13.8059 10.9163 14.0511L12.3965 16.0401L12.4209 16.0401L12.4209 14.3357C12.4209 13.924 12.6448 13.7 13.0264 13.7C13.4106 13.7 13.6318 13.924 13.6318 14.3357L13.6318 17.6264C13.6318 18.0109 13.4229 18.2198 13.0415 18.2198C12.7961 18.2198 12.6235 18.1168 12.4419 17.8686L10.9495 15.8433L10.9253 15.8433L10.9253 17.584ZM16.7102 18.2198C18.012 18.2198 18.7324 17.4205 18.7324 16.3822C18.7324 15.9523 18.4995 15.7101 18.0908 15.7101L17.2461 15.7101C16.9556 15.7101 16.7708 15.8615 16.7708 16.137C16.7708 16.4125 16.9585 16.5638 17.2461 16.5638L17.4973 16.5638L17.4912 16.6244C17.4551 16.9755 17.1582 17.2086 16.7405 17.2086C16.1775 17.2086 15.811 16.7333 15.811 15.9371C15.811 15.1591 16.1321 14.7111 16.677 14.7111C16.9858 14.7111 17.1946 14.8261 17.4004 15.1016C17.5579 15.3105 17.7485 15.4073 18 15.4073C18.3269 15.4073 18.5508 15.1864 18.5508 14.8655C18.5508 14.7565 18.5266 14.6536 18.4631 14.5355C18.2058 14.0753 17.5459 13.7 16.6709 13.7C15.3237 13.7 14.5034 14.5234 14.5034 15.9553C14.5034 17.4054 15.3237 18.2198 16.7102 18.2198ZM5.90942 18.2198C6.31812 18.2198 6.55127 17.9776 6.55127 17.5477L6.55127 16.9513L7.1748 16.9513C8.19507 16.9513 8.88818 16.3307 8.88818 15.368C8.88818 14.3962 8.23438 13.7756 7.2627 13.7756L5.90942 13.7756C5.50073 13.7756 5.26758 14.0178 5.26758 14.4477L5.26758 17.5477C5.26758 17.9776 5.50073 18.2198 5.90942 18.2198ZM6.55127 16.0038L6.55127 14.7413L6.92041 14.7413C7.33838 14.7413 7.59253 14.9563 7.59253 15.371C7.59253 15.7888 7.33838 16.0038 6.91138 16.0038L6.55127 16.0038Z" fill="rgb(0,0,0)" fill-opacity="0.560000002" fill-rule="evenodd" />
</svg>
