<svg viewBox="0 0 24 24" xmlns="http://www.w3.org/2000/svg" xmlns:xlink="http://www.w3.org/1999/xlink" width="24.000000" height="24.000000" fill="none" customFrame="#000000">
	<rect id="Outline/Lock Outline" width="24.000000" height="24.000000" x="0.000000" y="0.000000" />
	<path id="Shape" d="M8.01561 9.00002L8.0156 7.08429C8.0156 4.89046 9.79406 3.112 11.9879 3.112C14.1817 3.112 15.9602 4.89045 15.9602 7.08429L15.9602 9.00002L16 9.00002C17.6569 9.00002 19 10.3432 19 12L19 17C19 18.6569 17.6569 20 16 20L8 20C6.34315 20 5 18.6569 5 17L5 12C5 10.3432 6.34315 9.00002 8 9.00002L8.01561 9.00002ZM9.3456 7.08429C9.3456 5.625 10.5286 4.442 11.9879 4.442C13.4472 4.442 14.6302 5.62499 14.6302 7.08429L14.6302 9.00002L9.34561 9.00002L9.3456 7.08429ZM8 10.3L16 10.3C16.9389 10.3 17.7 11.0611 17.7 12L17.7 17C17.7 17.9389 16.9389 18.7 16 18.7L8 18.7C7.06112 18.7 6.3 17.9389 6.3 17L6.3 12C6.3 11.0611 7.06112 10.3 8 10.3ZM12 12.9918C12.359 12.9918 12.65 13.2828 12.65 13.6418L12.65 15.3583C12.65 15.7172 12.359 16.0083 12 16.0083C11.641 16.0083 11.35 15.7172 11.35 15.3583L11.35 13.6418C11.35 13.2828 11.641 12.9918 12 12.9918Z" fill="rgb(0,0,0)" fill-opacity="0.560000002" fill-rule="evenodd" />
</svg>
